%TF.GenerationSoftware,KiCad,Pcbnew,10.0.5*%
%TF.CreationDate,2026-09-22T12:00:04+01:00*%
%TF.ProjectId,WaviTrack_v2_2,494d555f-5557-4425-9f48-4d432e6b6963,2.1*%
%TF.SameCoordinates,Original*%
%TF.FileFunction,Copper,L1,Top*%
%TF.FilePolarity,Positive*%
%FSLAX46Y46*%
G04 Gerber Fmt 4.6, Leading zero omitted, Abs format (unit mm)*
G04 Created by KiCad (PCBNEW 10.0.5) date 2026-09-22 12:00:04*
%MOMM*%
%LPD*%
G01*
G04 APERTURE LIST*
G04 Aperture macros list*
%AMRoundRect*
0 Rectangle with rounded corners*
0 $1 Rounding radius*
0 $2 $3 $4 $5 $6 $7 $8 $9 X,Y pos of 4 corners*
0 Add a 4 corners polygon primitive as box body*
4,1,4,$2,$3,$4,$5,$6,$7,$8,$9,$2,$3,0*
0 Add four circle primitives for the rounded corners*
1,1,$1+$1,$2,$3*
1,1,$1+$1,$4,$5*
1,1,$1+$1,$6,$7*
1,1,$1+$1,$8,$9*
0 Add four rect primitives between the rounded corners*
20,1,$1+$1,$2,$3,$4,$5,0*
20,1,$1+$1,$4,$5,$6,$7,0*
20,1,$1+$1,$6,$7,$8,$9,0*
20,1,$1+$1,$8,$9,$2,$3,0*%
G04 Aperture macros list end*
%TA.AperFunction,SMDPad,CuDef*%
%ADD10RoundRect,0.225000X0.250000X-0.225000X0.250000X0.225000X-0.250000X0.225000X-0.250000X-0.225000X0*%
%TD*%
%TA.AperFunction,SMDPad,CuDef*%
%ADD11R,0.254000X0.675000*%
%TD*%
%TA.AperFunction,SMDPad,CuDef*%
%ADD12R,0.675000X0.254000*%
%TD*%
%TA.AperFunction,SMDPad,CuDef*%
%ADD13RoundRect,0.250000X0.262500X0.450000X-0.262500X0.450000X-0.262500X-0.450000X0.262500X-0.450000X0*%
%TD*%
%TA.AperFunction,SMDPad,CuDef*%
%ADD14RoundRect,0.250000X-0.450000X0.262500X-0.450000X-0.262500X0.450000X-0.262500X0.450000X0.262500X0*%
%TD*%
%TA.AperFunction,SMDPad,CuDef*%
%ADD15RoundRect,0.152400X1.063600X0.609600X-1.063600X0.609600X-1.063600X-0.609600X1.063600X-0.609600X0*%
%TD*%
%TA.AperFunction,ComponentPad*%
%ADD16C,1.524000*%
%TD*%
%TA.AperFunction,SMDPad,CuDef*%
%ADD17RoundRect,0.152400X-1.063600X-0.609600X1.063600X-0.609600X1.063600X0.609600X-1.063600X0.609600X0*%
%TD*%
%TA.AperFunction,SMDPad,CuDef*%
%ADD18RoundRect,0.225000X0.225000X0.250000X-0.225000X0.250000X-0.225000X-0.250000X0.225000X-0.250000X0*%
%TD*%
%TA.AperFunction,ComponentPad*%
%ADD19C,3.400000*%
%TD*%
%TA.AperFunction,ConnectorPad*%
%ADD20C,6.000000*%
%TD*%
%TA.AperFunction,SMDPad,CuDef*%
%ADD21R,1.900000X1.300000*%
%TD*%
%TA.AperFunction,SMDPad,CuDef*%
%ADD22R,2.450000X1.000000*%
%TD*%
%TA.AperFunction,SMDPad,CuDef*%
%ADD23R,1.000000X2.450000*%
%TD*%
%TA.AperFunction,SMDPad,CuDef*%
%ADD24RoundRect,0.243750X-0.243750X-0.456250X0.243750X-0.456250X0.243750X0.456250X-0.243750X0.456250X0*%
%TD*%
%TA.AperFunction,SMDPad,CuDef*%
%ADD25RoundRect,0.250000X0.450000X-0.262500X0.450000X0.262500X-0.450000X0.262500X-0.450000X-0.262500X0*%
%TD*%
%TA.AperFunction,ViaPad*%
%ADD26C,0.600000*%
%TD*%
%TA.AperFunction,Conductor*%
%ADD27C,0.250000*%
%TD*%
%TA.AperFunction,Conductor*%
%ADD28C,0.500000*%
%TD*%
G04 APERTURE END LIST*
D10*
%TO.P,C6,1*%
%TO.N,+3V3*%
X79761500Y-54336500D03*
%TO.P,C6,2*%
%TO.N,GND*%
X79761500Y-52786500D03*
%TD*%
D11*
%TO.P,U1,1,PIN1*%
%TO.N,unconnected-(U1-PIN1-Pad1)*%
X81311500Y-52699000D03*
D12*
%TO.P,U1,2,GND*%
%TO.N,GND*%
X81174000Y-53611500D03*
%TO.P,U1,3,VDD*%
%TO.N,+3V3*%
X81174000Y-54111500D03*
%TO.P,U1,4,~{BOOT_LOAD_PIN}*%
%TO.N,Net-(U1-~{BOOT_LOAD_PIN})*%
X81174000Y-54611500D03*
%TO.P,U1,5,PS1*%
%TO.N,GND*%
X81174000Y-55111500D03*
D11*
%TO.P,U1,6,PS0*%
X81311500Y-56024000D03*
%TO.P,U1,7,PIN7*%
%TO.N,unconnected-(U1-PIN7-Pad7)*%
X81811500Y-56024000D03*
%TO.P,U1,8,PIN8*%
%TO.N,unconnected-(U1-PIN8-Pad8)*%
X82311500Y-56024000D03*
%TO.P,U1,9,CAP*%
%TO.N,Net-(U1-CAP)*%
X82811500Y-56024000D03*
%TO.P,U1,10,BL_IND*%
%TO.N,unconnected-(U1-BL_IND-Pad10)*%
X83311500Y-56024000D03*
%TO.P,U1,11,~{RESET}*%
%TO.N,Net-(U1-~{RESET})*%
X83811500Y-56024000D03*
%TO.P,U1,12,PIN12*%
%TO.N,unconnected-(U1-PIN12-Pad12)*%
X84311500Y-56024000D03*
%TO.P,U1,13,PIN13*%
%TO.N,unconnected-(U1-PIN13-Pad13)*%
X84811500Y-56024000D03*
%TO.P,U1,14,INT*%
%TO.N,unconnected-(U1-INT-Pad14)*%
X85311500Y-56024000D03*
%TO.P,U1,15,PIN15*%
%TO.N,unconnected-(U1-PIN15-Pad15)*%
X85811500Y-56024000D03*
D12*
%TO.P,U1,16,PIN16*%
%TO.N,unconnected-(U1-PIN16-Pad16)*%
X85949000Y-55111500D03*
%TO.P,U1,17,COM3*%
%TO.N,GND*%
X85949000Y-54611500D03*
%TO.P,U1,18,COM2*%
X85949000Y-54111500D03*
%TO.P,U1,19,COM1*%
%TO.N,Net-(U1-COM1)*%
X85949000Y-53611500D03*
D11*
%TO.P,U1,20,COM0*%
%TO.N,Net-(U1-COM0)*%
X85811500Y-52699000D03*
%TO.P,U1,21,PIN21*%
%TO.N,unconnected-(U1-PIN21-Pad21)*%
X85311500Y-52699000D03*
%TO.P,U1,22,PIN22*%
%TO.N,unconnected-(U1-PIN22-Pad22)*%
X84811500Y-52699000D03*
%TO.P,U1,23,PIN23*%
%TO.N,unconnected-(U1-PIN23-Pad23)*%
X84311500Y-52699000D03*
%TO.P,U1,24,PIN24*%
%TO.N,unconnected-(U1-PIN24-Pad24)*%
X83811500Y-52699000D03*
%TO.P,U1,25,GNDIO*%
%TO.N,GND*%
X83311500Y-52699000D03*
%TO.P,U1,26,XOUT32*%
%TO.N,Net-(U1-XOUT32)*%
X82811500Y-52699000D03*
%TO.P,U1,27,XIN32*%
%TO.N,Net-(U1-XIN32)*%
X82311500Y-52699000D03*
%TO.P,U1,28,VDDIO*%
%TO.N,+3V3*%
X81811500Y-52699000D03*
%TD*%
D10*
%TO.P,C2,1*%
%TO.N,+3V3*%
X97111500Y-67286500D03*
%TO.P,C2,2*%
%TO.N,GND*%
X97111500Y-65736500D03*
%TD*%
D13*
%TO.P,R6,1*%
%TO.N,Net-(U2-GPIO5{slash}A3{slash}D3)*%
X103162500Y-70800000D03*
%TO.P,R6,2*%
%TO.N,Net-(D1-A)*%
X101337500Y-70800000D03*
%TD*%
D14*
%TO.P,R1,1*%
%TO.N,Net-(DWM1-IRQ{slash}GPIO8)*%
X93111500Y-54099000D03*
%TO.P,R1,2*%
%TO.N,GND*%
X93111500Y-55924000D03*
%TD*%
D10*
%TO.P,C1,1*%
%TO.N,+3V3*%
X95611500Y-67286500D03*
%TO.P,C1,2*%
%TO.N,GND*%
X95611500Y-65736500D03*
%TD*%
D15*
%TO.P,U2,1,GPIO2/A0/D0*%
%TO.N,Net-(DWM1-IRQ{slash}GPIO8)*%
X95786500Y-46960000D03*
D16*
X96621500Y-46960000D03*
D15*
%TO.P,U2,2,GPIO3/A1/D1*%
%TO.N,Net-(DWM1-~{SPICS})*%
X95786500Y-49500000D03*
D16*
X96621500Y-49500000D03*
D15*
%TO.P,U2,3,GPIO4/A2/D2*%
%TO.N,Net-(DWM1-~{RST})*%
X95786500Y-52040000D03*
D16*
X96621500Y-52040000D03*
D15*
%TO.P,U2,4,GPIO5/A3/D3*%
%TO.N,Net-(U2-GPIO5{slash}A3{slash}D3)*%
X95786500Y-54580000D03*
D16*
X96621500Y-54580000D03*
D15*
%TO.P,U2,5,GPIO6/D4/SDA*%
%TO.N,Net-(U1-COM0)*%
X95786500Y-57120000D03*
D16*
X96621500Y-57120000D03*
D15*
%TO.P,U2,6,GPIO7/D5/SCL*%
%TO.N,Net-(U1-COM1)*%
X95786500Y-59660000D03*
D16*
X96621500Y-59660000D03*
D15*
%TO.P,U2,7,GPIO21/D6/TX*%
%TO.N,unconnected-(U2-GPIO21{slash}D6{slash}TX-Pad7)*%
X95786500Y-62200000D03*
D16*
X96621500Y-62200000D03*
%TO.P,U2,8,GPIO20/D7/RX*%
%TO.N,unconnected-(U2-GPIO20{slash}D7{slash}RX-Pad8)*%
X111861500Y-62200000D03*
D17*
X112696500Y-62200000D03*
D16*
%TO.P,U2,9,GPIO8/D8/SCK*%
%TO.N,Net-(DWM1-SPICLK)*%
X111861500Y-59660000D03*
D17*
X112696500Y-59660000D03*
D16*
%TO.P,U2,10,GPIO9/D9/MISO*%
%TO.N,Net-(DWM1-SPIMISO)*%
X111861500Y-57120000D03*
D17*
X112696500Y-57120000D03*
D16*
%TO.P,U2,11,GPIO10/D10/MOSI*%
%TO.N,Net-(DWM1-SPIMOSI)*%
X111861500Y-54580000D03*
D17*
X112696500Y-54580000D03*
D16*
%TO.P,U2,12,VCC_3V3*%
%TO.N,+3V3*%
X111861500Y-52040000D03*
D17*
X112696500Y-52040000D03*
D16*
%TO.P,U2,13,GND*%
%TO.N,GND*%
X111861500Y-49500000D03*
D17*
X112696500Y-49500000D03*
D16*
%TO.P,U2,14,VBUS*%
%TO.N,unconnected-(U2-VBUS-Pad14)*%
X111861500Y-46960000D03*
D17*
X112696500Y-46960000D03*
%TD*%
D18*
%TO.P,C5,1*%
%TO.N,Net-(U1-CAP)*%
X82836500Y-57361500D03*
%TO.P,C5,2*%
%TO.N,GND*%
X81286500Y-57361500D03*
%TD*%
D19*
%TO.P,H1,1,1*%
%TO.N,GND*%
X82111500Y-47761500D03*
D20*
X82111500Y-47761500D03*
%TD*%
D21*
%TO.P,Y1,1,1*%
%TO.N,Net-(U1-XIN32)*%
X91361500Y-51261500D03*
%TO.P,Y1,2,2*%
%TO.N,GND*%
X91361500Y-45761500D03*
%TO.P,Y1,3,3*%
X88161500Y-45761500D03*
%TO.P,Y1,4,4*%
%TO.N,Net-(U1-XOUT32)*%
X88161500Y-51261500D03*
%TD*%
D10*
%TO.P,C3,1*%
%TO.N,GND*%
X88861500Y-55286500D03*
%TO.P,C3,2*%
%TO.N,Net-(U1-XOUT32)*%
X88861500Y-53736500D03*
%TD*%
D22*
%TO.P,DWM1,1,EXTON*%
%TO.N,unconnected-(DWM1-EXTON-Pad1)*%
X92611500Y-71861500D03*
%TO.P,DWM1,2,WAKEUP*%
%TO.N,unconnected-(DWM1-WAKEUP-Pad2)*%
X92611500Y-70461500D03*
%TO.P,DWM1,3,~{RST}*%
%TO.N,Net-(DWM1-~{RST})*%
X92611500Y-69061500D03*
%TO.P,DWM1,4,GPIO7*%
%TO.N,unconnected-(DWM1-GPIO7-Pad4)*%
X92611500Y-67661500D03*
%TO.P,DWM1,5,VDDAON*%
%TO.N,+3V3*%
X92611500Y-66261500D03*
%TO.P,DWM1,6,VDD3V3*%
X92611500Y-64861500D03*
%TO.P,DWM1,7,VDD3V3*%
X92611500Y-63461500D03*
%TO.P,DWM1,8,VSS*%
%TO.N,GND*%
X92611500Y-62061500D03*
D23*
%TO.P,DWM1,9,GPIO6/EXTRXE/SPIHA*%
%TO.N,unconnected-(DWM1-GPIO6{slash}EXTRXE{slash}SPIHA-Pad9)*%
X91211500Y-59766500D03*
%TO.P,DWM1,10,GPIO5/EXTTXE/SPIPOL*%
%TO.N,unconnected-(DWM1-GPIO5{slash}EXTTXE{slash}SPIPOL-Pad10)*%
X89811500Y-59766500D03*
%TO.P,DWM1,11,GPIO4/EXTPA*%
%TO.N,unconnected-(DWM1-GPIO4{slash}EXTPA-Pad11)*%
X88411500Y-59766500D03*
%TO.P,DWM1,12,GPIO3/TXLED*%
%TO.N,unconnected-(DWM1-GPIO3{slash}TXLED-Pad12)*%
X87011500Y-59766500D03*
%TO.P,DWM1,13,GPIO2/RXLED*%
%TO.N,unconnected-(DWM1-GPIO2{slash}RXLED-Pad13)*%
X85611500Y-59766500D03*
%TO.P,DWM1,14,GPIO1/SFDLED*%
%TO.N,unconnected-(DWM1-GPIO1{slash}SFDLED-Pad14)*%
X84211500Y-59766500D03*
%TO.P,DWM1,15,GPIO0/RXOKLED*%
%TO.N,unconnected-(DWM1-GPIO0{slash}RXOKLED-Pad15)*%
X82811500Y-59766500D03*
%TO.P,DWM1,16,VSS*%
%TO.N,GND*%
X81411500Y-59766500D03*
D22*
%TO.P,DWM1,17,~{SPICS}*%
%TO.N,Net-(DWM1-~{SPICS})*%
X80011500Y-62062700D03*
%TO.P,DWM1,18,SPIMOSI*%
%TO.N,Net-(DWM1-SPIMOSI)*%
X80011500Y-63462700D03*
%TO.P,DWM1,19,SPIMISO*%
%TO.N,Net-(DWM1-SPIMISO)*%
X80011500Y-64861500D03*
%TO.P,DWM1,20,SPICLK*%
%TO.N,Net-(DWM1-SPICLK)*%
X80011500Y-66261500D03*
%TO.P,DWM1,21,VSS*%
%TO.N,GND*%
X80011500Y-67661500D03*
%TO.P,DWM1,22,IRQ/GPIO8*%
%TO.N,Net-(DWM1-IRQ{slash}GPIO8)*%
X80011500Y-69061500D03*
%TO.P,DWM1,23,VSS*%
%TO.N,GND*%
X80011500Y-70461500D03*
%TO.P,DWM1,24,VSS*%
X80011500Y-71861500D03*
%TD*%
D24*
%TO.P,D1,1,K*%
%TO.N,GND*%
X96062500Y-70800000D03*
%TO.P,D1,2,A*%
%TO.N,Net-(D1-A)*%
X97937500Y-70800000D03*
%TD*%
D25*
%TO.P,R3,1*%
%TO.N,+3V3*%
X103861500Y-67774000D03*
%TO.P,R3,2*%
%TO.N,Net-(U1-COM1)*%
X103861500Y-65949000D03*
%TD*%
%TO.P,R4,1*%
%TO.N,+3V3*%
X101861500Y-67774000D03*
%TO.P,R4,2*%
%TO.N,Net-(U1-~{RESET})*%
X101861500Y-65949000D03*
%TD*%
%TO.P,R2,1*%
%TO.N,+3V3*%
X105861500Y-67774000D03*
%TO.P,R2,2*%
%TO.N,Net-(U1-COM0)*%
X105861500Y-65949000D03*
%TD*%
%TO.P,R5,1*%
%TO.N,+3V3*%
X99861500Y-67774000D03*
%TO.P,R5,2*%
%TO.N,Net-(U1-~{BOOT_LOAD_PIN})*%
X99861500Y-65949000D03*
%TD*%
D19*
%TO.P,H2,1,1*%
%TO.N,GND*%
X110611500Y-68761500D03*
D20*
X110611500Y-68761500D03*
%TD*%
D10*
%TO.P,C4,1*%
%TO.N,GND*%
X90611500Y-55286500D03*
%TO.P,C4,2*%
%TO.N,Net-(U1-XIN32)*%
X90611500Y-53736500D03*
%TD*%
D26*
%TO.N,+3V3*%
X98286500Y-67361500D03*
X80386500Y-56011500D03*
X82861500Y-62561500D03*
X90600000Y-70261500D03*
%TO.N,GND*%
X98361500Y-66261500D03*
X79761500Y-59761500D03*
X99000000Y-46400000D03*
X93861500Y-45011500D03*
X108100000Y-58400000D03*
X79761500Y-51461500D03*
X94600000Y-71261500D03*
X87761500Y-47261500D03*
X106800000Y-47900000D03*
X102911500Y-56711500D03*
X89500000Y-67250000D03*
X92861500Y-52261500D03*
X87761500Y-49261500D03*
X84611500Y-54261500D03*
X81961500Y-67261500D03*
X108650000Y-63300000D03*
X92600000Y-59200000D03*
X91761500Y-49261500D03*
X89761500Y-51361500D03*
X100750000Y-57500000D03*
X88400000Y-62261500D03*
X83861500Y-71261500D03*
X98611500Y-61011500D03*
X108100000Y-55850000D03*
X89761500Y-56361500D03*
X91761500Y-47261500D03*
X89761500Y-54761500D03*
%TO.N,Net-(DWM1-SPICLK)*%
X89461500Y-66061500D03*
X108800000Y-59660000D03*
%TO.N,Net-(DWM1-~{RST})*%
X100700000Y-69300000D03*
X104233472Y-61549588D03*
%TO.N,Net-(DWM1-IRQ{slash}GPIO8)*%
X85661500Y-66850000D03*
X93861500Y-52761500D03*
%TO.N,Net-(DWM1-SPIMOSI)*%
X108900000Y-54580000D03*
X89461500Y-64061500D03*
%TO.N,Net-(DWM1-SPIMISO)*%
X108850000Y-57120000D03*
X89461500Y-65061500D03*
%TO.N,Net-(DWM1-~{SPICS})*%
X90378459Y-61486997D03*
%TO.N,Net-(U1-~{RESET})*%
X84000000Y-57500000D03*
X102861500Y-64511500D03*
%TO.N,Net-(U1-~{BOOT_LOAD_PIN})*%
X101461500Y-64461500D03*
X83111500Y-54261500D03*
%TD*%
%TO.N,+3V3*%
D27*
X101861500Y-67774000D02*
X103861500Y-67774000D01*
D28*
X92611500Y-64861500D02*
X94461500Y-64861500D01*
X90600000Y-70261500D02*
X90600000Y-70023000D01*
X94461500Y-64861500D02*
X94461500Y-63861500D01*
D27*
X81837500Y-54064500D02*
X81790500Y-54111500D01*
X99861500Y-67774000D02*
X98699000Y-67774000D01*
D28*
X83461500Y-63161500D02*
X89861500Y-63161500D01*
X90611500Y-64261500D02*
X90611500Y-64761500D01*
D27*
X79986500Y-54111500D02*
X79761500Y-54336500D01*
X81811500Y-52699000D02*
X81837500Y-52725000D01*
D28*
X97111500Y-67286500D02*
X98211500Y-67286500D01*
X90711500Y-64861500D02*
X90611500Y-64761500D01*
X94461500Y-63861500D02*
X94061500Y-63461500D01*
X89861500Y-63161500D02*
X90611500Y-63911500D01*
X90861500Y-66261500D02*
X92611500Y-66261500D01*
X80386500Y-56011500D02*
X80361500Y-56011500D01*
X90611500Y-64761500D02*
X90611500Y-65761500D01*
X90611500Y-63911500D02*
X90611500Y-64261500D01*
X94636500Y-66736500D02*
X94161500Y-66261500D01*
X98211500Y-67286500D02*
X98286500Y-67361500D01*
D27*
X81837500Y-52725000D02*
X81837500Y-54064500D01*
D28*
X79761500Y-55411500D02*
X79761500Y-54336500D01*
D27*
X81790500Y-54111500D02*
X81174000Y-54111500D01*
D28*
X94161500Y-66261500D02*
X92611500Y-66261500D01*
D27*
X81174000Y-54111500D02*
X79986500Y-54111500D01*
D28*
X94461500Y-66561500D02*
X94461500Y-64861500D01*
X92611500Y-63461500D02*
X91161500Y-63461500D01*
X94636500Y-66736500D02*
X94461500Y-66561500D01*
X82861500Y-62561500D02*
X83461500Y-63161500D01*
D27*
X103861500Y-67774000D02*
X105861500Y-67774000D01*
D28*
X90600000Y-70023000D02*
X90611500Y-70011500D01*
X90611500Y-64011500D02*
X90611500Y-64261500D01*
X92761500Y-65011500D02*
X92611500Y-64861500D01*
X90611500Y-66011500D02*
X90861500Y-66261500D01*
X92611500Y-64861500D02*
X90711500Y-64861500D01*
X95186500Y-67286500D02*
X94636500Y-66736500D01*
X95611500Y-67286500D02*
X95186500Y-67286500D01*
X91161500Y-63461500D02*
X90611500Y-64011500D01*
X95611500Y-67286500D02*
X97111500Y-67286500D01*
D27*
X99861500Y-67774000D02*
X101861500Y-67774000D01*
X98699000Y-67774000D02*
X98286500Y-67361500D01*
D28*
X90611500Y-65761500D02*
X90611500Y-66011500D01*
X94061500Y-63461500D02*
X92611500Y-63461500D01*
X90611500Y-70011500D02*
X90611500Y-65761500D01*
X80361500Y-56011500D02*
X79761500Y-55411500D01*
%TO.N,GND*%
X92861500Y-47261500D02*
X92861500Y-45761500D01*
X81861500Y-71261500D02*
X81111500Y-70511500D01*
X97361500Y-64261500D02*
X97611500Y-64011500D01*
X83861500Y-71261500D02*
X81861500Y-71261500D01*
X97111500Y-65736500D02*
X98236500Y-65736500D01*
D27*
X81311500Y-56024000D02*
X81311500Y-55249000D01*
D28*
X97611500Y-64011500D02*
X97111500Y-64511500D01*
X86261500Y-49261500D02*
X84761500Y-47761500D01*
X92861500Y-52261500D02*
X92861500Y-49261500D01*
X80011500Y-70461500D02*
X80011500Y-71760500D01*
D27*
X85211500Y-54611500D02*
X85111500Y-54511500D01*
D28*
X80061500Y-70511500D02*
X80011500Y-70461500D01*
X110700000Y-49500000D02*
X111861500Y-49500000D01*
D27*
X85949000Y-54111500D02*
X85211500Y-54111500D01*
D28*
X95611500Y-64511500D02*
X95861500Y-64261500D01*
D27*
X85111500Y-54511500D02*
X85111500Y-54011500D01*
D28*
X80011500Y-67661500D02*
X81561500Y-67661500D01*
X92674000Y-56361500D02*
X89761500Y-56361500D01*
D27*
X81224000Y-55161500D02*
X81174000Y-55111500D01*
D28*
X91361500Y-45761500D02*
X88161500Y-45761500D01*
D27*
X81311500Y-57336500D02*
X81286500Y-57361500D01*
D28*
X79761500Y-50111500D02*
X79761500Y-51461500D01*
X89500000Y-67250000D02*
X89500000Y-70323000D01*
X98361500Y-65861500D02*
X98361500Y-66261500D01*
D27*
X81174000Y-53611500D02*
X80586500Y-53611500D01*
D28*
X87761500Y-49261500D02*
X86261500Y-49261500D01*
X81411500Y-59766500D02*
X79766500Y-59766500D01*
X81561500Y-67661500D02*
X81961500Y-67261500D01*
X98236500Y-65736500D02*
X98361500Y-65861500D01*
X88161500Y-45761500D02*
X84111500Y-45761500D01*
X81186500Y-57261500D02*
X81286500Y-57361500D01*
D27*
X85211500Y-54111500D02*
X85111500Y-54011500D01*
D28*
X82111500Y-47761500D02*
X79761500Y-50111500D01*
X98611500Y-61011500D02*
X98611500Y-63011500D01*
X92661500Y-62011500D02*
X92611500Y-62061500D01*
D27*
X80586500Y-53611500D02*
X79761500Y-52786500D01*
D28*
X80261500Y-57261500D02*
X81186500Y-57261500D01*
D27*
X85111500Y-54011500D02*
X85111500Y-53761500D01*
D28*
X92600000Y-59200000D02*
X92600000Y-62050000D01*
X92861500Y-49261500D02*
X92861500Y-47261500D01*
X87750000Y-47250000D02*
X85750000Y-47250000D01*
D27*
X83611500Y-53511500D02*
X84861500Y-53511500D01*
D28*
X87761500Y-47261500D02*
X87750000Y-47250000D01*
X85750000Y-47250000D02*
X85238500Y-47761500D01*
D27*
X88861500Y-55286500D02*
X90611500Y-55286500D01*
X85111500Y-53761500D02*
X84611500Y-54261500D01*
X81311500Y-55249000D02*
X81174000Y-55111500D01*
D28*
X98611500Y-63011500D02*
X97611500Y-64011500D01*
D27*
X84861500Y-53511500D02*
X85111500Y-53761500D01*
D28*
X91361500Y-45761500D02*
X92861500Y-45761500D01*
X79761500Y-57761500D02*
X80261500Y-57261500D01*
D27*
X85011500Y-54611500D02*
X84461500Y-55161500D01*
D28*
X81111500Y-70511500D02*
X80061500Y-70511500D01*
D27*
X96062500Y-70800000D02*
X95061500Y-70800000D01*
D28*
X84111500Y-45761500D02*
X82111500Y-47761500D01*
X91761500Y-47261500D02*
X92861500Y-47261500D01*
X79761500Y-51461500D02*
X79761500Y-52786500D01*
X92600000Y-62050000D02*
X92611500Y-62061500D01*
X84761500Y-47761500D02*
X82111500Y-47761500D01*
D27*
X85949000Y-54611500D02*
X85211500Y-54611500D01*
X85211500Y-54611500D02*
X85011500Y-54611500D01*
D28*
X97111500Y-64511500D02*
X97111500Y-65736500D01*
D27*
X89761500Y-54761500D02*
X89761500Y-55286500D01*
D28*
X93111500Y-45761500D02*
X93861500Y-45011500D01*
X91761500Y-49261500D02*
X92861500Y-49261500D01*
D27*
X98611500Y-61011500D02*
X98561500Y-60961500D01*
X83311500Y-53211500D02*
X83611500Y-53511500D01*
X95061500Y-70800000D02*
X94600000Y-71261500D01*
X84461500Y-55161500D02*
X81224000Y-55161500D01*
X89761500Y-51361500D02*
X89761500Y-54761500D01*
D28*
X94173000Y-44700000D02*
X105900000Y-44700000D01*
D27*
X83311500Y-52699000D02*
X83311500Y-53211500D01*
X92411500Y-62261500D02*
X92611500Y-62061500D01*
X81311500Y-56024000D02*
X81311500Y-57336500D01*
D28*
X105900000Y-44700000D02*
X110700000Y-49500000D01*
X92861500Y-45761500D02*
X93111500Y-45761500D01*
X95611500Y-65736500D02*
X95611500Y-64511500D01*
X93111500Y-55924000D02*
X92674000Y-56361500D01*
X95861500Y-64261500D02*
X97361500Y-64261500D01*
X85238500Y-47761500D02*
X82111500Y-47761500D01*
X93861500Y-45011500D02*
X94173000Y-44700000D01*
D27*
X89761500Y-54761500D02*
X89761500Y-56361500D01*
X88400000Y-62261500D02*
X92411500Y-62261500D01*
D28*
X79761500Y-59761500D02*
X79761500Y-57761500D01*
X79766500Y-59766500D02*
X79761500Y-59761500D01*
X88561500Y-71261500D02*
X83861500Y-71261500D01*
X89500000Y-70323000D02*
X88561500Y-71261500D01*
%TO.N,Net-(U1-XOUT32)*%
D27*
X87761500Y-52361500D02*
X87461500Y-52661500D01*
X86561500Y-50761500D02*
X86261500Y-50761500D01*
X83161500Y-51661500D02*
X82811500Y-52011500D01*
X82811500Y-52011500D02*
X82811500Y-52699000D01*
X85961500Y-51061500D02*
X85961500Y-51661500D01*
X88161500Y-52661500D02*
X88161500Y-51261500D01*
X86750000Y-52250000D02*
X86750000Y-50950000D01*
X85261500Y-51861500D02*
X85061500Y-51661500D01*
X88161500Y-51261500D02*
X87761500Y-51661500D01*
X86261500Y-50761500D02*
X85961500Y-51061500D01*
X88861500Y-53736500D02*
X88861500Y-53361500D01*
X87761500Y-51661500D02*
X87761500Y-52361500D01*
X85961500Y-51661500D02*
X85761500Y-51861500D01*
X85061500Y-51661500D02*
X83161500Y-51661500D01*
X87161500Y-52661500D02*
X86750000Y-52250000D01*
X85761500Y-51861500D02*
X85261500Y-51861500D01*
X87461500Y-52661500D02*
X87161500Y-52661500D01*
X88861500Y-53361500D02*
X88161500Y-52661500D01*
X86750000Y-50950000D02*
X86561500Y-50761500D01*
%TO.N,Net-(U1-XIN32)*%
X85188500Y-51161500D02*
X82961500Y-51161500D01*
X91661500Y-52686500D02*
X91661500Y-51561500D01*
X91361500Y-51261500D02*
X90385500Y-50285500D01*
X82961500Y-51161500D02*
X82311500Y-51811500D01*
X90611500Y-53736500D02*
X91661500Y-52686500D01*
X91661500Y-51561500D02*
X91361500Y-51261500D01*
X86064500Y-50285500D02*
X85188500Y-51161500D01*
X82311500Y-51811500D02*
X82311500Y-52699000D01*
X90385500Y-50285500D02*
X86064500Y-50285500D01*
%TO.N,Net-(U1-CAP)*%
X82811500Y-57336500D02*
X82836500Y-57361500D01*
X82811500Y-56024000D02*
X82811500Y-57336500D01*
%TO.N,Net-(DWM1-SPICLK)*%
X108800000Y-59660000D02*
X111861500Y-59660000D01*
X89461500Y-66061500D02*
X82461500Y-66061500D01*
X82261500Y-66261500D02*
X80011500Y-66261500D01*
X82461500Y-66061500D02*
X82261500Y-66261500D01*
%TO.N,Net-(DWM1-~{RST})*%
X92850000Y-69300000D02*
X92611500Y-69061500D01*
X94100000Y-46250000D02*
X94100000Y-51700000D01*
X94100000Y-51700000D02*
X94440000Y-52040000D01*
X100700000Y-69300000D02*
X92850000Y-69300000D01*
X104233472Y-46733472D02*
X102950000Y-45450000D01*
X104233472Y-61549588D02*
X104233472Y-46733472D01*
X102950000Y-45450000D02*
X94900000Y-45450000D01*
X94900000Y-45450000D02*
X94100000Y-46250000D01*
X94440000Y-52040000D02*
X96621500Y-52040000D01*
%TO.N,Net-(DWM1-IRQ{slash}GPIO8)*%
X81361500Y-69061500D02*
X80011500Y-69061500D01*
X93361500Y-53849000D02*
X93111500Y-54099000D01*
X85250000Y-67261500D02*
X83161500Y-67261500D01*
X93861500Y-52761500D02*
X93538500Y-52761500D01*
X83161500Y-67261500D02*
X81361500Y-69061500D01*
X80061500Y-68811500D02*
X80061500Y-69011500D01*
X93111500Y-53188500D02*
X93111500Y-54099000D01*
X93538500Y-52761500D02*
X93111500Y-53188500D01*
X85661500Y-66850000D02*
X85250000Y-67261500D01*
%TO.N,Net-(DWM1-SPIMOSI)*%
X80011500Y-63462700D02*
X81862700Y-63462700D01*
X82461500Y-64061500D02*
X89461500Y-64061500D01*
X108900000Y-54580000D02*
X111861500Y-54580000D01*
X81862700Y-63462700D02*
X82461500Y-64061500D01*
%TO.N,Net-(DWM1-SPIMISO)*%
X108850000Y-57120000D02*
X111861500Y-57120000D01*
X80211500Y-65061500D02*
X80011500Y-64861500D01*
X89461500Y-65061500D02*
X80211500Y-65061500D01*
%TO.N,Net-(DWM1-~{SPICS})*%
X90378459Y-61486997D02*
X82036003Y-61486997D01*
X81460300Y-62062700D02*
X80011500Y-62062700D01*
X82036003Y-61486997D02*
X81460300Y-62062700D01*
%TO.N,Net-(U1-COM0)*%
X86299000Y-52699000D02*
X87400000Y-53800000D01*
X94061500Y-58261500D02*
X94645000Y-58261500D01*
X105861500Y-65061500D02*
X105861500Y-65949000D01*
X88010500Y-57410500D02*
X93210500Y-57410500D01*
X97920000Y-57120000D02*
X105861500Y-65061500D01*
X87400000Y-56800000D02*
X88010500Y-57410500D01*
X85811500Y-52699000D02*
X86299000Y-52699000D01*
X87400000Y-53800000D02*
X87400000Y-56800000D01*
X96621500Y-57120000D02*
X97920000Y-57120000D01*
X93210500Y-57410500D02*
X94061500Y-58261500D01*
X94645000Y-58261500D02*
X95786500Y-57120000D01*
%TO.N,Net-(U1-COM1)*%
X86800000Y-57000000D02*
X87661500Y-57861500D01*
X99410000Y-59660000D02*
X103861500Y-64111500D01*
X103861500Y-64111500D02*
X103861500Y-65949000D01*
X85949000Y-53611500D02*
X86427690Y-53611500D01*
X94660000Y-59660000D02*
X95786500Y-59660000D01*
X86800000Y-53983810D02*
X86800000Y-57000000D01*
X96621500Y-59660000D02*
X96621500Y-59601500D01*
X86427690Y-53611500D02*
X86800000Y-53983810D01*
X92861500Y-57861500D02*
X94660000Y-59660000D01*
X96621500Y-59660000D02*
X99410000Y-59660000D01*
X87661500Y-57861500D02*
X92861500Y-57861500D01*
%TO.N,Net-(U1-~{RESET})*%
X84000000Y-56900000D02*
X84000000Y-57500000D01*
X101861500Y-65038500D02*
X101861500Y-65949000D01*
X83811500Y-56024000D02*
X83811500Y-56711500D01*
X102861500Y-64511500D02*
X102388500Y-64511500D01*
X102388500Y-64511500D02*
X101861500Y-65038500D01*
X83811500Y-56711500D02*
X84000000Y-56900000D01*
X84000000Y-57500000D02*
X83888500Y-57500000D01*
%TO.N,Net-(U1-~{BOOT_LOAD_PIN})*%
X101461500Y-64461500D02*
X100661500Y-64461500D01*
X81174000Y-54611500D02*
X82761500Y-54611500D01*
X100661500Y-64461500D02*
X99861500Y-65261500D01*
X99861500Y-65261500D02*
X99861500Y-65949000D01*
X82761500Y-54611500D02*
X83111500Y-54261500D01*
%TO.N,Net-(D1-A)*%
X101337500Y-70800000D02*
X97937500Y-70800000D01*
%TO.N,Net-(U2-GPIO5{slash}A3{slash}D3)*%
X96621500Y-54580000D02*
X96621500Y-54821500D01*
X107100000Y-68800000D02*
X105100000Y-70800000D01*
X96621500Y-54821500D02*
X107100000Y-65300000D01*
X107100000Y-65300000D02*
X107100000Y-68800000D01*
X105100000Y-70800000D02*
X103162500Y-70800000D01*
%TD*%
%TA.AperFunction,Conductor*%
%TO.N,GND*%
G36*
X88976519Y-66705954D02*
G01*
X89019567Y-66728964D01*
X89082314Y-66770890D01*
X89082318Y-66770892D01*
X89082321Y-66770894D01*
X89228003Y-66831237D01*
X89228005Y-66831237D01*
X89228007Y-66831238D01*
X89359578Y-66857409D01*
X89382658Y-66862000D01*
X89540340Y-66862000D01*
X89540342Y-66862000D01*
X89563422Y-66857408D01*
X89660574Y-66857408D01*
X89750334Y-66894586D01*
X89819034Y-66963284D01*
X89856215Y-67053043D01*
X89861000Y-67101624D01*
X89861000Y-69866744D01*
X89856215Y-69915323D01*
X89849498Y-69949085D01*
X89848922Y-69954941D01*
X89833572Y-70016218D01*
X89833815Y-70016292D01*
X89832320Y-70021220D01*
X89831172Y-70025804D01*
X89830267Y-70027988D01*
X89830262Y-70028004D01*
X89799500Y-70182653D01*
X89799500Y-70340346D01*
X89830261Y-70494992D01*
X89830263Y-70494997D01*
X89890603Y-70640673D01*
X89890606Y-70640680D01*
X89978208Y-70771785D01*
X89978211Y-70771789D01*
X90089711Y-70883289D01*
X90089714Y-70883291D01*
X90220819Y-70970893D01*
X90220820Y-70970893D01*
X90220821Y-70970894D01*
X90366503Y-71031237D01*
X90366505Y-71031237D01*
X90366507Y-71031238D01*
X90517148Y-71061202D01*
X90521158Y-71062000D01*
X90637000Y-71062000D01*
X90732288Y-71080954D01*
X90813070Y-71134930D01*
X90867046Y-71215712D01*
X90886000Y-71311000D01*
X90886000Y-71313623D01*
X90886000Y-71313627D01*
X90886000Y-71721003D01*
X90886001Y-72012000D01*
X90867047Y-72107288D01*
X90813071Y-72188069D01*
X90732290Y-72242046D01*
X90637001Y-72261000D01*
X78861000Y-72261000D01*
X78765712Y-72242046D01*
X78684930Y-72188070D01*
X78630954Y-72107288D01*
X78612000Y-72012000D01*
X78612000Y-70310999D01*
X78630954Y-70215711D01*
X78684930Y-70134929D01*
X78765712Y-70080953D01*
X78860995Y-70061999D01*
X81284372Y-70061999D01*
X81343983Y-70055591D01*
X81478831Y-70005296D01*
X81594046Y-69919046D01*
X81680296Y-69803831D01*
X81730591Y-69668983D01*
X81732281Y-69653258D01*
X81761309Y-69560547D01*
X81803783Y-69503807D01*
X81847358Y-69460233D01*
X81847358Y-69460231D01*
X81867854Y-69439736D01*
X81867857Y-69439731D01*
X83347661Y-67959930D01*
X83428442Y-67905954D01*
X83523730Y-67887000D01*
X85311606Y-67887000D01*
X85311607Y-67887000D01*
X85388079Y-67871789D01*
X85432452Y-67862963D01*
X85465782Y-67849156D01*
X85465791Y-67849154D01*
X85465791Y-67849153D01*
X85546281Y-67815814D01*
X85546280Y-67815814D01*
X85546286Y-67815812D01*
X85605614Y-67776169D01*
X85648733Y-67747358D01*
X85693486Y-67702604D01*
X85774264Y-67648630D01*
X85820971Y-67634461D01*
X85894997Y-67619737D01*
X86040679Y-67559394D01*
X86171789Y-67471789D01*
X86283289Y-67360289D01*
X86370894Y-67229179D01*
X86431237Y-67083497D01*
X86462000Y-66928842D01*
X86462000Y-66928835D01*
X86463199Y-66916668D01*
X86465794Y-66916923D01*
X86480954Y-66840712D01*
X86534930Y-66759930D01*
X86615712Y-66705954D01*
X86711000Y-66687000D01*
X88881231Y-66687000D01*
X88976519Y-66705954D01*
G37*
%TD.AperFunction*%
%TA.AperFunction,Conductor*%
G36*
X96806716Y-69944454D02*
G01*
X96887498Y-69998430D01*
X96941474Y-70079212D01*
X96960428Y-70174500D01*
X96959139Y-70199795D01*
X96949500Y-70294152D01*
X96949500Y-71305848D01*
X96959913Y-71407775D01*
X97014638Y-71572925D01*
X97105974Y-71721003D01*
X97220904Y-71835933D01*
X97274878Y-71916712D01*
X97293832Y-72012000D01*
X97274878Y-72107288D01*
X97220902Y-72188070D01*
X97140120Y-72242046D01*
X97044832Y-72261000D01*
X94586000Y-72261000D01*
X94490712Y-72242046D01*
X94409930Y-72188070D01*
X94355954Y-72107288D01*
X94337000Y-72012000D01*
X94336999Y-71313629D01*
X94336998Y-71313623D01*
X94336162Y-71305850D01*
X94330591Y-71254017D01*
X94328540Y-71248519D01*
X94312997Y-71152619D01*
X94328540Y-71074479D01*
X94330591Y-71068983D01*
X94337000Y-71009373D01*
X94336999Y-70174498D01*
X94355953Y-70079212D01*
X94409929Y-69998431D01*
X94490711Y-69944454D01*
X94585999Y-69925500D01*
X96711428Y-69925500D01*
X96806716Y-69944454D01*
G37*
%TD.AperFunction*%
%TA.AperFunction,Conductor*%
G36*
X113957288Y-44280954D02*
G01*
X114038070Y-44334930D01*
X114092046Y-44415712D01*
X114111000Y-44511000D01*
X114111000Y-45450560D01*
X114092046Y-45545848D01*
X114038070Y-45626630D01*
X113957288Y-45680606D01*
X113862000Y-45699560D01*
X113842472Y-45698793D01*
X113826039Y-45697500D01*
X113826034Y-45697500D01*
X111566966Y-45697500D01*
X111566955Y-45697500D01*
X111529956Y-45700412D01*
X111529947Y-45700414D01*
X111371537Y-45746437D01*
X111229557Y-45830405D01*
X111229550Y-45830409D01*
X111140314Y-45919645D01*
X111110609Y-45945016D01*
X111039039Y-45997016D01*
X110898516Y-46137539D01*
X110781712Y-46298306D01*
X110691500Y-46475357D01*
X110691491Y-46475378D01*
X110630089Y-46664357D01*
X110630084Y-46664376D01*
X110599001Y-46860628D01*
X110599000Y-46860643D01*
X110599000Y-47059356D01*
X110599001Y-47059371D01*
X110630084Y-47255623D01*
X110630089Y-47255642D01*
X110681193Y-47412927D01*
X110691495Y-47444632D01*
X110691499Y-47444640D01*
X110691500Y-47444642D01*
X110781712Y-47621693D01*
X110873102Y-47747480D01*
X110898519Y-47782464D01*
X111039036Y-47922981D01*
X111039039Y-47922983D01*
X111110601Y-47974976D01*
X111140311Y-48000351D01*
X111193892Y-48053931D01*
X111229553Y-48089592D01*
X111282000Y-48120609D01*
X111371537Y-48173562D01*
X111371538Y-48173562D01*
X111371541Y-48173564D01*
X111529952Y-48219587D01*
X111566966Y-48222500D01*
X111566968Y-48222500D01*
X113826032Y-48222500D01*
X113826034Y-48222500D01*
X113842461Y-48221207D01*
X113938942Y-48232625D01*
X114023710Y-48280096D01*
X114083859Y-48356393D01*
X114110232Y-48449900D01*
X114111000Y-48469439D01*
X114111000Y-50530560D01*
X114092046Y-50625848D01*
X114038070Y-50706630D01*
X113957288Y-50760606D01*
X113862000Y-50779560D01*
X113842472Y-50778793D01*
X113826039Y-50777500D01*
X113826034Y-50777500D01*
X111566966Y-50777500D01*
X111566955Y-50777500D01*
X111529956Y-50780412D01*
X111529947Y-50780414D01*
X111371537Y-50826437D01*
X111229557Y-50910405D01*
X111229550Y-50910409D01*
X111140314Y-50999645D01*
X111110609Y-51025016D01*
X111039039Y-51077016D01*
X110898516Y-51217539D01*
X110781712Y-51378306D01*
X110691500Y-51555357D01*
X110691491Y-51555378D01*
X110630089Y-51744357D01*
X110630084Y-51744376D01*
X110599001Y-51940628D01*
X110599000Y-51940643D01*
X110599000Y-52139356D01*
X110599001Y-52139371D01*
X110630084Y-52335623D01*
X110630089Y-52335642D01*
X110654898Y-52411999D01*
X110691495Y-52524632D01*
X110691499Y-52524640D01*
X110691500Y-52524642D01*
X110781712Y-52701693D01*
X110850340Y-52796151D01*
X110898519Y-52862464D01*
X111039036Y-53002981D01*
X111045003Y-53007316D01*
X111110601Y-53054976D01*
X111140310Y-53080350D01*
X111193889Y-53133928D01*
X111247866Y-53214709D01*
X111266821Y-53309997D01*
X111247868Y-53405285D01*
X111193892Y-53486067D01*
X111193891Y-53486069D01*
X111140316Y-53539644D01*
X111110609Y-53565016D01*
X111039039Y-53617016D01*
X110898516Y-53757539D01*
X110829989Y-53851859D01*
X110758646Y-53917808D01*
X110667495Y-53951435D01*
X110628544Y-53954500D01*
X109480269Y-53954500D01*
X109384981Y-53935546D01*
X109341933Y-53912536D01*
X109279185Y-53870609D01*
X109279173Y-53870603D01*
X109133497Y-53810263D01*
X109133492Y-53810261D01*
X108978846Y-53779500D01*
X108978842Y-53779500D01*
X108821158Y-53779500D01*
X108821153Y-53779500D01*
X108666507Y-53810261D01*
X108666502Y-53810263D01*
X108520826Y-53870603D01*
X108520819Y-53870606D01*
X108389714Y-53958208D01*
X108278208Y-54069714D01*
X108190606Y-54200819D01*
X108190603Y-54200826D01*
X108130263Y-54346502D01*
X108130261Y-54346507D01*
X108099500Y-54501153D01*
X108099500Y-54658846D01*
X108130261Y-54813492D01*
X108130263Y-54813497D01*
X108190603Y-54959173D01*
X108190606Y-54959180D01*
X108270294Y-55078441D01*
X108278211Y-55090289D01*
X108389711Y-55201789D01*
X108389714Y-55201791D01*
X108520819Y-55289393D01*
X108520820Y-55289393D01*
X108520821Y-55289394D01*
X108666503Y-55349737D01*
X108666505Y-55349737D01*
X108666507Y-55349738D01*
X108817148Y-55379702D01*
X108821158Y-55380500D01*
X108978842Y-55380500D01*
X109133497Y-55349737D01*
X109279179Y-55289394D01*
X109295588Y-55278430D01*
X109341933Y-55247464D01*
X109431692Y-55210284D01*
X109480269Y-55205500D01*
X110628544Y-55205500D01*
X110723832Y-55224454D01*
X110804614Y-55278430D01*
X110829989Y-55308141D01*
X110882561Y-55380500D01*
X110898519Y-55402464D01*
X111039036Y-55542981D01*
X111039039Y-55542983D01*
X111110601Y-55594976D01*
X111140310Y-55620350D01*
X111193889Y-55673928D01*
X111247866Y-55754709D01*
X111266821Y-55849997D01*
X111247868Y-55945285D01*
X111193892Y-56026067D01*
X111193891Y-56026069D01*
X111140316Y-56079644D01*
X111110609Y-56105016D01*
X111039039Y-56157016D01*
X110898516Y-56297539D01*
X110829989Y-56391859D01*
X110758646Y-56457808D01*
X110667495Y-56491435D01*
X110628544Y-56494500D01*
X109430269Y-56494500D01*
X109334981Y-56475546D01*
X109291933Y-56452536D01*
X109229185Y-56410609D01*
X109229173Y-56410603D01*
X109083497Y-56350263D01*
X109083492Y-56350261D01*
X108928846Y-56319500D01*
X108928842Y-56319500D01*
X108771158Y-56319500D01*
X108771153Y-56319500D01*
X108616507Y-56350261D01*
X108616502Y-56350263D01*
X108470826Y-56410603D01*
X108470819Y-56410606D01*
X108339714Y-56498208D01*
X108228208Y-56609714D01*
X108140606Y-56740819D01*
X108140603Y-56740826D01*
X108080264Y-56886501D01*
X108080263Y-56886503D01*
X108049500Y-57041153D01*
X108049500Y-57198846D01*
X108080261Y-57353492D01*
X108080263Y-57353497D01*
X108140603Y-57499173D01*
X108140606Y-57499180D01*
X108228208Y-57630285D01*
X108228211Y-57630289D01*
X108339711Y-57741789D01*
X108339714Y-57741791D01*
X108470819Y-57829393D01*
X108470820Y-57829393D01*
X108470821Y-57829394D01*
X108616503Y-57889737D01*
X108616505Y-57889737D01*
X108616507Y-57889738D01*
X108712876Y-57908907D01*
X108771158Y-57920500D01*
X108928842Y-57920500D01*
X109083497Y-57889737D01*
X109229179Y-57829394D01*
X109245588Y-57818430D01*
X109291933Y-57787464D01*
X109381692Y-57750284D01*
X109430269Y-57745500D01*
X110628544Y-57745500D01*
X110723832Y-57764454D01*
X110804614Y-57818430D01*
X110829989Y-57848141D01*
X110887909Y-57927861D01*
X110898519Y-57942464D01*
X111039036Y-58082981D01*
X111039039Y-58082983D01*
X111110601Y-58134976D01*
X111140310Y-58160350D01*
X111193889Y-58213928D01*
X111247866Y-58294709D01*
X111266821Y-58389997D01*
X111247868Y-58485285D01*
X111193892Y-58566067D01*
X111193891Y-58566069D01*
X111140316Y-58619644D01*
X111110609Y-58645016D01*
X111039039Y-58697016D01*
X110898516Y-58837539D01*
X110829989Y-58931859D01*
X110758646Y-58997808D01*
X110667495Y-59031435D01*
X110628544Y-59034500D01*
X109380269Y-59034500D01*
X109284981Y-59015546D01*
X109241933Y-58992536D01*
X109179185Y-58950609D01*
X109179173Y-58950603D01*
X109033497Y-58890263D01*
X109033492Y-58890261D01*
X108878846Y-58859500D01*
X108878842Y-58859500D01*
X108721158Y-58859500D01*
X108721153Y-58859500D01*
X108566507Y-58890261D01*
X108566502Y-58890263D01*
X108420826Y-58950603D01*
X108420819Y-58950606D01*
X108289714Y-59038208D01*
X108178208Y-59149714D01*
X108090606Y-59280819D01*
X108090603Y-59280826D01*
X108030263Y-59426502D01*
X108030261Y-59426507D01*
X107999500Y-59581153D01*
X107999500Y-59738846D01*
X108030261Y-59893492D01*
X108030263Y-59893497D01*
X108090603Y-60039173D01*
X108090606Y-60039180D01*
X108103001Y-60057730D01*
X108178211Y-60170289D01*
X108289711Y-60281789D01*
X108289714Y-60281791D01*
X108420819Y-60369393D01*
X108420820Y-60369393D01*
X108420821Y-60369394D01*
X108566503Y-60429737D01*
X108566505Y-60429737D01*
X108566507Y-60429738D01*
X108717148Y-60459702D01*
X108721158Y-60460500D01*
X108878842Y-60460500D01*
X109033497Y-60429737D01*
X109179179Y-60369394D01*
X109195588Y-60358430D01*
X109241933Y-60327464D01*
X109331692Y-60290284D01*
X109380269Y-60285500D01*
X110628544Y-60285500D01*
X110723832Y-60304454D01*
X110804614Y-60358430D01*
X110829989Y-60388141D01*
X110882561Y-60460500D01*
X110898519Y-60482464D01*
X111039036Y-60622981D01*
X111039039Y-60622983D01*
X111110601Y-60674976D01*
X111140310Y-60700350D01*
X111193889Y-60753928D01*
X111247866Y-60834709D01*
X111266821Y-60929997D01*
X111247868Y-61025285D01*
X111193892Y-61106067D01*
X111193891Y-61106069D01*
X111140316Y-61159644D01*
X111110609Y-61185016D01*
X111039039Y-61237016D01*
X110898516Y-61377539D01*
X110781712Y-61538306D01*
X110691500Y-61715357D01*
X110691491Y-61715378D01*
X110630089Y-61904357D01*
X110630084Y-61904376D01*
X110599001Y-62100628D01*
X110599000Y-62100643D01*
X110599000Y-62299356D01*
X110599001Y-62299371D01*
X110630084Y-62495623D01*
X110630089Y-62495642D01*
X110657026Y-62578548D01*
X110691495Y-62684632D01*
X110691499Y-62684640D01*
X110691500Y-62684642D01*
X110781712Y-62861693D01*
X110809640Y-62900132D01*
X110898519Y-63022464D01*
X111039036Y-63162981D01*
X111039039Y-63162983D01*
X111110601Y-63214976D01*
X111140311Y-63240351D01*
X111229551Y-63329590D01*
X111229553Y-63329592D01*
X111282000Y-63360609D01*
X111371537Y-63413562D01*
X111371538Y-63413562D01*
X111371541Y-63413564D01*
X111529952Y-63459587D01*
X111566966Y-63462500D01*
X111566968Y-63462500D01*
X113826032Y-63462500D01*
X113826034Y-63462500D01*
X113842461Y-63461207D01*
X113938942Y-63472625D01*
X114023710Y-63520096D01*
X114083859Y-63596393D01*
X114110232Y-63689900D01*
X114111000Y-63709439D01*
X114111000Y-72012000D01*
X114092046Y-72107288D01*
X114038070Y-72188070D01*
X113957288Y-72242046D01*
X113862000Y-72261000D01*
X104076507Y-72261000D01*
X103981219Y-72242046D01*
X103900437Y-72188070D01*
X103846461Y-72107288D01*
X103827507Y-72012000D01*
X103846461Y-71916712D01*
X103900434Y-71835933D01*
X104017712Y-71718656D01*
X104109814Y-71569334D01*
X104109816Y-71569329D01*
X104109849Y-71569260D01*
X104109914Y-71569170D01*
X104117427Y-71556991D01*
X104118403Y-71557593D01*
X104167300Y-71490912D01*
X104250361Y-71440514D01*
X104335516Y-71425500D01*
X105161606Y-71425500D01*
X105161607Y-71425500D01*
X105250718Y-71407775D01*
X105282452Y-71401463D01*
X105315782Y-71387656D01*
X105315791Y-71387654D01*
X105315791Y-71387653D01*
X105396281Y-71354314D01*
X105396280Y-71354314D01*
X105396286Y-71354312D01*
X105457171Y-71313628D01*
X105457175Y-71313627D01*
X105498726Y-71285863D01*
X105498726Y-71285862D01*
X105498733Y-71285858D01*
X105585858Y-71198733D01*
X105585860Y-71198729D01*
X107498729Y-69285860D01*
X107498733Y-69285858D01*
X107585858Y-69198733D01*
X107636390Y-69123107D01*
X107654312Y-69096286D01*
X107694238Y-68999894D01*
X107701463Y-68982452D01*
X107720781Y-68885331D01*
X107725500Y-68861607D01*
X107725500Y-68738393D01*
X107725500Y-65238394D01*
X107724076Y-65231237D01*
X107702569Y-65123107D01*
X107701463Y-65117548D01*
X107669276Y-65039842D01*
X107654312Y-65003715D01*
X107616082Y-64946501D01*
X107585858Y-64901267D01*
X107585856Y-64901264D01*
X107492485Y-64807894D01*
X107492484Y-64807894D01*
X104955379Y-62270789D01*
X104901403Y-62190007D01*
X104882449Y-62094719D01*
X104901403Y-61999431D01*
X104924409Y-61956388D01*
X104942866Y-61928767D01*
X105003209Y-61783085D01*
X105033972Y-61628430D01*
X105033972Y-61470746D01*
X105003209Y-61316091D01*
X104942866Y-61170409D01*
X104900935Y-61107654D01*
X104863756Y-61017894D01*
X104858972Y-60969319D01*
X104858972Y-46807387D01*
X104858973Y-46807366D01*
X104858973Y-46671865D01*
X104858972Y-46671863D01*
X104857480Y-46664364D01*
X104834935Y-46551021D01*
X104787784Y-46437187D01*
X104719330Y-46334739D01*
X103435859Y-45051269D01*
X103435858Y-45051267D01*
X103348733Y-44964142D01*
X103297509Y-44929915D01*
X103296816Y-44929452D01*
X103246288Y-44895689D01*
X103246286Y-44895688D01*
X103165792Y-44862347D01*
X103165791Y-44862346D01*
X103147554Y-44854792D01*
X103132452Y-44848537D01*
X103132449Y-44848536D01*
X103132446Y-44848535D01*
X103072032Y-44836518D01*
X103011612Y-44824500D01*
X103011607Y-44824500D01*
X103011606Y-44824500D01*
X94961607Y-44824500D01*
X94838393Y-44824500D01*
X94838387Y-44824500D01*
X94777973Y-44836516D01*
X94777974Y-44836517D01*
X94717550Y-44848536D01*
X94717548Y-44848537D01*
X94670397Y-44868067D01*
X94670395Y-44868067D01*
X94603715Y-44895687D01*
X94603715Y-44895688D01*
X94603714Y-44895689D01*
X94501269Y-44964140D01*
X93614140Y-45851269D01*
X93604439Y-45865788D01*
X93594801Y-45880213D01*
X93570158Y-45917091D01*
X93545686Y-45953716D01*
X93520302Y-46015001D01*
X93498538Y-46067545D01*
X93498537Y-46067546D01*
X93474500Y-46188395D01*
X93474500Y-51761605D01*
X93485281Y-51815805D01*
X93485282Y-51815811D01*
X93493584Y-51857553D01*
X93493590Y-51857587D01*
X93493970Y-51859499D01*
X93493955Y-51956654D01*
X93456761Y-52046407D01*
X93388087Y-52115071D01*
X93351212Y-52139710D01*
X93351203Y-52139717D01*
X93348106Y-52142815D01*
X93344463Y-52145248D01*
X93341752Y-52147474D01*
X93341532Y-52147206D01*
X93267337Y-52196782D01*
X93242212Y-52207189D01*
X93242210Y-52207190D01*
X93192840Y-52240179D01*
X93103080Y-52277359D01*
X93005925Y-52277359D01*
X92916166Y-52240179D01*
X92847467Y-52171480D01*
X92810287Y-52081720D01*
X92806930Y-52006527D01*
X92812000Y-51959373D01*
X92811999Y-50563628D01*
X92805591Y-50504017D01*
X92755296Y-50369169D01*
X92669046Y-50253954D01*
X92553831Y-50167704D01*
X92533852Y-50160252D01*
X92523481Y-50156384D01*
X92440825Y-50105324D01*
X92384000Y-50026520D01*
X92361659Y-49931969D01*
X92361500Y-49923084D01*
X92361500Y-45011501D01*
X92361500Y-45011500D01*
X89761500Y-45011500D01*
X87111500Y-45011500D01*
X87111500Y-45011501D01*
X87111500Y-49411000D01*
X87092546Y-49506288D01*
X87038570Y-49587070D01*
X86957788Y-49641046D01*
X86862500Y-49660000D01*
X86002887Y-49660000D01*
X85942473Y-49672016D01*
X85942474Y-49672017D01*
X85882048Y-49684036D01*
X85848707Y-49697847D01*
X85848706Y-49697846D01*
X85768216Y-49731186D01*
X85768215Y-49731187D01*
X85740061Y-49749998D01*
X85740062Y-49749999D01*
X85665769Y-49799640D01*
X85665767Y-49799642D01*
X85578642Y-49886767D01*
X85578639Y-49886770D01*
X85578638Y-49886769D01*
X85002341Y-50463069D01*
X84921560Y-50517046D01*
X84826271Y-50536000D01*
X82899887Y-50536000D01*
X82839468Y-50548018D01*
X82779054Y-50560035D01*
X82779044Y-50560038D01*
X82770383Y-50563626D01*
X82770379Y-50563628D01*
X82665216Y-50607187D01*
X82665213Y-50607190D01*
X82562769Y-50675640D01*
X81825637Y-51412772D01*
X81804807Y-51443948D01*
X81804806Y-51443951D01*
X81757184Y-51515219D01*
X81725230Y-51592369D01*
X81725227Y-51592377D01*
X81710038Y-51629042D01*
X81710038Y-51629045D01*
X81710037Y-51629048D01*
X81703766Y-51660577D01*
X81666586Y-51750337D01*
X81597887Y-51819036D01*
X81508128Y-51856215D01*
X81459551Y-51861000D01*
X81136634Y-51861000D01*
X81136630Y-51861000D01*
X81136628Y-51861001D01*
X81123814Y-51862378D01*
X81077019Y-51867408D01*
X81077015Y-51867409D01*
X80942170Y-51917703D01*
X80826955Y-52003953D01*
X80826953Y-52003955D01*
X80740704Y-52119169D01*
X80690408Y-52254018D01*
X80684000Y-52313623D01*
X80684000Y-53084365D01*
X80684001Y-53084369D01*
X80690408Y-53143980D01*
X80690410Y-53143985D01*
X80692647Y-53149983D01*
X80708188Y-53245886D01*
X80685846Y-53340437D01*
X80629021Y-53419241D01*
X80546364Y-53470300D01*
X80459347Y-53486000D01*
X80449993Y-53486000D01*
X80354705Y-53467046D01*
X80322337Y-53450495D01*
X80320199Y-53449497D01*
X80229339Y-53419390D01*
X80159208Y-53396151D01*
X80059845Y-53386000D01*
X80059841Y-53386000D01*
X79463157Y-53386000D01*
X79393722Y-53393093D01*
X79363792Y-53396151D01*
X79363790Y-53396151D01*
X79363786Y-53396152D01*
X79202806Y-53449495D01*
X79058458Y-53538530D01*
X79058456Y-53538531D01*
X79058456Y-53538532D01*
X79037066Y-53559921D01*
X78956288Y-53613895D01*
X78861000Y-53632849D01*
X78765712Y-53613895D01*
X78684930Y-53559919D01*
X78630954Y-53479137D01*
X78612000Y-53383849D01*
X78612000Y-44511000D01*
X78630954Y-44415712D01*
X78684930Y-44334930D01*
X78765712Y-44280954D01*
X78861000Y-44262000D01*
X113862000Y-44262000D01*
X113957288Y-44280954D01*
G37*
%TD.AperFunction*%
%TA.AperFunction,Conductor*%
G36*
X82145557Y-66905954D02*
G01*
X82226339Y-66959930D01*
X82280315Y-67040712D01*
X82299269Y-67136000D01*
X82280315Y-67231288D01*
X82226339Y-67312070D01*
X82226338Y-67312070D01*
X81542905Y-67995501D01*
X81462124Y-68049477D01*
X81366836Y-68068431D01*
X81340219Y-68067004D01*
X81284378Y-68061000D01*
X78861000Y-68061000D01*
X78765712Y-68042046D01*
X78684930Y-67988070D01*
X78630954Y-67907288D01*
X78612000Y-67812000D01*
X78612000Y-67510999D01*
X78630954Y-67415711D01*
X78684930Y-67334929D01*
X78765712Y-67280953D01*
X78860995Y-67261999D01*
X81284372Y-67261999D01*
X81343983Y-67255591D01*
X81478831Y-67205296D01*
X81594046Y-67119046D01*
X81680296Y-67003831D01*
X81680296Y-67003829D01*
X81690969Y-66989573D01*
X81694021Y-66991858D01*
X81735579Y-66942126D01*
X81821665Y-66897090D01*
X81891829Y-66887000D01*
X82050269Y-66887000D01*
X82145557Y-66905954D01*
G37*
%TD.AperFunction*%
%TA.AperFunction,Conductor*%
G36*
X99143058Y-60304454D02*
G01*
X99223840Y-60358430D01*
X102351573Y-63486164D01*
X102405549Y-63566946D01*
X102424503Y-63662234D01*
X102405549Y-63757522D01*
X102351573Y-63838304D01*
X102270791Y-63892280D01*
X102224080Y-63906450D01*
X102199848Y-63911270D01*
X102102693Y-63911269D01*
X102012934Y-63874090D01*
X101975206Y-63843128D01*
X101971789Y-63839711D01*
X101971785Y-63839708D01*
X101840680Y-63752106D01*
X101840673Y-63752103D01*
X101694997Y-63691763D01*
X101694992Y-63691761D01*
X101540346Y-63661000D01*
X101540342Y-63661000D01*
X101382658Y-63661000D01*
X101382653Y-63661000D01*
X101228007Y-63691761D01*
X101228002Y-63691763D01*
X101082326Y-63752103D01*
X101082314Y-63752109D01*
X101019567Y-63794036D01*
X100929808Y-63831216D01*
X100881231Y-63836000D01*
X100599887Y-63836000D01*
X100539468Y-63848018D01*
X100479055Y-63860034D01*
X100479052Y-63860035D01*
X100470149Y-63863723D01*
X100461251Y-63867409D01*
X100461247Y-63867410D01*
X100365225Y-63907182D01*
X100365212Y-63907189D01*
X100349472Y-63917707D01*
X100262771Y-63975638D01*
X99375636Y-64862773D01*
X99370666Y-64868830D01*
X99295565Y-64930465D01*
X99256508Y-64947228D01*
X99092168Y-65001684D01*
X98942846Y-65093786D01*
X98818786Y-65217846D01*
X98726684Y-65367168D01*
X98671502Y-65533697D01*
X98671501Y-65533704D01*
X98661000Y-65636488D01*
X98661000Y-66261508D01*
X98663164Y-66282684D01*
X98653991Y-66379405D01*
X98608503Y-66465253D01*
X98533625Y-66527159D01*
X98440756Y-66555698D01*
X98366876Y-66552203D01*
X98312580Y-66541403D01*
X98285418Y-66536000D01*
X98285417Y-66536000D01*
X97961125Y-66536000D01*
X97865837Y-66517046D01*
X97827778Y-66494701D01*
X97826888Y-66496146D01*
X97776803Y-66465253D01*
X97670197Y-66399497D01*
X97509208Y-66346151D01*
X97409845Y-66336000D01*
X97409841Y-66336000D01*
X96813157Y-66336000D01*
X96743722Y-66343093D01*
X96713792Y-66346151D01*
X96713790Y-66346151D01*
X96713786Y-66346152D01*
X96552806Y-66399495D01*
X96552805Y-66399495D01*
X96492219Y-66436866D01*
X96401167Y-66470758D01*
X96304077Y-66467226D01*
X96230781Y-66436866D01*
X96170197Y-66399497D01*
X96009208Y-66346151D01*
X95959526Y-66341075D01*
X95909847Y-66336000D01*
X95461000Y-66336000D01*
X95365712Y-66317046D01*
X95284930Y-66263070D01*
X95230954Y-66182288D01*
X95212000Y-66087000D01*
X95212000Y-63787581D01*
X95206529Y-63760076D01*
X95206530Y-63662921D01*
X95243710Y-63573162D01*
X95312409Y-63504463D01*
X95402169Y-63467284D01*
X95450745Y-63462500D01*
X96916032Y-63462500D01*
X96916034Y-63462500D01*
X96953048Y-63459587D01*
X97111459Y-63413564D01*
X97253447Y-63329592D01*
X97342691Y-63240346D01*
X97372388Y-63214982D01*
X97443964Y-63162981D01*
X97584481Y-63022464D01*
X97701287Y-62861694D01*
X97791505Y-62684632D01*
X97852913Y-62495636D01*
X97884000Y-62299361D01*
X97884000Y-62100639D01*
X97852913Y-61904364D01*
X97791505Y-61715368D01*
X97701287Y-61538306D01*
X97584481Y-61377536D01*
X97443964Y-61237019D01*
X97372395Y-61185021D01*
X97342690Y-61159651D01*
X97289108Y-61106069D01*
X97235132Y-61025287D01*
X97216178Y-60929999D01*
X97235132Y-60834711D01*
X97289105Y-60753932D01*
X97342691Y-60700346D01*
X97372388Y-60674982D01*
X97443964Y-60622981D01*
X97584481Y-60482464D01*
X97653011Y-60388141D01*
X97724354Y-60322192D01*
X97815505Y-60288565D01*
X97854456Y-60285500D01*
X99047770Y-60285500D01*
X99143058Y-60304454D01*
G37*
%TD.AperFunction*%
%TA.AperFunction,Conductor*%
G36*
X92594558Y-58505954D02*
G01*
X92675340Y-58559930D01*
X93997070Y-59881660D01*
X94051046Y-59962442D01*
X94070000Y-60057730D01*
X94070000Y-60335544D01*
X94072912Y-60372543D01*
X94072914Y-60372552D01*
X94118937Y-60530962D01*
X94202905Y-60672942D01*
X94202905Y-60672943D01*
X94202906Y-60672944D01*
X94202908Y-60672947D01*
X94283894Y-60753933D01*
X94337868Y-60834712D01*
X94356822Y-60930000D01*
X94337868Y-61025288D01*
X94283894Y-61106066D01*
X94230317Y-61159644D01*
X94202905Y-61187056D01*
X94202905Y-61187057D01*
X94118937Y-61329037D01*
X94072914Y-61487447D01*
X94072912Y-61487456D01*
X94070000Y-61524455D01*
X94070000Y-62212000D01*
X94051046Y-62307288D01*
X93997070Y-62388070D01*
X93916288Y-62442046D01*
X93821000Y-62461000D01*
X91338634Y-62461000D01*
X91338630Y-62461000D01*
X91338628Y-62461001D01*
X91325814Y-62462378D01*
X91279019Y-62467408D01*
X91279011Y-62467410D01*
X91157111Y-62512876D01*
X91061207Y-62528416D01*
X90966656Y-62506072D01*
X90887854Y-62449246D01*
X90836796Y-62366589D01*
X90821256Y-62270685D01*
X90843600Y-62176134D01*
X90894025Y-62103508D01*
X91000248Y-61997286D01*
X91087853Y-61866176D01*
X91148196Y-61720494D01*
X91153779Y-61692421D01*
X91190958Y-61602664D01*
X91259656Y-61533964D01*
X91349415Y-61496784D01*
X91397995Y-61491999D01*
X91759366Y-61491999D01*
X91759372Y-61491999D01*
X91818983Y-61485591D01*
X91953831Y-61435296D01*
X92069046Y-61349046D01*
X92155296Y-61233831D01*
X92205591Y-61098983D01*
X92212000Y-61039373D01*
X92211999Y-58735999D01*
X92230953Y-58640712D01*
X92284929Y-58559930D01*
X92365711Y-58505954D01*
X92460999Y-58487000D01*
X92499270Y-58487000D01*
X92594558Y-58505954D01*
G37*
%TD.AperFunction*%
%TA.AperFunction,Conductor*%
G36*
X78956288Y-55619272D02*
G01*
X79037070Y-55673248D01*
X79091045Y-55754028D01*
X79093347Y-55759587D01*
X79096415Y-55766994D01*
X79096416Y-55766995D01*
X79126094Y-55811412D01*
X79126095Y-55811414D01*
X79126096Y-55811414D01*
X79151878Y-55850000D01*
X79178549Y-55889918D01*
X79655322Y-56366689D01*
X79686287Y-56404420D01*
X79688316Y-56407456D01*
X79748956Y-56498211D01*
X79764711Y-56521789D01*
X79876211Y-56633289D01*
X79876214Y-56633291D01*
X80007319Y-56720893D01*
X80007320Y-56720893D01*
X80007321Y-56720894D01*
X80153003Y-56781237D01*
X80153005Y-56781237D01*
X80153007Y-56781238D01*
X80273950Y-56805295D01*
X80307658Y-56812000D01*
X80465342Y-56812000D01*
X80619997Y-56781237D01*
X80765679Y-56720894D01*
X80896789Y-56633289D01*
X80902886Y-56627191D01*
X80983660Y-56573217D01*
X81078948Y-56554260D01*
X81174236Y-56573211D01*
X81255020Y-56627184D01*
X81278288Y-56654036D01*
X81326954Y-56719046D01*
X81442169Y-56805296D01*
X81577017Y-56855591D01*
X81636627Y-56862000D01*
X81636970Y-56861999D01*
X81637096Y-56862025D01*
X81643288Y-56862357D01*
X81643240Y-56863246D01*
X81732256Y-56880939D01*
X81813045Y-56934904D01*
X81867032Y-57015678D01*
X81886000Y-57110964D01*
X81886000Y-57659842D01*
X81890709Y-57705934D01*
X81895239Y-57750284D01*
X81896152Y-57759213D01*
X81949495Y-57920193D01*
X81949495Y-57920194D01*
X81951727Y-57923812D01*
X81953880Y-57929596D01*
X81955624Y-57933336D01*
X81955324Y-57933475D01*
X81985619Y-58014864D01*
X81982087Y-58111955D01*
X81941669Y-58200303D01*
X81939133Y-58203752D01*
X81867705Y-58299167D01*
X81817408Y-58434018D01*
X81811000Y-58493623D01*
X81811000Y-60751961D01*
X81792046Y-60847249D01*
X81738070Y-60928031D01*
X81700346Y-60958991D01*
X81688500Y-60966907D01*
X81688493Y-60966912D01*
X81637271Y-61001137D01*
X81621604Y-61016804D01*
X81540821Y-61070779D01*
X81445533Y-61089731D01*
X81358523Y-61074032D01*
X81349801Y-61070779D01*
X81343981Y-61068608D01*
X81284376Y-61062200D01*
X78861000Y-61062200D01*
X78765712Y-61043246D01*
X78684930Y-60989270D01*
X78630954Y-60908488D01*
X78612000Y-60813200D01*
X78612000Y-55849318D01*
X78630954Y-55754030D01*
X78684930Y-55673248D01*
X78765712Y-55619272D01*
X78861000Y-55600318D01*
X78956288Y-55619272D01*
G37*
%TD.AperFunction*%
%TA.AperFunction,Conductor*%
G36*
X103427904Y-55450976D02*
G01*
X103514221Y-55495569D01*
X103576902Y-55569799D01*
X103606406Y-55662365D01*
X103607972Y-55690245D01*
X103607972Y-60322242D01*
X103589018Y-60417530D01*
X103535042Y-60498312D01*
X103454260Y-60552288D01*
X103358972Y-60571242D01*
X103263684Y-60552288D01*
X103182902Y-60498312D01*
X99757348Y-57072758D01*
X99703372Y-56991976D01*
X99684418Y-56896688D01*
X99703372Y-56801400D01*
X99757348Y-56720618D01*
X99838130Y-56666642D01*
X99933418Y-56647688D01*
X99988825Y-56653931D01*
X100044517Y-56666642D01*
X100246606Y-56712767D01*
X100428005Y-56733205D01*
X100581483Y-56750499D01*
X100581496Y-56750500D01*
X100918504Y-56750500D01*
X100918516Y-56750499D01*
X101034784Y-56737398D01*
X101253394Y-56712767D01*
X101455483Y-56666642D01*
X101581943Y-56637779D01*
X101581945Y-56637777D01*
X101581954Y-56637776D01*
X101900051Y-56526469D01*
X102203686Y-56380246D01*
X102489039Y-56200946D01*
X102752523Y-55990825D01*
X102990825Y-55752523D01*
X103164297Y-55534994D01*
X103238526Y-55472315D01*
X103331092Y-55442811D01*
X103427904Y-55450976D01*
G37*
%TD.AperFunction*%
%TA.AperFunction,Conductor*%
G36*
X91934939Y-54744393D02*
G01*
X92022785Y-54785892D01*
X92058209Y-54820223D01*
X92058533Y-54819900D01*
X92068786Y-54830153D01*
X92068788Y-54830156D01*
X92192844Y-54954212D01*
X92342166Y-55046314D01*
X92342169Y-55046315D01*
X92342167Y-55046315D01*
X92475278Y-55090423D01*
X92508703Y-55101499D01*
X92611491Y-55112000D01*
X93611508Y-55111999D01*
X93714297Y-55101499D01*
X93747722Y-55090422D01*
X93844134Y-55078441D01*
X93937794Y-55104266D01*
X94014441Y-55163968D01*
X94062407Y-55248457D01*
X94070997Y-55282054D01*
X94072914Y-55292552D01*
X94118937Y-55450962D01*
X94202905Y-55592942D01*
X94202905Y-55592943D01*
X94202906Y-55592944D01*
X94202908Y-55592947D01*
X94283894Y-55673933D01*
X94337868Y-55754712D01*
X94356822Y-55850000D01*
X94337868Y-55945288D01*
X94283894Y-56026066D01*
X94230317Y-56079644D01*
X94202905Y-56107056D01*
X94202905Y-56107057D01*
X94118937Y-56249037D01*
X94072914Y-56407447D01*
X94072912Y-56407456D01*
X94070000Y-56444455D01*
X94070000Y-56784270D01*
X94051046Y-56879558D01*
X93997070Y-56960340D01*
X93916288Y-57014316D01*
X93821000Y-57033270D01*
X93725712Y-57014316D01*
X93644933Y-56960342D01*
X93609233Y-56924642D01*
X93552154Y-56886503D01*
X93506786Y-56856188D01*
X93426292Y-56822847D01*
X93426291Y-56822846D01*
X93400105Y-56812000D01*
X93392952Y-56809037D01*
X93392949Y-56809036D01*
X93392946Y-56809035D01*
X93332532Y-56797018D01*
X93272112Y-56785000D01*
X93272107Y-56785000D01*
X93272106Y-56785000D01*
X88372731Y-56785000D01*
X88277443Y-56766046D01*
X88196661Y-56712070D01*
X88098430Y-56613839D01*
X88044454Y-56533057D01*
X88025500Y-56437769D01*
X88025500Y-56260500D01*
X88044454Y-56165212D01*
X88098430Y-56084430D01*
X88179212Y-56030454D01*
X88274500Y-56011500D01*
X91361499Y-56011500D01*
X91361500Y-56011500D01*
X91632983Y-54925564D01*
X91674481Y-54837722D01*
X91746438Y-54772443D01*
X91837899Y-54739671D01*
X91934939Y-54744393D01*
G37*
%TD.AperFunction*%
%TA.AperFunction,Conductor*%
G36*
X89831788Y-54484605D02*
G01*
X89895653Y-54527277D01*
X89897080Y-54525473D01*
X89908455Y-54534467D01*
X89908456Y-54534468D01*
X90052803Y-54623503D01*
X90213792Y-54676849D01*
X90313155Y-54687000D01*
X90909844Y-54686999D01*
X91009208Y-54676849D01*
X91033094Y-54668933D01*
X91129506Y-54656951D01*
X91223166Y-54682775D01*
X91299814Y-54742476D01*
X91347780Y-54826965D01*
X91359763Y-54923378D01*
X91352598Y-54967216D01*
X91209533Y-55524423D01*
X91167478Y-55612004D01*
X91095108Y-55676824D01*
X91003441Y-55709016D01*
X90968356Y-55711500D01*
X88504644Y-55711500D01*
X88409356Y-55692546D01*
X88328574Y-55638570D01*
X88274598Y-55557788D01*
X88263467Y-55524424D01*
X88151999Y-55090285D01*
X88120399Y-54967215D01*
X88115061Y-54870208D01*
X88147252Y-54778541D01*
X88212072Y-54706171D01*
X88299653Y-54664115D01*
X88396661Y-54658776D01*
X88439886Y-54668927D01*
X88463792Y-54676849D01*
X88563155Y-54687000D01*
X89159844Y-54686999D01*
X89259208Y-54676849D01*
X89420197Y-54623503D01*
X89564544Y-54534468D01*
X89564548Y-54534463D01*
X89575920Y-54525473D01*
X89577346Y-54527277D01*
X89641212Y-54484605D01*
X89736500Y-54465651D01*
X89831788Y-54484605D01*
G37*
%TD.AperFunction*%
%TA.AperFunction,Conductor*%
G36*
X84636627Y-53537000D02*
G01*
X84862000Y-53536999D01*
X84957287Y-53555953D01*
X85038069Y-53609929D01*
X85092046Y-53690710D01*
X85109764Y-53779755D01*
X85110644Y-53779708D01*
X85110971Y-53785822D01*
X85111000Y-53785964D01*
X85111000Y-53786348D01*
X85111000Y-53786368D01*
X85111001Y-53786372D01*
X85112767Y-53802803D01*
X85117408Y-53845980D01*
X85117409Y-53845984D01*
X85150814Y-53935546D01*
X85167704Y-53980831D01*
X85253954Y-54096046D01*
X85253957Y-54096048D01*
X85253959Y-54096050D01*
X85342279Y-54162167D01*
X85407202Y-54234445D01*
X85439523Y-54326066D01*
X85434322Y-54423082D01*
X85392390Y-54510722D01*
X85342279Y-54560833D01*
X85253959Y-54626949D01*
X85253953Y-54626955D01*
X85167704Y-54742169D01*
X85117408Y-54877018D01*
X85111000Y-54936623D01*
X85111000Y-54937000D01*
X85110972Y-54937136D01*
X85110643Y-54943288D01*
X85109758Y-54943240D01*
X85092046Y-55032288D01*
X85038070Y-55113070D01*
X84957288Y-55167046D01*
X84862001Y-55186000D01*
X84636634Y-55186000D01*
X84636625Y-55186001D01*
X84588110Y-55191216D01*
X84534884Y-55191215D01*
X84486376Y-55186000D01*
X84136634Y-55186000D01*
X84136625Y-55186001D01*
X84088110Y-55191216D01*
X84034884Y-55191215D01*
X83986380Y-55186000D01*
X83919820Y-55186000D01*
X83824532Y-55167046D01*
X83743750Y-55113070D01*
X83689774Y-55032288D01*
X83670820Y-54937000D01*
X83689774Y-54841712D01*
X83727347Y-54779028D01*
X83733277Y-54771800D01*
X83733289Y-54771789D01*
X83820894Y-54640679D01*
X83881237Y-54494997D01*
X83912000Y-54340342D01*
X83912000Y-54182658D01*
X83907920Y-54162147D01*
X83881238Y-54028007D01*
X83881237Y-54028005D01*
X83881237Y-54028003D01*
X83820894Y-53882321D01*
X83818300Y-53876058D01*
X83799346Y-53780770D01*
X83818300Y-53685482D01*
X83872277Y-53604701D01*
X83953059Y-53550725D01*
X84021731Y-53533198D01*
X84034885Y-53531784D01*
X84088113Y-53531784D01*
X84136627Y-53537000D01*
X84486372Y-53536999D01*
X84534894Y-53531783D01*
X84588113Y-53531783D01*
X84636627Y-53537000D01*
G37*
%TD.AperFunction*%
%TA.AperFunction,Conductor*%
G36*
X89823081Y-52052610D02*
G01*
X89910721Y-52094541D01*
X89960834Y-52144654D01*
X90007648Y-52207190D01*
X90053954Y-52269046D01*
X90169169Y-52355296D01*
X90169172Y-52355297D01*
X90184798Y-52363830D01*
X90182756Y-52367567D01*
X90235919Y-52400371D01*
X90292784Y-52479146D01*
X90315174Y-52573686D01*
X90299681Y-52669597D01*
X90248663Y-52752279D01*
X90169888Y-52809144D01*
X90144660Y-52819058D01*
X90052805Y-52849495D01*
X89908455Y-52938532D01*
X89897080Y-52947527D01*
X89895653Y-52945722D01*
X89873815Y-52960313D01*
X89835518Y-52986814D01*
X89833503Y-52987248D01*
X89831788Y-52988395D01*
X89786082Y-52997486D01*
X89740551Y-53007316D01*
X89738522Y-53006946D01*
X89736500Y-53007349D01*
X89690810Y-52998260D01*
X89644967Y-52989915D01*
X89643233Y-52988797D01*
X89641212Y-52988395D01*
X89602474Y-52962511D01*
X89577040Y-52946109D01*
X89575920Y-52947527D01*
X89564544Y-52938532D01*
X89420196Y-52849496D01*
X89373304Y-52833958D01*
X89354816Y-52827832D01*
X89270328Y-52779868D01*
X89210625Y-52703222D01*
X89184797Y-52609563D01*
X89196777Y-52513150D01*
X89244742Y-52428660D01*
X89321388Y-52368957D01*
X89346120Y-52358171D01*
X89353831Y-52355296D01*
X89469046Y-52269046D01*
X89555296Y-52153831D01*
X89555295Y-52153831D01*
X89562166Y-52144654D01*
X89634444Y-52079731D01*
X89726065Y-52047409D01*
X89823081Y-52052610D01*
G37*
%TD.AperFunction*%
%TA.AperFunction,Conductor*%
G36*
X91957788Y-45280454D02*
G01*
X92038570Y-45334430D01*
X92092546Y-45415212D01*
X92111500Y-45510500D01*
X92111500Y-49412500D01*
X92092546Y-49507788D01*
X92038570Y-49588570D01*
X91957788Y-49642546D01*
X91862500Y-49661500D01*
X90474570Y-49661500D01*
X90450164Y-49660301D01*
X90447108Y-49660000D01*
X90447107Y-49660000D01*
X90447106Y-49660000D01*
X87610500Y-49660000D01*
X87515212Y-49641046D01*
X87434430Y-49587070D01*
X87380454Y-49506288D01*
X87361500Y-49411000D01*
X87361500Y-45510500D01*
X87380454Y-45415212D01*
X87434430Y-45334430D01*
X87515212Y-45280454D01*
X87610500Y-45261500D01*
X91862500Y-45261500D01*
X91957788Y-45280454D01*
G37*
%TD.AperFunction*%
%TA.AperFunction,Conductor*%
G36*
X102683058Y-46094454D02*
G01*
X102763840Y-46148430D01*
X103535042Y-46919632D01*
X103589018Y-47000414D01*
X103607972Y-47095702D01*
X103607972Y-47809754D01*
X103589018Y-47905042D01*
X103535042Y-47985824D01*
X103454260Y-48039800D01*
X103358972Y-48058754D01*
X103263684Y-48039800D01*
X103182902Y-47985824D01*
X103164296Y-47965003D01*
X102990827Y-47747480D01*
X102990825Y-47747477D01*
X102752523Y-47509175D01*
X102489039Y-47299054D01*
X102489040Y-47299054D01*
X102489038Y-47299053D01*
X102203696Y-47119760D01*
X102203692Y-47119758D01*
X102203686Y-47119754D01*
X102203676Y-47119749D01*
X102203672Y-47119747D01*
X101900045Y-46973528D01*
X101679729Y-46896437D01*
X101581954Y-46862224D01*
X101581950Y-46862223D01*
X101581943Y-46862220D01*
X101253397Y-46787233D01*
X100918516Y-46749500D01*
X100918504Y-46749500D01*
X100581496Y-46749500D01*
X100581483Y-46749500D01*
X100246602Y-46787233D01*
X99918056Y-46862220D01*
X99918049Y-46862223D01*
X99599954Y-46973528D01*
X99296327Y-47119747D01*
X99296303Y-47119760D01*
X99010961Y-47299053D01*
X98747480Y-47509172D01*
X98747472Y-47509179D01*
X98509179Y-47747472D01*
X98509172Y-47747480D01*
X98299053Y-48010961D01*
X98119760Y-48296303D01*
X98119747Y-48296327D01*
X97974118Y-48598730D01*
X97915697Y-48676358D01*
X97832017Y-48725720D01*
X97735816Y-48739301D01*
X97641740Y-48715034D01*
X97573710Y-48666765D01*
X97443964Y-48537019D01*
X97372395Y-48485021D01*
X97342690Y-48459651D01*
X97289108Y-48406069D01*
X97235132Y-48325287D01*
X97216178Y-48229999D01*
X97235132Y-48134711D01*
X97289105Y-48053932D01*
X97342691Y-48000346D01*
X97372388Y-47974982D01*
X97443964Y-47922981D01*
X97584481Y-47782464D01*
X97701287Y-47621694D01*
X97791505Y-47444632D01*
X97852913Y-47255636D01*
X97884000Y-47059361D01*
X97884000Y-46860639D01*
X97852913Y-46664364D01*
X97791505Y-46475368D01*
X97772233Y-46437544D01*
X97745861Y-46344037D01*
X97757280Y-46247555D01*
X97804751Y-46162788D01*
X97881049Y-46102640D01*
X97974556Y-46076268D01*
X97994093Y-46075500D01*
X102587770Y-46075500D01*
X102683058Y-46094454D01*
G37*
%TD.AperFunction*%
%TD*%
M02*
