M48
; DRILL file KiCad 10.0.5 date 2026-09-22T11:59:56
; FORMAT={-:-/ absolute / metric / decimal}
; #@! TF.CreationDate,2026-09-22T11:59:56+01:00
; #@! TF.GenerationSoftware,Kicad,Pcbnew,10.0.5
; #@! TF.FileFunction,Plated,1,2,PTH
FMAT,2
METRIC
; #@! TA.AperFunction,Plated,PTH,ViaDrill
T1C0.300
; #@! TA.AperFunction,Plated,PTH,ComponentDrill
T2C0.889
; #@! TA.AperFunction,Plated,PTH,ComponentDrill
T3C3.000
%
G90
G05
T1
X79.761Y-51.462
X79.761Y-59.761
X80.386Y-56.011
X81.962Y-67.261
X82.861Y-62.561
X83.111Y-54.261
X83.861Y-71.261
X84.0Y-57.5
X84.611Y-54.261
X85.661Y-66.85
X87.761Y-47.261
X87.761Y-49.261
X88.4Y-62.261
X89.462Y-64.061
X89.462Y-65.061
X89.462Y-66.061
X89.5Y-67.25
X89.761Y-51.361
X89.761Y-54.761
X89.761Y-56.361
X90.378Y-61.487
X90.6Y-70.261
X91.761Y-47.261
X91.761Y-49.261
X92.6Y-59.2
X92.861Y-52.261
X93.861Y-45.011
X93.861Y-52.761
X94.6Y-71.261
X98.286Y-67.361
X98.361Y-66.261
X98.611Y-61.011
X99.0Y-46.4
X100.7Y-69.3
X100.75Y-57.5
X101.462Y-64.462
X102.861Y-64.511
X102.911Y-56.712
X104.233Y-61.55
X106.8Y-47.9
X108.1Y-55.85
X108.1Y-58.4
X108.65Y-63.3
X108.8Y-59.66
X108.85Y-57.12
X108.9Y-54.58
T2
X96.621Y-46.96
X96.621Y-49.5
X96.621Y-52.04
X96.621Y-54.58
X96.621Y-57.12
X96.621Y-59.66
X96.621Y-62.2
X111.861Y-46.96
X111.861Y-49.5
X111.861Y-52.04
X111.861Y-54.58
X111.861Y-57.12
X111.861Y-59.66
X111.861Y-62.2
T3
X82.111Y-47.761
X110.611Y-68.761
M30
