%TF.GenerationSoftware,KiCad,Pcbnew,9.0.5*%
%TF.CreationDate,2025-12-09T00:49:43+00:00*%
%TF.ProjectId,WaviTrack_v3_1,57617669-5472-4616-936b-5f76335f312e,2.1*%
%TF.SameCoordinates,Original*%
%TF.FileFunction,Legend,Top*%
%TF.FilePolarity,Positive*%
%FSLAX46Y46*%
G04 Gerber Fmt 4.6, Leading zero omitted, Abs format (unit mm)*
G04 Created by KiCad (PCBNEW 9.0.5) date 2025-12-09 00:49:43*
%MOMM*%
%LPD*%
G01*
G04 APERTURE LIST*
%ADD10C,0.100000*%
%ADD11C,0.110000*%
%ADD12C,0.106680*%
%ADD13C,0.120000*%
%ADD14C,0.127000*%
%ADD15C,0.200000*%
%ADD16C,0.504000*%
G04 APERTURE END LIST*
D10*
X93400000Y-50272371D02*
X93200000Y-49986657D01*
X93057143Y-50272371D02*
X93057143Y-49672371D01*
X93057143Y-49672371D02*
X93285714Y-49672371D01*
X93285714Y-49672371D02*
X93342857Y-49700942D01*
X93342857Y-49700942D02*
X93371428Y-49729514D01*
X93371428Y-49729514D02*
X93400000Y-49786657D01*
X93400000Y-49786657D02*
X93400000Y-49872371D01*
X93400000Y-49872371D02*
X93371428Y-49929514D01*
X93371428Y-49929514D02*
X93342857Y-49958085D01*
X93342857Y-49958085D02*
X93285714Y-49986657D01*
X93285714Y-49986657D02*
X93057143Y-49986657D01*
X93971428Y-50272371D02*
X93628571Y-50272371D01*
X93800000Y-50272371D02*
X93800000Y-49672371D01*
X93800000Y-49672371D02*
X93742857Y-49758085D01*
X93742857Y-49758085D02*
X93685714Y-49815228D01*
X93685714Y-49815228D02*
X93628571Y-49843800D01*
X91750000Y-45865228D02*
X91721428Y-45893800D01*
X91721428Y-45893800D02*
X91635714Y-45922371D01*
X91635714Y-45922371D02*
X91578571Y-45922371D01*
X91578571Y-45922371D02*
X91492857Y-45893800D01*
X91492857Y-45893800D02*
X91435714Y-45836657D01*
X91435714Y-45836657D02*
X91407143Y-45779514D01*
X91407143Y-45779514D02*
X91378571Y-45665228D01*
X91378571Y-45665228D02*
X91378571Y-45579514D01*
X91378571Y-45579514D02*
X91407143Y-45465228D01*
X91407143Y-45465228D02*
X91435714Y-45408085D01*
X91435714Y-45408085D02*
X91492857Y-45350942D01*
X91492857Y-45350942D02*
X91578571Y-45322371D01*
X91578571Y-45322371D02*
X91635714Y-45322371D01*
X91635714Y-45322371D02*
X91721428Y-45350942D01*
X91721428Y-45350942D02*
X91750000Y-45379514D01*
X92292857Y-45322371D02*
X92007143Y-45322371D01*
X92007143Y-45322371D02*
X91978571Y-45608085D01*
X91978571Y-45608085D02*
X92007143Y-45579514D01*
X92007143Y-45579514D02*
X92064286Y-45550942D01*
X92064286Y-45550942D02*
X92207143Y-45550942D01*
X92207143Y-45550942D02*
X92264286Y-45579514D01*
X92264286Y-45579514D02*
X92292857Y-45608085D01*
X92292857Y-45608085D02*
X92321428Y-45665228D01*
X92321428Y-45665228D02*
X92321428Y-45808085D01*
X92321428Y-45808085D02*
X92292857Y-45865228D01*
X92292857Y-45865228D02*
X92264286Y-45893800D01*
X92264286Y-45893800D02*
X92207143Y-45922371D01*
X92207143Y-45922371D02*
X92064286Y-45922371D01*
X92064286Y-45922371D02*
X92007143Y-45893800D01*
X92007143Y-45893800D02*
X91978571Y-45865228D01*
X81207143Y-55322371D02*
X81207143Y-54722371D01*
X81207143Y-54722371D02*
X81350000Y-54722371D01*
X81350000Y-54722371D02*
X81435714Y-54750942D01*
X81435714Y-54750942D02*
X81492857Y-54808085D01*
X81492857Y-54808085D02*
X81521428Y-54865228D01*
X81521428Y-54865228D02*
X81550000Y-54979514D01*
X81550000Y-54979514D02*
X81550000Y-55065228D01*
X81550000Y-55065228D02*
X81521428Y-55179514D01*
X81521428Y-55179514D02*
X81492857Y-55236657D01*
X81492857Y-55236657D02*
X81435714Y-55293800D01*
X81435714Y-55293800D02*
X81350000Y-55322371D01*
X81350000Y-55322371D02*
X81207143Y-55322371D01*
X82121428Y-55322371D02*
X81778571Y-55322371D01*
X81950000Y-55322371D02*
X81950000Y-54722371D01*
X81950000Y-54722371D02*
X81892857Y-54808085D01*
X81892857Y-54808085D02*
X81835714Y-54865228D01*
X81835714Y-54865228D02*
X81778571Y-54893800D01*
X80700000Y-51872371D02*
X80500000Y-51586657D01*
X80357143Y-51872371D02*
X80357143Y-51272371D01*
X80357143Y-51272371D02*
X80585714Y-51272371D01*
X80585714Y-51272371D02*
X80642857Y-51300942D01*
X80642857Y-51300942D02*
X80671428Y-51329514D01*
X80671428Y-51329514D02*
X80700000Y-51386657D01*
X80700000Y-51386657D02*
X80700000Y-51472371D01*
X80700000Y-51472371D02*
X80671428Y-51529514D01*
X80671428Y-51529514D02*
X80642857Y-51558085D01*
X80642857Y-51558085D02*
X80585714Y-51586657D01*
X80585714Y-51586657D02*
X80357143Y-51586657D01*
X81214286Y-51472371D02*
X81214286Y-51872371D01*
X81071428Y-51243800D02*
X80928571Y-51672371D01*
X80928571Y-51672371D02*
X81300000Y-51672371D01*
X79614285Y-55322371D02*
X79414285Y-55036657D01*
X79271428Y-55322371D02*
X79271428Y-54722371D01*
X79271428Y-54722371D02*
X79499999Y-54722371D01*
X79499999Y-54722371D02*
X79557142Y-54750942D01*
X79557142Y-54750942D02*
X79585713Y-54779514D01*
X79585713Y-54779514D02*
X79614285Y-54836657D01*
X79614285Y-54836657D02*
X79614285Y-54922371D01*
X79614285Y-54922371D02*
X79585713Y-54979514D01*
X79585713Y-54979514D02*
X79557142Y-55008085D01*
X79557142Y-55008085D02*
X79499999Y-55036657D01*
X79499999Y-55036657D02*
X79271428Y-55036657D01*
X80185713Y-55322371D02*
X79842856Y-55322371D01*
X80014285Y-55322371D02*
X80014285Y-54722371D01*
X80014285Y-54722371D02*
X79957142Y-54808085D01*
X79957142Y-54808085D02*
X79899999Y-54865228D01*
X79899999Y-54865228D02*
X79842856Y-54893800D01*
X80557142Y-54722371D02*
X80614285Y-54722371D01*
X80614285Y-54722371D02*
X80671428Y-54750942D01*
X80671428Y-54750942D02*
X80700000Y-54779514D01*
X80700000Y-54779514D02*
X80728571Y-54836657D01*
X80728571Y-54836657D02*
X80757142Y-54950942D01*
X80757142Y-54950942D02*
X80757142Y-55093800D01*
X80757142Y-55093800D02*
X80728571Y-55208085D01*
X80728571Y-55208085D02*
X80700000Y-55265228D01*
X80700000Y-55265228D02*
X80671428Y-55293800D01*
X80671428Y-55293800D02*
X80614285Y-55322371D01*
X80614285Y-55322371D02*
X80557142Y-55322371D01*
X80557142Y-55322371D02*
X80500000Y-55293800D01*
X80500000Y-55293800D02*
X80471428Y-55265228D01*
X80471428Y-55265228D02*
X80442857Y-55208085D01*
X80442857Y-55208085D02*
X80414285Y-55093800D01*
X80414285Y-55093800D02*
X80414285Y-54950942D01*
X80414285Y-54950942D02*
X80442857Y-54836657D01*
X80442857Y-54836657D02*
X80471428Y-54779514D01*
X80471428Y-54779514D02*
X80500000Y-54750942D01*
X80500000Y-54750942D02*
X80557142Y-54722371D01*
X90800000Y-58222371D02*
X90600000Y-57936657D01*
X90457143Y-58222371D02*
X90457143Y-57622371D01*
X90457143Y-57622371D02*
X90685714Y-57622371D01*
X90685714Y-57622371D02*
X90742857Y-57650942D01*
X90742857Y-57650942D02*
X90771428Y-57679514D01*
X90771428Y-57679514D02*
X90800000Y-57736657D01*
X90800000Y-57736657D02*
X90800000Y-57822371D01*
X90800000Y-57822371D02*
X90771428Y-57879514D01*
X90771428Y-57879514D02*
X90742857Y-57908085D01*
X90742857Y-57908085D02*
X90685714Y-57936657D01*
X90685714Y-57936657D02*
X90457143Y-57936657D01*
X91314286Y-57622371D02*
X91200000Y-57622371D01*
X91200000Y-57622371D02*
X91142857Y-57650942D01*
X91142857Y-57650942D02*
X91114286Y-57679514D01*
X91114286Y-57679514D02*
X91057143Y-57765228D01*
X91057143Y-57765228D02*
X91028571Y-57879514D01*
X91028571Y-57879514D02*
X91028571Y-58108085D01*
X91028571Y-58108085D02*
X91057143Y-58165228D01*
X91057143Y-58165228D02*
X91085714Y-58193800D01*
X91085714Y-58193800D02*
X91142857Y-58222371D01*
X91142857Y-58222371D02*
X91257143Y-58222371D01*
X91257143Y-58222371D02*
X91314286Y-58193800D01*
X91314286Y-58193800D02*
X91342857Y-58165228D01*
X91342857Y-58165228D02*
X91371428Y-58108085D01*
X91371428Y-58108085D02*
X91371428Y-57965228D01*
X91371428Y-57965228D02*
X91342857Y-57908085D01*
X91342857Y-57908085D02*
X91314286Y-57879514D01*
X91314286Y-57879514D02*
X91257143Y-57850942D01*
X91257143Y-57850942D02*
X91142857Y-57850942D01*
X91142857Y-57850942D02*
X91085714Y-57879514D01*
X91085714Y-57879514D02*
X91057143Y-57908085D01*
X91057143Y-57908085D02*
X91028571Y-57965228D01*
X82900000Y-55322371D02*
X82700000Y-55036657D01*
X82557143Y-55322371D02*
X82557143Y-54722371D01*
X82557143Y-54722371D02*
X82785714Y-54722371D01*
X82785714Y-54722371D02*
X82842857Y-54750942D01*
X82842857Y-54750942D02*
X82871428Y-54779514D01*
X82871428Y-54779514D02*
X82900000Y-54836657D01*
X82900000Y-54836657D02*
X82900000Y-54922371D01*
X82900000Y-54922371D02*
X82871428Y-54979514D01*
X82871428Y-54979514D02*
X82842857Y-55008085D01*
X82842857Y-55008085D02*
X82785714Y-55036657D01*
X82785714Y-55036657D02*
X82557143Y-55036657D01*
X83185714Y-55322371D02*
X83300000Y-55322371D01*
X83300000Y-55322371D02*
X83357143Y-55293800D01*
X83357143Y-55293800D02*
X83385714Y-55265228D01*
X83385714Y-55265228D02*
X83442857Y-55179514D01*
X83442857Y-55179514D02*
X83471428Y-55065228D01*
X83471428Y-55065228D02*
X83471428Y-54836657D01*
X83471428Y-54836657D02*
X83442857Y-54779514D01*
X83442857Y-54779514D02*
X83414286Y-54750942D01*
X83414286Y-54750942D02*
X83357143Y-54722371D01*
X83357143Y-54722371D02*
X83242857Y-54722371D01*
X83242857Y-54722371D02*
X83185714Y-54750942D01*
X83185714Y-54750942D02*
X83157143Y-54779514D01*
X83157143Y-54779514D02*
X83128571Y-54836657D01*
X83128571Y-54836657D02*
X83128571Y-54979514D01*
X83128571Y-54979514D02*
X83157143Y-55036657D01*
X83157143Y-55036657D02*
X83185714Y-55065228D01*
X83185714Y-55065228D02*
X83242857Y-55093800D01*
X83242857Y-55093800D02*
X83357143Y-55093800D01*
X83357143Y-55093800D02*
X83414286Y-55065228D01*
X83414286Y-55065228D02*
X83442857Y-55036657D01*
X83442857Y-55036657D02*
X83471428Y-54979514D01*
X89300000Y-58165228D02*
X89271428Y-58193800D01*
X89271428Y-58193800D02*
X89185714Y-58222371D01*
X89185714Y-58222371D02*
X89128571Y-58222371D01*
X89128571Y-58222371D02*
X89042857Y-58193800D01*
X89042857Y-58193800D02*
X88985714Y-58136657D01*
X88985714Y-58136657D02*
X88957143Y-58079514D01*
X88957143Y-58079514D02*
X88928571Y-57965228D01*
X88928571Y-57965228D02*
X88928571Y-57879514D01*
X88928571Y-57879514D02*
X88957143Y-57765228D01*
X88957143Y-57765228D02*
X88985714Y-57708085D01*
X88985714Y-57708085D02*
X89042857Y-57650942D01*
X89042857Y-57650942D02*
X89128571Y-57622371D01*
X89128571Y-57622371D02*
X89185714Y-57622371D01*
X89185714Y-57622371D02*
X89271428Y-57650942D01*
X89271428Y-57650942D02*
X89300000Y-57679514D01*
X89500000Y-57622371D02*
X89871428Y-57622371D01*
X89871428Y-57622371D02*
X89671428Y-57850942D01*
X89671428Y-57850942D02*
X89757143Y-57850942D01*
X89757143Y-57850942D02*
X89814286Y-57879514D01*
X89814286Y-57879514D02*
X89842857Y-57908085D01*
X89842857Y-57908085D02*
X89871428Y-57965228D01*
X89871428Y-57965228D02*
X89871428Y-58108085D01*
X89871428Y-58108085D02*
X89842857Y-58165228D01*
X89842857Y-58165228D02*
X89814286Y-58193800D01*
X89814286Y-58193800D02*
X89757143Y-58222371D01*
X89757143Y-58222371D02*
X89585714Y-58222371D01*
X89585714Y-58222371D02*
X89528571Y-58193800D01*
X89528571Y-58193800D02*
X89500000Y-58165228D01*
X94122371Y-56199999D02*
X93836657Y-56399999D01*
X94122371Y-56542856D02*
X93522371Y-56542856D01*
X93522371Y-56542856D02*
X93522371Y-56314285D01*
X93522371Y-56314285D02*
X93550942Y-56257142D01*
X93550942Y-56257142D02*
X93579514Y-56228571D01*
X93579514Y-56228571D02*
X93636657Y-56199999D01*
X93636657Y-56199999D02*
X93722371Y-56199999D01*
X93722371Y-56199999D02*
X93779514Y-56228571D01*
X93779514Y-56228571D02*
X93808085Y-56257142D01*
X93808085Y-56257142D02*
X93836657Y-56314285D01*
X93836657Y-56314285D02*
X93836657Y-56542856D01*
X93579514Y-55971428D02*
X93550942Y-55942856D01*
X93550942Y-55942856D02*
X93522371Y-55885714D01*
X93522371Y-55885714D02*
X93522371Y-55742856D01*
X93522371Y-55742856D02*
X93550942Y-55685714D01*
X93550942Y-55685714D02*
X93579514Y-55657142D01*
X93579514Y-55657142D02*
X93636657Y-55628571D01*
X93636657Y-55628571D02*
X93693800Y-55628571D01*
X93693800Y-55628571D02*
X93779514Y-55657142D01*
X93779514Y-55657142D02*
X94122371Y-55999999D01*
X94122371Y-55999999D02*
X94122371Y-55628571D01*
X84400000Y-55322371D02*
X84200000Y-55036657D01*
X84057143Y-55322371D02*
X84057143Y-54722371D01*
X84057143Y-54722371D02*
X84285714Y-54722371D01*
X84285714Y-54722371D02*
X84342857Y-54750942D01*
X84342857Y-54750942D02*
X84371428Y-54779514D01*
X84371428Y-54779514D02*
X84400000Y-54836657D01*
X84400000Y-54836657D02*
X84400000Y-54922371D01*
X84400000Y-54922371D02*
X84371428Y-54979514D01*
X84371428Y-54979514D02*
X84342857Y-55008085D01*
X84342857Y-55008085D02*
X84285714Y-55036657D01*
X84285714Y-55036657D02*
X84057143Y-55036657D01*
X84742857Y-54979514D02*
X84685714Y-54950942D01*
X84685714Y-54950942D02*
X84657143Y-54922371D01*
X84657143Y-54922371D02*
X84628571Y-54865228D01*
X84628571Y-54865228D02*
X84628571Y-54836657D01*
X84628571Y-54836657D02*
X84657143Y-54779514D01*
X84657143Y-54779514D02*
X84685714Y-54750942D01*
X84685714Y-54750942D02*
X84742857Y-54722371D01*
X84742857Y-54722371D02*
X84857143Y-54722371D01*
X84857143Y-54722371D02*
X84914286Y-54750942D01*
X84914286Y-54750942D02*
X84942857Y-54779514D01*
X84942857Y-54779514D02*
X84971428Y-54836657D01*
X84971428Y-54836657D02*
X84971428Y-54865228D01*
X84971428Y-54865228D02*
X84942857Y-54922371D01*
X84942857Y-54922371D02*
X84914286Y-54950942D01*
X84914286Y-54950942D02*
X84857143Y-54979514D01*
X84857143Y-54979514D02*
X84742857Y-54979514D01*
X84742857Y-54979514D02*
X84685714Y-55008085D01*
X84685714Y-55008085D02*
X84657143Y-55036657D01*
X84657143Y-55036657D02*
X84628571Y-55093800D01*
X84628571Y-55093800D02*
X84628571Y-55208085D01*
X84628571Y-55208085D02*
X84657143Y-55265228D01*
X84657143Y-55265228D02*
X84685714Y-55293800D01*
X84685714Y-55293800D02*
X84742857Y-55322371D01*
X84742857Y-55322371D02*
X84857143Y-55322371D01*
X84857143Y-55322371D02*
X84914286Y-55293800D01*
X84914286Y-55293800D02*
X84942857Y-55265228D01*
X84942857Y-55265228D02*
X84971428Y-55208085D01*
X84971428Y-55208085D02*
X84971428Y-55093800D01*
X84971428Y-55093800D02*
X84942857Y-55036657D01*
X84942857Y-55036657D02*
X84914286Y-55008085D01*
X84914286Y-55008085D02*
X84857143Y-54979514D01*
X86250000Y-45865228D02*
X86221428Y-45893800D01*
X86221428Y-45893800D02*
X86135714Y-45922371D01*
X86135714Y-45922371D02*
X86078571Y-45922371D01*
X86078571Y-45922371D02*
X85992857Y-45893800D01*
X85992857Y-45893800D02*
X85935714Y-45836657D01*
X85935714Y-45836657D02*
X85907143Y-45779514D01*
X85907143Y-45779514D02*
X85878571Y-45665228D01*
X85878571Y-45665228D02*
X85878571Y-45579514D01*
X85878571Y-45579514D02*
X85907143Y-45465228D01*
X85907143Y-45465228D02*
X85935714Y-45408085D01*
X85935714Y-45408085D02*
X85992857Y-45350942D01*
X85992857Y-45350942D02*
X86078571Y-45322371D01*
X86078571Y-45322371D02*
X86135714Y-45322371D01*
X86135714Y-45322371D02*
X86221428Y-45350942D01*
X86221428Y-45350942D02*
X86250000Y-45379514D01*
X86764286Y-45522371D02*
X86764286Y-45922371D01*
X86621428Y-45293800D02*
X86478571Y-45722371D01*
X86478571Y-45722371D02*
X86850000Y-45722371D01*
X85700000Y-51065228D02*
X85671428Y-51093800D01*
X85671428Y-51093800D02*
X85585714Y-51122371D01*
X85585714Y-51122371D02*
X85528571Y-51122371D01*
X85528571Y-51122371D02*
X85442857Y-51093800D01*
X85442857Y-51093800D02*
X85385714Y-51036657D01*
X85385714Y-51036657D02*
X85357143Y-50979514D01*
X85357143Y-50979514D02*
X85328571Y-50865228D01*
X85328571Y-50865228D02*
X85328571Y-50779514D01*
X85328571Y-50779514D02*
X85357143Y-50665228D01*
X85357143Y-50665228D02*
X85385714Y-50608085D01*
X85385714Y-50608085D02*
X85442857Y-50550942D01*
X85442857Y-50550942D02*
X85528571Y-50522371D01*
X85528571Y-50522371D02*
X85585714Y-50522371D01*
X85585714Y-50522371D02*
X85671428Y-50550942D01*
X85671428Y-50550942D02*
X85700000Y-50579514D01*
X85928571Y-50579514D02*
X85957143Y-50550942D01*
X85957143Y-50550942D02*
X86014286Y-50522371D01*
X86014286Y-50522371D02*
X86157143Y-50522371D01*
X86157143Y-50522371D02*
X86214286Y-50550942D01*
X86214286Y-50550942D02*
X86242857Y-50579514D01*
X86242857Y-50579514D02*
X86271428Y-50636657D01*
X86271428Y-50636657D02*
X86271428Y-50693800D01*
X86271428Y-50693800D02*
X86242857Y-50779514D01*
X86242857Y-50779514D02*
X85900000Y-51122371D01*
X85900000Y-51122371D02*
X86271428Y-51122371D01*
X88800000Y-49815228D02*
X88771428Y-49843800D01*
X88771428Y-49843800D02*
X88685714Y-49872371D01*
X88685714Y-49872371D02*
X88628571Y-49872371D01*
X88628571Y-49872371D02*
X88542857Y-49843800D01*
X88542857Y-49843800D02*
X88485714Y-49786657D01*
X88485714Y-49786657D02*
X88457143Y-49729514D01*
X88457143Y-49729514D02*
X88428571Y-49615228D01*
X88428571Y-49615228D02*
X88428571Y-49529514D01*
X88428571Y-49529514D02*
X88457143Y-49415228D01*
X88457143Y-49415228D02*
X88485714Y-49358085D01*
X88485714Y-49358085D02*
X88542857Y-49300942D01*
X88542857Y-49300942D02*
X88628571Y-49272371D01*
X88628571Y-49272371D02*
X88685714Y-49272371D01*
X88685714Y-49272371D02*
X88771428Y-49300942D01*
X88771428Y-49300942D02*
X88800000Y-49329514D01*
X89371428Y-49872371D02*
X89028571Y-49872371D01*
X89200000Y-49872371D02*
X89200000Y-49272371D01*
X89200000Y-49272371D02*
X89142857Y-49358085D01*
X89142857Y-49358085D02*
X89085714Y-49415228D01*
X89085714Y-49415228D02*
X89028571Y-49443800D01*
X85557143Y-55334871D02*
X85557143Y-54734871D01*
X85557143Y-54734871D02*
X85700000Y-54734871D01*
X85700000Y-54734871D02*
X85785714Y-54763442D01*
X85785714Y-54763442D02*
X85842857Y-54820585D01*
X85842857Y-54820585D02*
X85871428Y-54877728D01*
X85871428Y-54877728D02*
X85900000Y-54992014D01*
X85900000Y-54992014D02*
X85900000Y-55077728D01*
X85900000Y-55077728D02*
X85871428Y-55192014D01*
X85871428Y-55192014D02*
X85842857Y-55249157D01*
X85842857Y-55249157D02*
X85785714Y-55306300D01*
X85785714Y-55306300D02*
X85700000Y-55334871D01*
X85700000Y-55334871D02*
X85557143Y-55334871D01*
X86128571Y-54792014D02*
X86157143Y-54763442D01*
X86157143Y-54763442D02*
X86214286Y-54734871D01*
X86214286Y-54734871D02*
X86357143Y-54734871D01*
X86357143Y-54734871D02*
X86414286Y-54763442D01*
X86414286Y-54763442D02*
X86442857Y-54792014D01*
X86442857Y-54792014D02*
X86471428Y-54849157D01*
X86471428Y-54849157D02*
X86471428Y-54906300D01*
X86471428Y-54906300D02*
X86442857Y-54992014D01*
X86442857Y-54992014D02*
X86100000Y-55334871D01*
X86100000Y-55334871D02*
X86471428Y-55334871D01*
X92972371Y-53007142D02*
X93458085Y-53007142D01*
X93458085Y-53007142D02*
X93515228Y-52978571D01*
X93515228Y-52978571D02*
X93543800Y-52950000D01*
X93543800Y-52950000D02*
X93572371Y-52892857D01*
X93572371Y-52892857D02*
X93572371Y-52778571D01*
X93572371Y-52778571D02*
X93543800Y-52721428D01*
X93543800Y-52721428D02*
X93515228Y-52692857D01*
X93515228Y-52692857D02*
X93458085Y-52664285D01*
X93458085Y-52664285D02*
X92972371Y-52664285D01*
X93029514Y-52407143D02*
X93000942Y-52378571D01*
X93000942Y-52378571D02*
X92972371Y-52321429D01*
X92972371Y-52321429D02*
X92972371Y-52178571D01*
X92972371Y-52178571D02*
X93000942Y-52121429D01*
X93000942Y-52121429D02*
X93029514Y-52092857D01*
X93029514Y-52092857D02*
X93086657Y-52064286D01*
X93086657Y-52064286D02*
X93143800Y-52064286D01*
X93143800Y-52064286D02*
X93229514Y-52092857D01*
X93229514Y-52092857D02*
X93572371Y-52435714D01*
X93572371Y-52435714D02*
X93572371Y-52064286D01*
X85700000Y-54547371D02*
X85500000Y-54261657D01*
X85357143Y-54547371D02*
X85357143Y-53947371D01*
X85357143Y-53947371D02*
X85585714Y-53947371D01*
X85585714Y-53947371D02*
X85642857Y-53975942D01*
X85642857Y-53975942D02*
X85671428Y-54004514D01*
X85671428Y-54004514D02*
X85700000Y-54061657D01*
X85700000Y-54061657D02*
X85700000Y-54147371D01*
X85700000Y-54147371D02*
X85671428Y-54204514D01*
X85671428Y-54204514D02*
X85642857Y-54233085D01*
X85642857Y-54233085D02*
X85585714Y-54261657D01*
X85585714Y-54261657D02*
X85357143Y-54261657D01*
X86242857Y-53947371D02*
X85957143Y-53947371D01*
X85957143Y-53947371D02*
X85928571Y-54233085D01*
X85928571Y-54233085D02*
X85957143Y-54204514D01*
X85957143Y-54204514D02*
X86014286Y-54175942D01*
X86014286Y-54175942D02*
X86157143Y-54175942D01*
X86157143Y-54175942D02*
X86214286Y-54204514D01*
X86214286Y-54204514D02*
X86242857Y-54233085D01*
X86242857Y-54233085D02*
X86271428Y-54290228D01*
X86271428Y-54290228D02*
X86271428Y-54433085D01*
X86271428Y-54433085D02*
X86242857Y-54490228D01*
X86242857Y-54490228D02*
X86214286Y-54518800D01*
X86214286Y-54518800D02*
X86157143Y-54547371D01*
X86157143Y-54547371D02*
X86014286Y-54547371D01*
X86014286Y-54547371D02*
X85957143Y-54518800D01*
X85957143Y-54518800D02*
X85928571Y-54490228D01*
X80700000Y-52672371D02*
X80500000Y-52386657D01*
X80357143Y-52672371D02*
X80357143Y-52072371D01*
X80357143Y-52072371D02*
X80585714Y-52072371D01*
X80585714Y-52072371D02*
X80642857Y-52100942D01*
X80642857Y-52100942D02*
X80671428Y-52129514D01*
X80671428Y-52129514D02*
X80700000Y-52186657D01*
X80700000Y-52186657D02*
X80700000Y-52272371D01*
X80700000Y-52272371D02*
X80671428Y-52329514D01*
X80671428Y-52329514D02*
X80642857Y-52358085D01*
X80642857Y-52358085D02*
X80585714Y-52386657D01*
X80585714Y-52386657D02*
X80357143Y-52386657D01*
X80900000Y-52072371D02*
X81271428Y-52072371D01*
X81271428Y-52072371D02*
X81071428Y-52300942D01*
X81071428Y-52300942D02*
X81157143Y-52300942D01*
X81157143Y-52300942D02*
X81214286Y-52329514D01*
X81214286Y-52329514D02*
X81242857Y-52358085D01*
X81242857Y-52358085D02*
X81271428Y-52415228D01*
X81271428Y-52415228D02*
X81271428Y-52558085D01*
X81271428Y-52558085D02*
X81242857Y-52615228D01*
X81242857Y-52615228D02*
X81214286Y-52643800D01*
X81214286Y-52643800D02*
X81157143Y-52672371D01*
X81157143Y-52672371D02*
X80985714Y-52672371D01*
X80985714Y-52672371D02*
X80928571Y-52643800D01*
X80928571Y-52643800D02*
X80900000Y-52615228D01*
X88814285Y-46186657D02*
X88814285Y-46472371D01*
X88614285Y-45872371D02*
X88814285Y-46186657D01*
X88814285Y-46186657D02*
X89014285Y-45872371D01*
X89528571Y-46472371D02*
X89185714Y-46472371D01*
X89357143Y-46472371D02*
X89357143Y-45872371D01*
X89357143Y-45872371D02*
X89300000Y-45958085D01*
X89300000Y-45958085D02*
X89242857Y-46015228D01*
X89242857Y-46015228D02*
X89185714Y-46043800D01*
X93700000Y-45922371D02*
X93500000Y-45636657D01*
X93357143Y-45922371D02*
X93357143Y-45322371D01*
X93357143Y-45322371D02*
X93585714Y-45322371D01*
X93585714Y-45322371D02*
X93642857Y-45350942D01*
X93642857Y-45350942D02*
X93671428Y-45379514D01*
X93671428Y-45379514D02*
X93700000Y-45436657D01*
X93700000Y-45436657D02*
X93700000Y-45522371D01*
X93700000Y-45522371D02*
X93671428Y-45579514D01*
X93671428Y-45579514D02*
X93642857Y-45608085D01*
X93642857Y-45608085D02*
X93585714Y-45636657D01*
X93585714Y-45636657D02*
X93357143Y-45636657D01*
X93900000Y-45322371D02*
X94300000Y-45322371D01*
X94300000Y-45322371D02*
X94042857Y-45922371D01*
X87057143Y-55334871D02*
X87057143Y-54734871D01*
X87057143Y-54734871D02*
X87200000Y-54734871D01*
X87200000Y-54734871D02*
X87285714Y-54763442D01*
X87285714Y-54763442D02*
X87342857Y-54820585D01*
X87342857Y-54820585D02*
X87371428Y-54877728D01*
X87371428Y-54877728D02*
X87400000Y-54992014D01*
X87400000Y-54992014D02*
X87400000Y-55077728D01*
X87400000Y-55077728D02*
X87371428Y-55192014D01*
X87371428Y-55192014D02*
X87342857Y-55249157D01*
X87342857Y-55249157D02*
X87285714Y-55306300D01*
X87285714Y-55306300D02*
X87200000Y-55334871D01*
X87200000Y-55334871D02*
X87057143Y-55334871D01*
X87600000Y-54734871D02*
X87971428Y-54734871D01*
X87971428Y-54734871D02*
X87771428Y-54963442D01*
X87771428Y-54963442D02*
X87857143Y-54963442D01*
X87857143Y-54963442D02*
X87914286Y-54992014D01*
X87914286Y-54992014D02*
X87942857Y-55020585D01*
X87942857Y-55020585D02*
X87971428Y-55077728D01*
X87971428Y-55077728D02*
X87971428Y-55220585D01*
X87971428Y-55220585D02*
X87942857Y-55277728D01*
X87942857Y-55277728D02*
X87914286Y-55306300D01*
X87914286Y-55306300D02*
X87857143Y-55334871D01*
X87857143Y-55334871D02*
X87685714Y-55334871D01*
X87685714Y-55334871D02*
X87628571Y-55306300D01*
X87628571Y-55306300D02*
X87600000Y-55277728D01*
D11*
X78821851Y-61057142D02*
X79307565Y-61057142D01*
X79307565Y-61057142D02*
X79364708Y-61028571D01*
X79364708Y-61028571D02*
X79393280Y-61000000D01*
X79393280Y-61000000D02*
X79421851Y-60942857D01*
X79421851Y-60942857D02*
X79421851Y-60828571D01*
X79421851Y-60828571D02*
X79393280Y-60771428D01*
X79393280Y-60771428D02*
X79364708Y-60742857D01*
X79364708Y-60742857D02*
X79307565Y-60714285D01*
X79307565Y-60714285D02*
X78821851Y-60714285D01*
X78821851Y-60485714D02*
X78821851Y-60114286D01*
X78821851Y-60114286D02*
X79050422Y-60314286D01*
X79050422Y-60314286D02*
X79050422Y-60228571D01*
X79050422Y-60228571D02*
X79078994Y-60171429D01*
X79078994Y-60171429D02*
X79107565Y-60142857D01*
X79107565Y-60142857D02*
X79164708Y-60114286D01*
X79164708Y-60114286D02*
X79307565Y-60114286D01*
X79307565Y-60114286D02*
X79364708Y-60142857D01*
X79364708Y-60142857D02*
X79393280Y-60171429D01*
X79393280Y-60171429D02*
X79421851Y-60228571D01*
X79421851Y-60228571D02*
X79421851Y-60400000D01*
X79421851Y-60400000D02*
X79393280Y-60457143D01*
X79393280Y-60457143D02*
X79364708Y-60485714D01*
D12*
X93506450Y-44366391D02*
X93506450Y-44999698D01*
X93506450Y-44999698D02*
X93543704Y-45074204D01*
X93543704Y-45074204D02*
X93580957Y-45111458D01*
X93580957Y-45111458D02*
X93655464Y-45148711D01*
X93655464Y-45148711D02*
X93804477Y-45148711D01*
X93804477Y-45148711D02*
X93878984Y-45111458D01*
X93878984Y-45111458D02*
X93916237Y-45074204D01*
X93916237Y-45074204D02*
X93953490Y-44999698D01*
X93953490Y-44999698D02*
X93953490Y-44366391D01*
X94735810Y-45148711D02*
X94288770Y-45148711D01*
X94512290Y-45148711D02*
X94512290Y-44366391D01*
X94512290Y-44366391D02*
X94437783Y-44478151D01*
X94437783Y-44478151D02*
X94363277Y-44552658D01*
X94363277Y-44552658D02*
X94288770Y-44589911D01*
D13*
%TO.C,R1*%
X91887258Y-50122500D02*
X91412742Y-50122500D01*
X91887258Y-49077500D02*
X91412742Y-49077500D01*
%TO.C,C5*%
X91340000Y-47184420D02*
X91340000Y-47465580D01*
X92360000Y-47184420D02*
X92360000Y-47465580D01*
%TO.C,D1*%
X80765000Y-55912500D02*
X80765000Y-58197500D01*
X80765000Y-58197500D02*
X82235000Y-58197500D01*
X82235000Y-58197500D02*
X82235000Y-55912500D01*
%TO.C,R4*%
X82537742Y-51277500D02*
X83012258Y-51277500D01*
X82537742Y-52322500D02*
X83012258Y-52322500D01*
%TO.C,R10*%
X79477500Y-56462742D02*
X79477500Y-56937258D01*
X80522500Y-56462742D02*
X80522500Y-56937258D01*
%TO.C,R6*%
X90377500Y-55962742D02*
X90377500Y-56437258D01*
X91422500Y-55962742D02*
X91422500Y-56437258D01*
%TO.C,R9*%
X82477500Y-56937258D02*
X82477500Y-56462742D01*
X83522500Y-56937258D02*
X83522500Y-56462742D01*
%TO.C,C3*%
X88890000Y-56059420D02*
X88890000Y-56340580D01*
X89910000Y-56059420D02*
X89910000Y-56340580D01*
%TO.C,R2*%
X92277500Y-55962742D02*
X92277500Y-56437258D01*
X93322500Y-55962742D02*
X93322500Y-56437258D01*
%TO.C,R8*%
X83977500Y-56937258D02*
X83977500Y-56462742D01*
X85022500Y-56937258D02*
X85022500Y-56462742D01*
%TO.C,C4*%
X85840000Y-47184420D02*
X85840000Y-47465580D01*
X86860000Y-47184420D02*
X86860000Y-47465580D01*
%TO.C,C2*%
X85915580Y-51290000D02*
X85634420Y-51290000D01*
X85915580Y-52310000D02*
X85634420Y-52310000D01*
%TO.C,C1*%
X87165580Y-49090000D02*
X86884420Y-49090000D01*
X87165580Y-50110000D02*
X86884420Y-50110000D01*
%TO.C,D2*%
X85265000Y-55912500D02*
X85265000Y-58197500D01*
X85265000Y-58197500D02*
X86735000Y-58197500D01*
X86735000Y-58197500D02*
X86735000Y-55912500D01*
D14*
%TO.C,U2*%
X87411500Y-50650000D02*
X87411500Y-51361500D01*
X87411500Y-54450000D02*
X87411500Y-53738500D01*
X92788500Y-50650000D02*
X92788500Y-51361500D01*
X92788500Y-54450000D02*
X92788500Y-53738500D01*
D15*
X87700000Y-50350000D02*
G75*
G02*
X87500000Y-50350000I-100000J0D01*
G01*
X87500000Y-50350000D02*
G75*
G02*
X87700000Y-50350000I100000J0D01*
G01*
D13*
%TO.C,R5*%
X86012258Y-52777500D02*
X85537742Y-52777500D01*
X86012258Y-53822500D02*
X85537742Y-53822500D01*
%TO.C,R3*%
X82537742Y-52777500D02*
X83012258Y-52777500D01*
X82537742Y-53822500D02*
X83012258Y-53822500D01*
%TO.C,Y1*%
X88425000Y-46775000D02*
X89775000Y-46775000D01*
X88425000Y-48525000D02*
X89775000Y-48525000D01*
%TO.C,R7*%
X93277500Y-47087742D02*
X93277500Y-47562258D01*
X94322500Y-47087742D02*
X94322500Y-47562258D01*
%TO.C,D3*%
X86765000Y-55912500D02*
X86765000Y-58197500D01*
X86765000Y-58197500D02*
X88235000Y-58197500D01*
X88235000Y-58197500D02*
X88235000Y-55912500D01*
%TO.C,U3*%
X79575000Y-59337500D02*
X79575000Y-61087500D01*
X79575000Y-82837500D02*
X79575000Y-72837500D01*
X80325000Y-59337500D02*
X79575000Y-59337500D01*
X92325000Y-59337500D02*
X93075000Y-59337500D01*
X93075000Y-59337500D02*
X93075000Y-61087500D01*
X93075000Y-82837500D02*
X79575000Y-82837500D01*
X93075000Y-82837500D02*
X93075000Y-72837500D01*
X93425000Y-73337500D02*
X93425000Y-72837500D01*
X93925000Y-72837500D01*
X93425000Y-73337500D01*
G36*
X93425000Y-73337500D02*
G01*
X93425000Y-72837500D01*
X93925000Y-72837500D01*
X93425000Y-73337500D01*
G37*
D10*
%TO.C,U1*%
X95343400Y-63254500D02*
X95343400Y-46109500D01*
X97248400Y-65159500D02*
X111218400Y-65159500D01*
D14*
X99738400Y-44204500D02*
X99742128Y-43194228D01*
X100242128Y-42694500D02*
X108237400Y-42694500D01*
X108737400Y-43194500D02*
X108737400Y-44204500D01*
D10*
X111218400Y-44204500D02*
X97248400Y-44204500D01*
X113123400Y-63254500D02*
X113123400Y-46109500D01*
X95343400Y-46105500D02*
G75*
G02*
X97248400Y-44200500I1905001J-1D01*
G01*
X97248400Y-65159500D02*
G75*
G02*
X95343400Y-63254500I1J1905001D01*
G01*
D14*
X99742128Y-43194228D02*
G75*
G02*
X100242128Y-42694501I500018J-291D01*
G01*
X108237400Y-42694500D02*
G75*
G02*
X108737400Y-43194500I0J-500000D01*
G01*
D10*
X111218400Y-44204500D02*
G75*
G02*
X113123400Y-46109500I0J-1905000D01*
G01*
X113123400Y-63254500D02*
G75*
G02*
X111218400Y-65159500I-1905000J0D01*
G01*
D16*
X95385400Y-44620500D02*
G75*
G02*
X94881400Y-44620500I-252000J0D01*
G01*
X94881400Y-44620500D02*
G75*
G02*
X95385400Y-44620500I252000J0D01*
G01*
X96659400Y-45337500D02*
G75*
G02*
X96155400Y-45337500I-252000J0D01*
G01*
X96155400Y-45337500D02*
G75*
G02*
X96659400Y-45337500I252000J0D01*
G01*
%TD*%
M02*
