%TF.GenerationSoftware,KiCad,Pcbnew,9.0.5*%
%TF.CreationDate,2025-12-09T00:49:42+00:00*%
%TF.ProjectId,WaviTrack_v3_1,57617669-5472-4616-936b-5f76335f312e,2.1*%
%TF.SameCoordinates,Original*%
%TF.FileFunction,Drillmap*%
%TF.FilePolarity,Positive*%
%FSLAX45Y45*%
G04 Gerber Fmt 4.5, Leading zero omitted, Abs format (unit mm)*
G04 Created by KiCad (PCBNEW 9.0.5) date 2025-12-09 00:49:42*
%MOMM*%
%LPD*%
G01*
G04 APERTURE LIST*
%ADD10C,0.050000*%
%ADD11C,0.200000*%
%ADD12C,0.100000*%
%ADD13C,0.300000*%
G04 APERTURE END LIST*
D10*
X7836150Y-4401150D02*
X11436150Y-4401150D01*
X11436150Y-7251150D01*
X7836150Y-7251150D01*
X7836150Y-4401150D01*
X10650000Y-5750000D02*
G75*
G02*
X10700000Y-5800000I0J-50000D01*
G01*
X10100000Y-5750000D02*
X10650000Y-5750000D01*
X10700000Y-6250000D02*
G75*
G02*
X10650000Y-6300000I-50000J0D01*
G01*
X10650000Y-6300000D02*
X10100000Y-6300000D01*
X10700000Y-5800000D02*
X10700000Y-6250000D01*
X10100000Y-6300000D02*
G75*
G02*
X10050000Y-6250000I0J50000D01*
G01*
X10050000Y-6250000D02*
X10050000Y-5800000D01*
X10050000Y-5800000D02*
G75*
G02*
X10100000Y-5750000I50000J0D01*
G01*
D11*
D12*
X7985000Y-5835000D02*
X8015000Y-5865000D01*
X8015000Y-5835000D02*
X7985000Y-5865000D01*
X8085000Y-5165000D02*
X8115000Y-5195000D01*
X8115000Y-5165000D02*
X8085000Y-5195000D01*
X8085000Y-5315000D02*
X8115000Y-5345000D01*
X8115000Y-5315000D02*
X8085000Y-5345000D01*
X8185000Y-6195000D02*
X8215000Y-6225000D01*
X8215000Y-6195000D02*
X8185000Y-6225000D01*
X8185000Y-6335000D02*
X8215000Y-6365000D01*
X8215000Y-6335000D02*
X8185000Y-6365000D01*
X8185000Y-6475000D02*
X8215000Y-6505000D01*
X8215000Y-6475000D02*
X8185000Y-6505000D01*
X8185000Y-6615000D02*
X8215000Y-6645000D01*
X8215000Y-6615000D02*
X8185000Y-6645000D01*
X8185000Y-6895000D02*
X8215000Y-6925000D01*
X8215000Y-6895000D02*
X8185000Y-6925000D01*
X8225000Y-6265000D02*
X8255000Y-6295000D01*
X8255000Y-6265000D02*
X8225000Y-6295000D01*
X8225000Y-6405000D02*
X8255000Y-6435000D01*
X8255000Y-6405000D02*
X8225000Y-6435000D01*
X8225000Y-6545000D02*
X8255000Y-6575000D01*
X8255000Y-6545000D02*
X8225000Y-6575000D01*
X8225000Y-6685000D02*
X8255000Y-6715000D01*
X8255000Y-6685000D02*
X8225000Y-6715000D01*
X8225000Y-6825000D02*
X8255000Y-6855000D01*
X8255000Y-6825000D02*
X8225000Y-6855000D01*
X8235000Y-6985000D02*
X8265000Y-7015000D01*
X8265000Y-6985000D02*
X8235000Y-7015000D01*
X8235000Y-7135000D02*
X8265000Y-7165000D01*
X8265000Y-7135000D02*
X8235000Y-7165000D01*
X8360000Y-5675000D02*
X8390000Y-5705000D01*
X8390000Y-5675000D02*
X8360000Y-5705000D01*
X8385000Y-6185000D02*
X8415000Y-6215000D01*
X8415000Y-6185000D02*
X8385000Y-6215000D01*
X8385000Y-6785000D02*
X8415000Y-6815000D01*
X8415000Y-6785000D02*
X8385000Y-6815000D01*
X8385000Y-6985000D02*
X8415000Y-7015000D01*
X8415000Y-6985000D02*
X8385000Y-7015000D01*
X8385000Y-7135000D02*
X8415000Y-7165000D01*
X8415000Y-7135000D02*
X8385000Y-7165000D01*
X8415000Y-5408406D02*
X8445000Y-5438406D01*
X8445000Y-5408406D02*
X8415000Y-5438406D01*
X8432500Y-5055000D02*
X8462500Y-5085000D01*
X8462500Y-5055000D02*
X8432500Y-5085000D01*
X8535000Y-6185000D02*
X8565000Y-6215000D01*
X8565000Y-6185000D02*
X8535000Y-6215000D01*
X8535000Y-6335000D02*
X8565000Y-6365000D01*
X8565000Y-6335000D02*
X8535000Y-6365000D01*
X8535000Y-6985000D02*
X8565000Y-7015000D01*
X8565000Y-6985000D02*
X8535000Y-7015000D01*
X8535000Y-7135000D02*
X8565000Y-7165000D01*
X8565000Y-7135000D02*
X8535000Y-7165000D01*
X8665000Y-5055000D02*
X8695000Y-5085000D01*
X8695000Y-5055000D02*
X8665000Y-5085000D01*
X8685000Y-6185000D02*
X8715000Y-6215000D01*
X8715000Y-6185000D02*
X8685000Y-6215000D01*
X8685000Y-6335000D02*
X8715000Y-6365000D01*
X8715000Y-6335000D02*
X8685000Y-6365000D01*
X8685000Y-6485000D02*
X8715000Y-6515000D01*
X8715000Y-6485000D02*
X8685000Y-6515000D01*
X8685000Y-6985000D02*
X8715000Y-7015000D01*
X8715000Y-6985000D02*
X8685000Y-7015000D01*
X8685000Y-7135000D02*
X8715000Y-7165000D01*
X8715000Y-7135000D02*
X8685000Y-7165000D01*
X8831391Y-5682500D02*
X8861391Y-5712500D01*
X8861391Y-5682500D02*
X8831391Y-5712500D01*
X8835000Y-6185000D02*
X8865000Y-6215000D01*
X8865000Y-6185000D02*
X8835000Y-6215000D01*
X8835000Y-6335000D02*
X8865000Y-6365000D01*
X8865000Y-6335000D02*
X8835000Y-6365000D01*
X8835000Y-6485000D02*
X8865000Y-6515000D01*
X8865000Y-6485000D02*
X8835000Y-6515000D01*
X8835000Y-6985000D02*
X8865000Y-7015000D01*
X8865000Y-6985000D02*
X8835000Y-7015000D01*
X8835000Y-7135000D02*
X8865000Y-7165000D01*
X8865000Y-7135000D02*
X8835000Y-7165000D01*
X8915000Y-5195000D02*
X8945000Y-5225000D01*
X8945000Y-5195000D02*
X8915000Y-5225000D01*
X8915000Y-5285000D02*
X8945000Y-5315000D01*
X8945000Y-5285000D02*
X8915000Y-5315000D01*
X8982500Y-4945000D02*
X9012500Y-4975000D01*
X9012500Y-4945000D02*
X8982500Y-4975000D01*
X8985000Y-6185000D02*
X9015000Y-6215000D01*
X9015000Y-6185000D02*
X8985000Y-6215000D01*
X8985000Y-6335000D02*
X9015000Y-6365000D01*
X9015000Y-6335000D02*
X8985000Y-6365000D01*
X8985000Y-6485000D02*
X9015000Y-6515000D01*
X9015000Y-6485000D02*
X8985000Y-6515000D01*
X8985000Y-6985000D02*
X9015000Y-7015000D01*
X9015000Y-6985000D02*
X8985000Y-7015000D01*
X8985000Y-7135000D02*
X9015000Y-7165000D01*
X9015000Y-7135000D02*
X8985000Y-7165000D01*
X9075000Y-5195000D02*
X9105000Y-5225000D01*
X9105000Y-5195000D02*
X9075000Y-5225000D01*
X9075000Y-5285000D02*
X9105000Y-5315000D01*
X9105000Y-5285000D02*
X9075000Y-5315000D01*
X9265000Y-5775000D02*
X9295000Y-5805000D01*
X9295000Y-5775000D02*
X9265000Y-5805000D01*
X9265000Y-5965000D02*
X9295000Y-5995000D01*
X9295000Y-5965000D02*
X9265000Y-5995000D01*
X9302500Y-5315000D02*
X9332500Y-5345000D01*
X9332500Y-5315000D02*
X9302500Y-5345000D01*
X9302500Y-5395000D02*
X9332500Y-5425000D01*
X9332500Y-5395000D02*
X9302500Y-5425000D01*
X9405000Y-5025000D02*
X9435000Y-5055000D01*
X9435000Y-5025000D02*
X9405000Y-5055000D01*
X9405000Y-5125000D02*
X9435000Y-5155000D01*
X9435000Y-5125000D02*
X9405000Y-5155000D01*
X9475000Y-6475000D02*
X9505000Y-6505000D01*
X9505000Y-6475000D02*
X9475000Y-6505000D01*
X9477500Y-6865000D02*
X9507500Y-6895000D01*
X9507500Y-6865000D02*
X9477500Y-6895000D01*
X9565000Y-6475000D02*
X9595000Y-6505000D01*
X9595000Y-6475000D02*
X9565000Y-6505000D01*
X9665000Y-6375000D02*
X9695000Y-6405000D01*
X9695000Y-6375000D02*
X9665000Y-6405000D01*
X9775000Y-6375000D02*
X9805000Y-6405000D01*
X9805000Y-6375000D02*
X9775000Y-6405000D01*
X9810000Y-5335000D02*
X9840000Y-5365000D01*
X9840000Y-5335000D02*
X9810000Y-5365000D01*
X9835000Y-4535000D02*
X9865000Y-4565000D01*
X9865000Y-4535000D02*
X9835000Y-4565000D01*
X9835000Y-4735000D02*
X9865000Y-4765000D01*
X9865000Y-4735000D02*
X9835000Y-4765000D01*
X9845000Y-5205000D02*
X9875000Y-5235000D01*
X9875000Y-5205000D02*
X9845000Y-5235000D01*
X9845000Y-5465000D02*
X9875000Y-5495000D01*
X9875000Y-5465000D02*
X9845000Y-5495000D01*
X9875000Y-6375000D02*
X9905000Y-6405000D01*
X9905000Y-6375000D02*
X9875000Y-6405000D01*
X10035000Y-4535000D02*
X10065000Y-4565000D01*
X10065000Y-4535000D02*
X10035000Y-4565000D01*
X10035000Y-4735000D02*
X10065000Y-4765000D01*
X10065000Y-4735000D02*
X10035000Y-4765000D01*
X10110000Y-5235000D02*
X10140000Y-5265000D01*
X10140000Y-5235000D02*
X10110000Y-5265000D01*
X10110000Y-5510000D02*
X10140000Y-5540000D01*
X10140000Y-5510000D02*
X10110000Y-5540000D01*
X10185000Y-6435000D02*
X10215000Y-6465000D01*
X10215000Y-6435000D02*
X10185000Y-6465000D01*
X10410000Y-5510000D02*
X10440000Y-5540000D01*
X10440000Y-5510000D02*
X10410000Y-5540000D01*
X10535000Y-6375000D02*
X10565000Y-6405000D01*
X10565000Y-6375000D02*
X10535000Y-6405000D01*
X10660000Y-5610000D02*
X10690000Y-5640000D01*
X10690000Y-5610000D02*
X10660000Y-5640000D01*
X10705000Y-5205000D02*
X10735000Y-5235000D01*
X10735000Y-5205000D02*
X10705000Y-5235000D01*
X10735000Y-4535000D02*
X10765000Y-4565000D01*
X10765000Y-4535000D02*
X10735000Y-4565000D01*
X10735000Y-4735000D02*
X10765000Y-4765000D01*
X10765000Y-4735000D02*
X10735000Y-4765000D01*
X10735000Y-6575000D02*
X10765000Y-6605000D01*
X10765000Y-6575000D02*
X10735000Y-6605000D01*
X10760000Y-5510000D02*
X10790000Y-5540000D01*
X10790000Y-5510000D02*
X10760000Y-5540000D01*
X10860000Y-5410000D02*
X10890000Y-5440000D01*
X10890000Y-5410000D02*
X10860000Y-5440000D01*
X10885000Y-5205000D02*
X10915000Y-5235000D01*
X10915000Y-5205000D02*
X10885000Y-5235000D01*
X10935000Y-4535000D02*
X10965000Y-4565000D01*
X10965000Y-4535000D02*
X10935000Y-4565000D01*
X10935000Y-4735000D02*
X10965000Y-4765000D01*
X10965000Y-4735000D02*
X10935000Y-4765000D01*
X10935000Y-4935000D02*
X10965000Y-4965000D01*
X10965000Y-4935000D02*
X10935000Y-4965000D01*
X10985000Y-5205000D02*
X11015000Y-5235000D01*
X11015000Y-5205000D02*
X10985000Y-5235000D01*
X10985000Y-5335000D02*
X11015000Y-5365000D01*
X11015000Y-5335000D02*
X10985000Y-5365000D01*
X10985000Y-5459150D02*
X11015000Y-5489150D01*
X11015000Y-5459150D02*
X10985000Y-5489150D01*
X10985000Y-5585000D02*
X11015000Y-5615000D01*
X11015000Y-5585000D02*
X10985000Y-5615000D01*
X10985000Y-5713150D02*
X11015000Y-5743150D01*
X11015000Y-5713150D02*
X10985000Y-5743150D01*
X10985000Y-5840000D02*
X11015000Y-5870000D01*
X11015000Y-5840000D02*
X10985000Y-5870000D01*
X10985000Y-5967150D02*
X11015000Y-5997150D01*
X11015000Y-5967150D02*
X10985000Y-5997150D01*
X10985000Y-6095000D02*
X11015000Y-6125000D01*
X11015000Y-6095000D02*
X10985000Y-6125000D01*
X10985000Y-6225000D02*
X11015000Y-6255000D01*
X11015000Y-6225000D02*
X10985000Y-6255000D01*
D13*
X8360000Y-4775000D02*
G75*
G02*
X8060000Y-4775000I-150000J0D01*
G01*
X8060000Y-4775000D02*
G75*
G02*
X8360000Y-4775000I150000J0D01*
G01*
X11210000Y-6875000D02*
G75*
G02*
X10910000Y-6875000I-150000J0D01*
G01*
X10910000Y-6875000D02*
G75*
G02*
X11210000Y-6875000I150000J0D01*
G01*
D11*
X8094427Y-7565134D02*
X8094427Y-7365134D01*
X8094427Y-7365134D02*
X8142046Y-7365134D01*
X8142046Y-7365134D02*
X8170617Y-7374658D01*
X8170617Y-7374658D02*
X8189665Y-7393705D01*
X8189665Y-7393705D02*
X8199189Y-7412753D01*
X8199189Y-7412753D02*
X8208712Y-7450848D01*
X8208712Y-7450848D02*
X8208712Y-7479419D01*
X8208712Y-7479419D02*
X8199189Y-7517515D01*
X8199189Y-7517515D02*
X8189665Y-7536562D01*
X8189665Y-7536562D02*
X8170617Y-7555610D01*
X8170617Y-7555610D02*
X8142046Y-7565134D01*
X8142046Y-7565134D02*
X8094427Y-7565134D01*
X8294427Y-7565134D02*
X8294427Y-7431800D01*
X8294427Y-7469896D02*
X8303951Y-7450848D01*
X8303951Y-7450848D02*
X8313474Y-7441324D01*
X8313474Y-7441324D02*
X8332522Y-7431800D01*
X8332522Y-7431800D02*
X8351570Y-7431800D01*
X8418236Y-7565134D02*
X8418236Y-7431800D01*
X8418236Y-7365134D02*
X8408713Y-7374658D01*
X8408713Y-7374658D02*
X8418236Y-7384181D01*
X8418236Y-7384181D02*
X8427760Y-7374658D01*
X8427760Y-7374658D02*
X8418236Y-7365134D01*
X8418236Y-7365134D02*
X8418236Y-7384181D01*
X8542046Y-7565134D02*
X8522998Y-7555610D01*
X8522998Y-7555610D02*
X8513474Y-7536562D01*
X8513474Y-7536562D02*
X8513474Y-7365134D01*
X8646808Y-7565134D02*
X8627760Y-7555610D01*
X8627760Y-7555610D02*
X8618236Y-7536562D01*
X8618236Y-7536562D02*
X8618236Y-7365134D01*
X8875379Y-7565134D02*
X8875379Y-7365134D01*
X8875379Y-7365134D02*
X8942046Y-7507991D01*
X8942046Y-7507991D02*
X9008713Y-7365134D01*
X9008713Y-7365134D02*
X9008713Y-7565134D01*
X9189665Y-7565134D02*
X9189665Y-7460372D01*
X9189665Y-7460372D02*
X9180141Y-7441324D01*
X9180141Y-7441324D02*
X9161094Y-7431800D01*
X9161094Y-7431800D02*
X9122998Y-7431800D01*
X9122998Y-7431800D02*
X9103951Y-7441324D01*
X9189665Y-7555610D02*
X9170617Y-7565134D01*
X9170617Y-7565134D02*
X9122998Y-7565134D01*
X9122998Y-7565134D02*
X9103951Y-7555610D01*
X9103951Y-7555610D02*
X9094427Y-7536562D01*
X9094427Y-7536562D02*
X9094427Y-7517515D01*
X9094427Y-7517515D02*
X9103951Y-7498467D01*
X9103951Y-7498467D02*
X9122998Y-7488943D01*
X9122998Y-7488943D02*
X9170617Y-7488943D01*
X9170617Y-7488943D02*
X9189665Y-7479419D01*
X9284903Y-7431800D02*
X9284903Y-7631800D01*
X9284903Y-7441324D02*
X9303951Y-7431800D01*
X9303951Y-7431800D02*
X9342046Y-7431800D01*
X9342046Y-7431800D02*
X9361094Y-7441324D01*
X9361094Y-7441324D02*
X9370617Y-7450848D01*
X9370617Y-7450848D02*
X9380141Y-7469896D01*
X9380141Y-7469896D02*
X9380141Y-7527038D01*
X9380141Y-7527038D02*
X9370617Y-7546086D01*
X9370617Y-7546086D02*
X9361094Y-7555610D01*
X9361094Y-7555610D02*
X9342046Y-7565134D01*
X9342046Y-7565134D02*
X9303951Y-7565134D01*
X9303951Y-7565134D02*
X9284903Y-7555610D01*
X9465855Y-7546086D02*
X9475379Y-7555610D01*
X9475379Y-7555610D02*
X9465855Y-7565134D01*
X9465855Y-7565134D02*
X9456332Y-7555610D01*
X9456332Y-7555610D02*
X9465855Y-7546086D01*
X9465855Y-7546086D02*
X9465855Y-7565134D01*
X9465855Y-7441324D02*
X9475379Y-7450848D01*
X9475379Y-7450848D02*
X9465855Y-7460372D01*
X9465855Y-7460372D02*
X9456332Y-7450848D01*
X9456332Y-7450848D02*
X9465855Y-7441324D01*
X9465855Y-7441324D02*
X9465855Y-7460372D01*
D12*
X7803650Y-7878650D02*
X7833650Y-7908650D01*
X7833650Y-7878650D02*
X7803650Y-7908650D01*
D11*
X8132522Y-7785134D02*
X8151570Y-7785134D01*
X8151570Y-7785134D02*
X8170617Y-7794658D01*
X8170617Y-7794658D02*
X8180141Y-7804181D01*
X8180141Y-7804181D02*
X8189665Y-7823229D01*
X8189665Y-7823229D02*
X8199189Y-7861324D01*
X8199189Y-7861324D02*
X8199189Y-7908943D01*
X8199189Y-7908943D02*
X8189665Y-7947038D01*
X8189665Y-7947038D02*
X8180141Y-7966086D01*
X8180141Y-7966086D02*
X8170617Y-7975610D01*
X8170617Y-7975610D02*
X8151570Y-7985134D01*
X8151570Y-7985134D02*
X8132522Y-7985134D01*
X8132522Y-7985134D02*
X8113474Y-7975610D01*
X8113474Y-7975610D02*
X8103951Y-7966086D01*
X8103951Y-7966086D02*
X8094427Y-7947038D01*
X8094427Y-7947038D02*
X8084903Y-7908943D01*
X8084903Y-7908943D02*
X8084903Y-7861324D01*
X8084903Y-7861324D02*
X8094427Y-7823229D01*
X8094427Y-7823229D02*
X8103951Y-7804181D01*
X8103951Y-7804181D02*
X8113474Y-7794658D01*
X8113474Y-7794658D02*
X8132522Y-7785134D01*
X8284903Y-7966086D02*
X8294427Y-7975610D01*
X8294427Y-7975610D02*
X8284903Y-7985134D01*
X8284903Y-7985134D02*
X8275379Y-7975610D01*
X8275379Y-7975610D02*
X8284903Y-7966086D01*
X8284903Y-7966086D02*
X8284903Y-7985134D01*
X8361093Y-7785134D02*
X8484903Y-7785134D01*
X8484903Y-7785134D02*
X8418236Y-7861324D01*
X8418236Y-7861324D02*
X8446808Y-7861324D01*
X8446808Y-7861324D02*
X8465855Y-7870848D01*
X8465855Y-7870848D02*
X8475379Y-7880372D01*
X8475379Y-7880372D02*
X8484903Y-7899419D01*
X8484903Y-7899419D02*
X8484903Y-7947038D01*
X8484903Y-7947038D02*
X8475379Y-7966086D01*
X8475379Y-7966086D02*
X8465855Y-7975610D01*
X8465855Y-7975610D02*
X8446808Y-7985134D01*
X8446808Y-7985134D02*
X8389665Y-7985134D01*
X8389665Y-7985134D02*
X8370617Y-7975610D01*
X8370617Y-7975610D02*
X8361093Y-7966086D01*
X8608713Y-7785134D02*
X8627760Y-7785134D01*
X8627760Y-7785134D02*
X8646808Y-7794658D01*
X8646808Y-7794658D02*
X8656332Y-7804181D01*
X8656332Y-7804181D02*
X8665855Y-7823229D01*
X8665855Y-7823229D02*
X8675379Y-7861324D01*
X8675379Y-7861324D02*
X8675379Y-7908943D01*
X8675379Y-7908943D02*
X8665855Y-7947038D01*
X8665855Y-7947038D02*
X8656332Y-7966086D01*
X8656332Y-7966086D02*
X8646808Y-7975610D01*
X8646808Y-7975610D02*
X8627760Y-7985134D01*
X8627760Y-7985134D02*
X8608713Y-7985134D01*
X8608713Y-7985134D02*
X8589665Y-7975610D01*
X8589665Y-7975610D02*
X8580141Y-7966086D01*
X8580141Y-7966086D02*
X8570617Y-7947038D01*
X8570617Y-7947038D02*
X8561094Y-7908943D01*
X8561094Y-7908943D02*
X8561094Y-7861324D01*
X8561094Y-7861324D02*
X8570617Y-7823229D01*
X8570617Y-7823229D02*
X8580141Y-7804181D01*
X8580141Y-7804181D02*
X8589665Y-7794658D01*
X8589665Y-7794658D02*
X8608713Y-7785134D01*
X8799189Y-7785134D02*
X8818236Y-7785134D01*
X8818236Y-7785134D02*
X8837284Y-7794658D01*
X8837284Y-7794658D02*
X8846808Y-7804181D01*
X8846808Y-7804181D02*
X8856332Y-7823229D01*
X8856332Y-7823229D02*
X8865855Y-7861324D01*
X8865855Y-7861324D02*
X8865855Y-7908943D01*
X8865855Y-7908943D02*
X8856332Y-7947038D01*
X8856332Y-7947038D02*
X8846808Y-7966086D01*
X8846808Y-7966086D02*
X8837284Y-7975610D01*
X8837284Y-7975610D02*
X8818236Y-7985134D01*
X8818236Y-7985134D02*
X8799189Y-7985134D01*
X8799189Y-7985134D02*
X8780141Y-7975610D01*
X8780141Y-7975610D02*
X8770617Y-7966086D01*
X8770617Y-7966086D02*
X8761094Y-7947038D01*
X8761094Y-7947038D02*
X8751570Y-7908943D01*
X8751570Y-7908943D02*
X8751570Y-7861324D01*
X8751570Y-7861324D02*
X8761094Y-7823229D01*
X8761094Y-7823229D02*
X8770617Y-7804181D01*
X8770617Y-7804181D02*
X8780141Y-7794658D01*
X8780141Y-7794658D02*
X8799189Y-7785134D01*
X8951570Y-7985134D02*
X8951570Y-7851800D01*
X8951570Y-7870848D02*
X8961094Y-7861324D01*
X8961094Y-7861324D02*
X8980141Y-7851800D01*
X8980141Y-7851800D02*
X9008713Y-7851800D01*
X9008713Y-7851800D02*
X9027760Y-7861324D01*
X9027760Y-7861324D02*
X9037284Y-7880372D01*
X9037284Y-7880372D02*
X9037284Y-7985134D01*
X9037284Y-7880372D02*
X9046808Y-7861324D01*
X9046808Y-7861324D02*
X9065855Y-7851800D01*
X9065855Y-7851800D02*
X9094427Y-7851800D01*
X9094427Y-7851800D02*
X9113475Y-7861324D01*
X9113475Y-7861324D02*
X9122998Y-7880372D01*
X9122998Y-7880372D02*
X9122998Y-7985134D01*
X9218236Y-7985134D02*
X9218236Y-7851800D01*
X9218236Y-7870848D02*
X9227760Y-7861324D01*
X9227760Y-7861324D02*
X9246808Y-7851800D01*
X9246808Y-7851800D02*
X9275379Y-7851800D01*
X9275379Y-7851800D02*
X9294427Y-7861324D01*
X9294427Y-7861324D02*
X9303951Y-7880372D01*
X9303951Y-7880372D02*
X9303951Y-7985134D01*
X9303951Y-7880372D02*
X9313475Y-7861324D01*
X9313475Y-7861324D02*
X9332522Y-7851800D01*
X9332522Y-7851800D02*
X9361094Y-7851800D01*
X9361094Y-7851800D02*
X9380141Y-7861324D01*
X9380141Y-7861324D02*
X9389665Y-7880372D01*
X9389665Y-7880372D02*
X9389665Y-7985134D01*
X9780141Y-7775610D02*
X9608713Y-8032753D01*
X10037284Y-7785134D02*
X10056332Y-7785134D01*
X10056332Y-7785134D02*
X10075379Y-7794658D01*
X10075379Y-7794658D02*
X10084903Y-7804181D01*
X10084903Y-7804181D02*
X10094427Y-7823229D01*
X10094427Y-7823229D02*
X10103951Y-7861324D01*
X10103951Y-7861324D02*
X10103951Y-7908943D01*
X10103951Y-7908943D02*
X10094427Y-7947038D01*
X10094427Y-7947038D02*
X10084903Y-7966086D01*
X10084903Y-7966086D02*
X10075379Y-7975610D01*
X10075379Y-7975610D02*
X10056332Y-7985134D01*
X10056332Y-7985134D02*
X10037284Y-7985134D01*
X10037284Y-7985134D02*
X10018237Y-7975610D01*
X10018237Y-7975610D02*
X10008713Y-7966086D01*
X10008713Y-7966086D02*
X9999189Y-7947038D01*
X9999189Y-7947038D02*
X9989665Y-7908943D01*
X9989665Y-7908943D02*
X9989665Y-7861324D01*
X9989665Y-7861324D02*
X9999189Y-7823229D01*
X9999189Y-7823229D02*
X10008713Y-7804181D01*
X10008713Y-7804181D02*
X10018237Y-7794658D01*
X10018237Y-7794658D02*
X10037284Y-7785134D01*
X10189665Y-7966086D02*
X10199189Y-7975610D01*
X10199189Y-7975610D02*
X10189665Y-7985134D01*
X10189665Y-7985134D02*
X10180141Y-7975610D01*
X10180141Y-7975610D02*
X10189665Y-7966086D01*
X10189665Y-7966086D02*
X10189665Y-7985134D01*
X10322998Y-7785134D02*
X10342046Y-7785134D01*
X10342046Y-7785134D02*
X10361094Y-7794658D01*
X10361094Y-7794658D02*
X10370618Y-7804181D01*
X10370618Y-7804181D02*
X10380141Y-7823229D01*
X10380141Y-7823229D02*
X10389665Y-7861324D01*
X10389665Y-7861324D02*
X10389665Y-7908943D01*
X10389665Y-7908943D02*
X10380141Y-7947038D01*
X10380141Y-7947038D02*
X10370618Y-7966086D01*
X10370618Y-7966086D02*
X10361094Y-7975610D01*
X10361094Y-7975610D02*
X10342046Y-7985134D01*
X10342046Y-7985134D02*
X10322998Y-7985134D01*
X10322998Y-7985134D02*
X10303951Y-7975610D01*
X10303951Y-7975610D02*
X10294427Y-7966086D01*
X10294427Y-7966086D02*
X10284903Y-7947038D01*
X10284903Y-7947038D02*
X10275379Y-7908943D01*
X10275379Y-7908943D02*
X10275379Y-7861324D01*
X10275379Y-7861324D02*
X10284903Y-7823229D01*
X10284903Y-7823229D02*
X10294427Y-7804181D01*
X10294427Y-7804181D02*
X10303951Y-7794658D01*
X10303951Y-7794658D02*
X10322998Y-7785134D01*
X10580141Y-7985134D02*
X10465856Y-7985134D01*
X10522998Y-7985134D02*
X10522998Y-7785134D01*
X10522998Y-7785134D02*
X10503951Y-7813705D01*
X10503951Y-7813705D02*
X10484903Y-7832753D01*
X10484903Y-7832753D02*
X10465856Y-7842277D01*
X10770618Y-7985134D02*
X10656332Y-7985134D01*
X10713475Y-7985134D02*
X10713475Y-7785134D01*
X10713475Y-7785134D02*
X10694427Y-7813705D01*
X10694427Y-7813705D02*
X10675379Y-7832753D01*
X10675379Y-7832753D02*
X10656332Y-7842277D01*
X10884903Y-7870848D02*
X10865856Y-7861324D01*
X10865856Y-7861324D02*
X10856332Y-7851800D01*
X10856332Y-7851800D02*
X10846808Y-7832753D01*
X10846808Y-7832753D02*
X10846808Y-7823229D01*
X10846808Y-7823229D02*
X10856332Y-7804181D01*
X10856332Y-7804181D02*
X10865856Y-7794658D01*
X10865856Y-7794658D02*
X10884903Y-7785134D01*
X10884903Y-7785134D02*
X10922999Y-7785134D01*
X10922999Y-7785134D02*
X10942046Y-7794658D01*
X10942046Y-7794658D02*
X10951570Y-7804181D01*
X10951570Y-7804181D02*
X10961094Y-7823229D01*
X10961094Y-7823229D02*
X10961094Y-7832753D01*
X10961094Y-7832753D02*
X10951570Y-7851800D01*
X10951570Y-7851800D02*
X10942046Y-7861324D01*
X10942046Y-7861324D02*
X10922999Y-7870848D01*
X10922999Y-7870848D02*
X10884903Y-7870848D01*
X10884903Y-7870848D02*
X10865856Y-7880372D01*
X10865856Y-7880372D02*
X10856332Y-7889896D01*
X10856332Y-7889896D02*
X10846808Y-7908943D01*
X10846808Y-7908943D02*
X10846808Y-7947038D01*
X10846808Y-7947038D02*
X10856332Y-7966086D01*
X10856332Y-7966086D02*
X10865856Y-7975610D01*
X10865856Y-7975610D02*
X10884903Y-7985134D01*
X10884903Y-7985134D02*
X10922999Y-7985134D01*
X10922999Y-7985134D02*
X10942046Y-7975610D01*
X10942046Y-7975610D02*
X10951570Y-7966086D01*
X10951570Y-7966086D02*
X10961094Y-7947038D01*
X10961094Y-7947038D02*
X10961094Y-7908943D01*
X10961094Y-7908943D02*
X10951570Y-7889896D01*
X10951570Y-7889896D02*
X10942046Y-7880372D01*
X10942046Y-7880372D02*
X10922999Y-7870848D01*
X11037284Y-7785134D02*
X11037284Y-7823229D01*
X11113475Y-7785134D02*
X11113475Y-7823229D01*
X11408713Y-8061324D02*
X11399189Y-8051800D01*
X11399189Y-8051800D02*
X11380141Y-8023229D01*
X11380141Y-8023229D02*
X11370618Y-8004181D01*
X11370618Y-8004181D02*
X11361094Y-7975610D01*
X11361094Y-7975610D02*
X11351570Y-7927991D01*
X11351570Y-7927991D02*
X11351570Y-7889896D01*
X11351570Y-7889896D02*
X11361094Y-7842277D01*
X11361094Y-7842277D02*
X11370618Y-7813705D01*
X11370618Y-7813705D02*
X11380141Y-7794658D01*
X11380141Y-7794658D02*
X11399189Y-7766086D01*
X11399189Y-7766086D02*
X11408713Y-7756562D01*
X11494427Y-7985134D02*
X11532522Y-7985134D01*
X11532522Y-7985134D02*
X11551570Y-7975610D01*
X11551570Y-7975610D02*
X11561094Y-7966086D01*
X11561094Y-7966086D02*
X11580141Y-7937515D01*
X11580141Y-7937515D02*
X11589665Y-7899419D01*
X11589665Y-7899419D02*
X11589665Y-7823229D01*
X11589665Y-7823229D02*
X11580141Y-7804181D01*
X11580141Y-7804181D02*
X11570618Y-7794658D01*
X11570618Y-7794658D02*
X11551570Y-7785134D01*
X11551570Y-7785134D02*
X11513475Y-7785134D01*
X11513475Y-7785134D02*
X11494427Y-7794658D01*
X11494427Y-7794658D02*
X11484903Y-7804181D01*
X11484903Y-7804181D02*
X11475379Y-7823229D01*
X11475379Y-7823229D02*
X11475379Y-7870848D01*
X11475379Y-7870848D02*
X11484903Y-7889896D01*
X11484903Y-7889896D02*
X11494427Y-7899419D01*
X11494427Y-7899419D02*
X11513475Y-7908943D01*
X11513475Y-7908943D02*
X11551570Y-7908943D01*
X11551570Y-7908943D02*
X11570618Y-7899419D01*
X11570618Y-7899419D02*
X11580141Y-7889896D01*
X11580141Y-7889896D02*
X11589665Y-7870848D01*
X11665856Y-7804181D02*
X11675379Y-7794658D01*
X11675379Y-7794658D02*
X11694427Y-7785134D01*
X11694427Y-7785134D02*
X11742046Y-7785134D01*
X11742046Y-7785134D02*
X11761094Y-7794658D01*
X11761094Y-7794658D02*
X11770618Y-7804181D01*
X11770618Y-7804181D02*
X11780141Y-7823229D01*
X11780141Y-7823229D02*
X11780141Y-7842277D01*
X11780141Y-7842277D02*
X11770618Y-7870848D01*
X11770618Y-7870848D02*
X11656332Y-7985134D01*
X11656332Y-7985134D02*
X11780141Y-7985134D01*
X12018237Y-7985134D02*
X12018237Y-7785134D01*
X12103951Y-7985134D02*
X12103951Y-7880372D01*
X12103951Y-7880372D02*
X12094427Y-7861324D01*
X12094427Y-7861324D02*
X12075380Y-7851800D01*
X12075380Y-7851800D02*
X12046808Y-7851800D01*
X12046808Y-7851800D02*
X12027760Y-7861324D01*
X12027760Y-7861324D02*
X12018237Y-7870848D01*
X12227760Y-7985134D02*
X12208713Y-7975610D01*
X12208713Y-7975610D02*
X12199189Y-7966086D01*
X12199189Y-7966086D02*
X12189665Y-7947038D01*
X12189665Y-7947038D02*
X12189665Y-7889896D01*
X12189665Y-7889896D02*
X12199189Y-7870848D01*
X12199189Y-7870848D02*
X12208713Y-7861324D01*
X12208713Y-7861324D02*
X12227760Y-7851800D01*
X12227760Y-7851800D02*
X12256332Y-7851800D01*
X12256332Y-7851800D02*
X12275380Y-7861324D01*
X12275380Y-7861324D02*
X12284903Y-7870848D01*
X12284903Y-7870848D02*
X12294427Y-7889896D01*
X12294427Y-7889896D02*
X12294427Y-7947038D01*
X12294427Y-7947038D02*
X12284903Y-7966086D01*
X12284903Y-7966086D02*
X12275380Y-7975610D01*
X12275380Y-7975610D02*
X12256332Y-7985134D01*
X12256332Y-7985134D02*
X12227760Y-7985134D01*
X12408713Y-7985134D02*
X12389665Y-7975610D01*
X12389665Y-7975610D02*
X12380141Y-7956562D01*
X12380141Y-7956562D02*
X12380141Y-7785134D01*
X12561094Y-7975610D02*
X12542046Y-7985134D01*
X12542046Y-7985134D02*
X12503951Y-7985134D01*
X12503951Y-7985134D02*
X12484903Y-7975610D01*
X12484903Y-7975610D02*
X12475380Y-7956562D01*
X12475380Y-7956562D02*
X12475380Y-7880372D01*
X12475380Y-7880372D02*
X12484903Y-7861324D01*
X12484903Y-7861324D02*
X12503951Y-7851800D01*
X12503951Y-7851800D02*
X12542046Y-7851800D01*
X12542046Y-7851800D02*
X12561094Y-7861324D01*
X12561094Y-7861324D02*
X12570618Y-7880372D01*
X12570618Y-7880372D02*
X12570618Y-7899419D01*
X12570618Y-7899419D02*
X12475380Y-7918467D01*
X12646808Y-7975610D02*
X12665856Y-7985134D01*
X12665856Y-7985134D02*
X12703951Y-7985134D01*
X12703951Y-7985134D02*
X12722999Y-7975610D01*
X12722999Y-7975610D02*
X12732522Y-7956562D01*
X12732522Y-7956562D02*
X12732522Y-7947038D01*
X12732522Y-7947038D02*
X12722999Y-7927991D01*
X12722999Y-7927991D02*
X12703951Y-7918467D01*
X12703951Y-7918467D02*
X12675380Y-7918467D01*
X12675380Y-7918467D02*
X12656332Y-7908943D01*
X12656332Y-7908943D02*
X12646808Y-7889896D01*
X12646808Y-7889896D02*
X12646808Y-7880372D01*
X12646808Y-7880372D02*
X12656332Y-7861324D01*
X12656332Y-7861324D02*
X12675380Y-7851800D01*
X12675380Y-7851800D02*
X12703951Y-7851800D01*
X12703951Y-7851800D02*
X12722999Y-7861324D01*
X12799189Y-8061324D02*
X12808713Y-8051800D01*
X12808713Y-8051800D02*
X12827761Y-8023229D01*
X12827761Y-8023229D02*
X12837284Y-8004181D01*
X12837284Y-8004181D02*
X12846808Y-7975610D01*
X12846808Y-7975610D02*
X12856332Y-7927991D01*
X12856332Y-7927991D02*
X12856332Y-7889896D01*
X12856332Y-7889896D02*
X12846808Y-7842277D01*
X12846808Y-7842277D02*
X12837284Y-7813705D01*
X12837284Y-7813705D02*
X12827761Y-7794658D01*
X12827761Y-7794658D02*
X12808713Y-7766086D01*
X12808713Y-7766086D02*
X12799189Y-7756562D01*
X7833650Y-8157650D02*
G75*
G02*
X7633650Y-8157650I-100000J0D01*
G01*
X7633650Y-8157650D02*
G75*
G02*
X7833650Y-8157650I100000J0D01*
G01*
X8075379Y-8049134D02*
X8199189Y-8049134D01*
X8199189Y-8049134D02*
X8132522Y-8125324D01*
X8132522Y-8125324D02*
X8161093Y-8125324D01*
X8161093Y-8125324D02*
X8180141Y-8134848D01*
X8180141Y-8134848D02*
X8189665Y-8144372D01*
X8189665Y-8144372D02*
X8199189Y-8163419D01*
X8199189Y-8163419D02*
X8199189Y-8211038D01*
X8199189Y-8211038D02*
X8189665Y-8230086D01*
X8189665Y-8230086D02*
X8180141Y-8239610D01*
X8180141Y-8239610D02*
X8161093Y-8249134D01*
X8161093Y-8249134D02*
X8103951Y-8249134D01*
X8103951Y-8249134D02*
X8084903Y-8239610D01*
X8084903Y-8239610D02*
X8075379Y-8230086D01*
X8284903Y-8230086D02*
X8294427Y-8239610D01*
X8294427Y-8239610D02*
X8284903Y-8249134D01*
X8284903Y-8249134D02*
X8275379Y-8239610D01*
X8275379Y-8239610D02*
X8284903Y-8230086D01*
X8284903Y-8230086D02*
X8284903Y-8249134D01*
X8418236Y-8049134D02*
X8437284Y-8049134D01*
X8437284Y-8049134D02*
X8456332Y-8058658D01*
X8456332Y-8058658D02*
X8465855Y-8068181D01*
X8465855Y-8068181D02*
X8475379Y-8087229D01*
X8475379Y-8087229D02*
X8484903Y-8125324D01*
X8484903Y-8125324D02*
X8484903Y-8172943D01*
X8484903Y-8172943D02*
X8475379Y-8211038D01*
X8475379Y-8211038D02*
X8465855Y-8230086D01*
X8465855Y-8230086D02*
X8456332Y-8239610D01*
X8456332Y-8239610D02*
X8437284Y-8249134D01*
X8437284Y-8249134D02*
X8418236Y-8249134D01*
X8418236Y-8249134D02*
X8399189Y-8239610D01*
X8399189Y-8239610D02*
X8389665Y-8230086D01*
X8389665Y-8230086D02*
X8380141Y-8211038D01*
X8380141Y-8211038D02*
X8370617Y-8172943D01*
X8370617Y-8172943D02*
X8370617Y-8125324D01*
X8370617Y-8125324D02*
X8380141Y-8087229D01*
X8380141Y-8087229D02*
X8389665Y-8068181D01*
X8389665Y-8068181D02*
X8399189Y-8058658D01*
X8399189Y-8058658D02*
X8418236Y-8049134D01*
X8608713Y-8049134D02*
X8627760Y-8049134D01*
X8627760Y-8049134D02*
X8646808Y-8058658D01*
X8646808Y-8058658D02*
X8656332Y-8068181D01*
X8656332Y-8068181D02*
X8665855Y-8087229D01*
X8665855Y-8087229D02*
X8675379Y-8125324D01*
X8675379Y-8125324D02*
X8675379Y-8172943D01*
X8675379Y-8172943D02*
X8665855Y-8211038D01*
X8665855Y-8211038D02*
X8656332Y-8230086D01*
X8656332Y-8230086D02*
X8646808Y-8239610D01*
X8646808Y-8239610D02*
X8627760Y-8249134D01*
X8627760Y-8249134D02*
X8608713Y-8249134D01*
X8608713Y-8249134D02*
X8589665Y-8239610D01*
X8589665Y-8239610D02*
X8580141Y-8230086D01*
X8580141Y-8230086D02*
X8570617Y-8211038D01*
X8570617Y-8211038D02*
X8561094Y-8172943D01*
X8561094Y-8172943D02*
X8561094Y-8125324D01*
X8561094Y-8125324D02*
X8570617Y-8087229D01*
X8570617Y-8087229D02*
X8580141Y-8068181D01*
X8580141Y-8068181D02*
X8589665Y-8058658D01*
X8589665Y-8058658D02*
X8608713Y-8049134D01*
X8799189Y-8049134D02*
X8818236Y-8049134D01*
X8818236Y-8049134D02*
X8837284Y-8058658D01*
X8837284Y-8058658D02*
X8846808Y-8068181D01*
X8846808Y-8068181D02*
X8856332Y-8087229D01*
X8856332Y-8087229D02*
X8865855Y-8125324D01*
X8865855Y-8125324D02*
X8865855Y-8172943D01*
X8865855Y-8172943D02*
X8856332Y-8211038D01*
X8856332Y-8211038D02*
X8846808Y-8230086D01*
X8846808Y-8230086D02*
X8837284Y-8239610D01*
X8837284Y-8239610D02*
X8818236Y-8249134D01*
X8818236Y-8249134D02*
X8799189Y-8249134D01*
X8799189Y-8249134D02*
X8780141Y-8239610D01*
X8780141Y-8239610D02*
X8770617Y-8230086D01*
X8770617Y-8230086D02*
X8761094Y-8211038D01*
X8761094Y-8211038D02*
X8751570Y-8172943D01*
X8751570Y-8172943D02*
X8751570Y-8125324D01*
X8751570Y-8125324D02*
X8761094Y-8087229D01*
X8761094Y-8087229D02*
X8770617Y-8068181D01*
X8770617Y-8068181D02*
X8780141Y-8058658D01*
X8780141Y-8058658D02*
X8799189Y-8049134D01*
X8951570Y-8249134D02*
X8951570Y-8115800D01*
X8951570Y-8134848D02*
X8961094Y-8125324D01*
X8961094Y-8125324D02*
X8980141Y-8115800D01*
X8980141Y-8115800D02*
X9008713Y-8115800D01*
X9008713Y-8115800D02*
X9027760Y-8125324D01*
X9027760Y-8125324D02*
X9037284Y-8144372D01*
X9037284Y-8144372D02*
X9037284Y-8249134D01*
X9037284Y-8144372D02*
X9046808Y-8125324D01*
X9046808Y-8125324D02*
X9065855Y-8115800D01*
X9065855Y-8115800D02*
X9094427Y-8115800D01*
X9094427Y-8115800D02*
X9113475Y-8125324D01*
X9113475Y-8125324D02*
X9122998Y-8144372D01*
X9122998Y-8144372D02*
X9122998Y-8249134D01*
X9218236Y-8249134D02*
X9218236Y-8115800D01*
X9218236Y-8134848D02*
X9227760Y-8125324D01*
X9227760Y-8125324D02*
X9246808Y-8115800D01*
X9246808Y-8115800D02*
X9275379Y-8115800D01*
X9275379Y-8115800D02*
X9294427Y-8125324D01*
X9294427Y-8125324D02*
X9303951Y-8144372D01*
X9303951Y-8144372D02*
X9303951Y-8249134D01*
X9303951Y-8144372D02*
X9313475Y-8125324D01*
X9313475Y-8125324D02*
X9332522Y-8115800D01*
X9332522Y-8115800D02*
X9361094Y-8115800D01*
X9361094Y-8115800D02*
X9380141Y-8125324D01*
X9380141Y-8125324D02*
X9389665Y-8144372D01*
X9389665Y-8144372D02*
X9389665Y-8249134D01*
X9780141Y-8039610D02*
X9608713Y-8296753D01*
X10037284Y-8049134D02*
X10056332Y-8049134D01*
X10056332Y-8049134D02*
X10075379Y-8058658D01*
X10075379Y-8058658D02*
X10084903Y-8068181D01*
X10084903Y-8068181D02*
X10094427Y-8087229D01*
X10094427Y-8087229D02*
X10103951Y-8125324D01*
X10103951Y-8125324D02*
X10103951Y-8172943D01*
X10103951Y-8172943D02*
X10094427Y-8211038D01*
X10094427Y-8211038D02*
X10084903Y-8230086D01*
X10084903Y-8230086D02*
X10075379Y-8239610D01*
X10075379Y-8239610D02*
X10056332Y-8249134D01*
X10056332Y-8249134D02*
X10037284Y-8249134D01*
X10037284Y-8249134D02*
X10018237Y-8239610D01*
X10018237Y-8239610D02*
X10008713Y-8230086D01*
X10008713Y-8230086D02*
X9999189Y-8211038D01*
X9999189Y-8211038D02*
X9989665Y-8172943D01*
X9989665Y-8172943D02*
X9989665Y-8125324D01*
X9989665Y-8125324D02*
X9999189Y-8087229D01*
X9999189Y-8087229D02*
X10008713Y-8068181D01*
X10008713Y-8068181D02*
X10018237Y-8058658D01*
X10018237Y-8058658D02*
X10037284Y-8049134D01*
X10189665Y-8230086D02*
X10199189Y-8239610D01*
X10199189Y-8239610D02*
X10189665Y-8249134D01*
X10189665Y-8249134D02*
X10180141Y-8239610D01*
X10180141Y-8239610D02*
X10189665Y-8230086D01*
X10189665Y-8230086D02*
X10189665Y-8249134D01*
X10389665Y-8249134D02*
X10275379Y-8249134D01*
X10332522Y-8249134D02*
X10332522Y-8049134D01*
X10332522Y-8049134D02*
X10313475Y-8077705D01*
X10313475Y-8077705D02*
X10294427Y-8096753D01*
X10294427Y-8096753D02*
X10275379Y-8106277D01*
X10580141Y-8249134D02*
X10465856Y-8249134D01*
X10522998Y-8249134D02*
X10522998Y-8049134D01*
X10522998Y-8049134D02*
X10503951Y-8077705D01*
X10503951Y-8077705D02*
X10484903Y-8096753D01*
X10484903Y-8096753D02*
X10465856Y-8106277D01*
X10694427Y-8134848D02*
X10675379Y-8125324D01*
X10675379Y-8125324D02*
X10665856Y-8115800D01*
X10665856Y-8115800D02*
X10656332Y-8096753D01*
X10656332Y-8096753D02*
X10656332Y-8087229D01*
X10656332Y-8087229D02*
X10665856Y-8068181D01*
X10665856Y-8068181D02*
X10675379Y-8058658D01*
X10675379Y-8058658D02*
X10694427Y-8049134D01*
X10694427Y-8049134D02*
X10732522Y-8049134D01*
X10732522Y-8049134D02*
X10751570Y-8058658D01*
X10751570Y-8058658D02*
X10761094Y-8068181D01*
X10761094Y-8068181D02*
X10770618Y-8087229D01*
X10770618Y-8087229D02*
X10770618Y-8096753D01*
X10770618Y-8096753D02*
X10761094Y-8115800D01*
X10761094Y-8115800D02*
X10751570Y-8125324D01*
X10751570Y-8125324D02*
X10732522Y-8134848D01*
X10732522Y-8134848D02*
X10694427Y-8134848D01*
X10694427Y-8134848D02*
X10675379Y-8144372D01*
X10675379Y-8144372D02*
X10665856Y-8153896D01*
X10665856Y-8153896D02*
X10656332Y-8172943D01*
X10656332Y-8172943D02*
X10656332Y-8211038D01*
X10656332Y-8211038D02*
X10665856Y-8230086D01*
X10665856Y-8230086D02*
X10675379Y-8239610D01*
X10675379Y-8239610D02*
X10694427Y-8249134D01*
X10694427Y-8249134D02*
X10732522Y-8249134D01*
X10732522Y-8249134D02*
X10751570Y-8239610D01*
X10751570Y-8239610D02*
X10761094Y-8230086D01*
X10761094Y-8230086D02*
X10770618Y-8211038D01*
X10770618Y-8211038D02*
X10770618Y-8172943D01*
X10770618Y-8172943D02*
X10761094Y-8153896D01*
X10761094Y-8153896D02*
X10751570Y-8144372D01*
X10751570Y-8144372D02*
X10732522Y-8134848D01*
X10961094Y-8249134D02*
X10846808Y-8249134D01*
X10903951Y-8249134D02*
X10903951Y-8049134D01*
X10903951Y-8049134D02*
X10884903Y-8077705D01*
X10884903Y-8077705D02*
X10865856Y-8096753D01*
X10865856Y-8096753D02*
X10846808Y-8106277D01*
X11037284Y-8049134D02*
X11037284Y-8087229D01*
X11113475Y-8049134D02*
X11113475Y-8087229D01*
X11408713Y-8325324D02*
X11399189Y-8315800D01*
X11399189Y-8315800D02*
X11380141Y-8287229D01*
X11380141Y-8287229D02*
X11370618Y-8268181D01*
X11370618Y-8268181D02*
X11361094Y-8239610D01*
X11361094Y-8239610D02*
X11351570Y-8191991D01*
X11351570Y-8191991D02*
X11351570Y-8153896D01*
X11351570Y-8153896D02*
X11361094Y-8106277D01*
X11361094Y-8106277D02*
X11370618Y-8077705D01*
X11370618Y-8077705D02*
X11380141Y-8058658D01*
X11380141Y-8058658D02*
X11399189Y-8030086D01*
X11399189Y-8030086D02*
X11408713Y-8020562D01*
X11475379Y-8068181D02*
X11484903Y-8058658D01*
X11484903Y-8058658D02*
X11503951Y-8049134D01*
X11503951Y-8049134D02*
X11551570Y-8049134D01*
X11551570Y-8049134D02*
X11570618Y-8058658D01*
X11570618Y-8058658D02*
X11580141Y-8068181D01*
X11580141Y-8068181D02*
X11589665Y-8087229D01*
X11589665Y-8087229D02*
X11589665Y-8106277D01*
X11589665Y-8106277D02*
X11580141Y-8134848D01*
X11580141Y-8134848D02*
X11465856Y-8249134D01*
X11465856Y-8249134D02*
X11589665Y-8249134D01*
X11827760Y-8249134D02*
X11827760Y-8049134D01*
X11913475Y-8249134D02*
X11913475Y-8144372D01*
X11913475Y-8144372D02*
X11903951Y-8125324D01*
X11903951Y-8125324D02*
X11884903Y-8115800D01*
X11884903Y-8115800D02*
X11856332Y-8115800D01*
X11856332Y-8115800D02*
X11837284Y-8125324D01*
X11837284Y-8125324D02*
X11827760Y-8134848D01*
X12037284Y-8249134D02*
X12018237Y-8239610D01*
X12018237Y-8239610D02*
X12008713Y-8230086D01*
X12008713Y-8230086D02*
X11999189Y-8211038D01*
X11999189Y-8211038D02*
X11999189Y-8153896D01*
X11999189Y-8153896D02*
X12008713Y-8134848D01*
X12008713Y-8134848D02*
X12018237Y-8125324D01*
X12018237Y-8125324D02*
X12037284Y-8115800D01*
X12037284Y-8115800D02*
X12065856Y-8115800D01*
X12065856Y-8115800D02*
X12084903Y-8125324D01*
X12084903Y-8125324D02*
X12094427Y-8134848D01*
X12094427Y-8134848D02*
X12103951Y-8153896D01*
X12103951Y-8153896D02*
X12103951Y-8211038D01*
X12103951Y-8211038D02*
X12094427Y-8230086D01*
X12094427Y-8230086D02*
X12084903Y-8239610D01*
X12084903Y-8239610D02*
X12065856Y-8249134D01*
X12065856Y-8249134D02*
X12037284Y-8249134D01*
X12218237Y-8249134D02*
X12199189Y-8239610D01*
X12199189Y-8239610D02*
X12189665Y-8220562D01*
X12189665Y-8220562D02*
X12189665Y-8049134D01*
X12370618Y-8239610D02*
X12351570Y-8249134D01*
X12351570Y-8249134D02*
X12313475Y-8249134D01*
X12313475Y-8249134D02*
X12294427Y-8239610D01*
X12294427Y-8239610D02*
X12284903Y-8220562D01*
X12284903Y-8220562D02*
X12284903Y-8144372D01*
X12284903Y-8144372D02*
X12294427Y-8125324D01*
X12294427Y-8125324D02*
X12313475Y-8115800D01*
X12313475Y-8115800D02*
X12351570Y-8115800D01*
X12351570Y-8115800D02*
X12370618Y-8125324D01*
X12370618Y-8125324D02*
X12380141Y-8144372D01*
X12380141Y-8144372D02*
X12380141Y-8163419D01*
X12380141Y-8163419D02*
X12284903Y-8182467D01*
X12456332Y-8239610D02*
X12475380Y-8249134D01*
X12475380Y-8249134D02*
X12513475Y-8249134D01*
X12513475Y-8249134D02*
X12532522Y-8239610D01*
X12532522Y-8239610D02*
X12542046Y-8220562D01*
X12542046Y-8220562D02*
X12542046Y-8211038D01*
X12542046Y-8211038D02*
X12532522Y-8191991D01*
X12532522Y-8191991D02*
X12513475Y-8182467D01*
X12513475Y-8182467D02*
X12484903Y-8182467D01*
X12484903Y-8182467D02*
X12465856Y-8172943D01*
X12465856Y-8172943D02*
X12456332Y-8153896D01*
X12456332Y-8153896D02*
X12456332Y-8144372D01*
X12456332Y-8144372D02*
X12465856Y-8125324D01*
X12465856Y-8125324D02*
X12484903Y-8115800D01*
X12484903Y-8115800D02*
X12513475Y-8115800D01*
X12513475Y-8115800D02*
X12532522Y-8125324D01*
X12608713Y-8325324D02*
X12618237Y-8315800D01*
X12618237Y-8315800D02*
X12637284Y-8287229D01*
X12637284Y-8287229D02*
X12646808Y-8268181D01*
X12646808Y-8268181D02*
X12656332Y-8239610D01*
X12656332Y-8239610D02*
X12665856Y-8191991D01*
X12665856Y-8191991D02*
X12665856Y-8153896D01*
X12665856Y-8153896D02*
X12656332Y-8106277D01*
X12656332Y-8106277D02*
X12646808Y-8077705D01*
X12646808Y-8077705D02*
X12637284Y-8058658D01*
X12637284Y-8058658D02*
X12618237Y-8030086D01*
X12618237Y-8030086D02*
X12608713Y-8020562D01*
M02*
