%TF.GenerationSoftware,KiCad,Pcbnew,9.0.5*%
%TF.CreationDate,2025-12-09T00:49:43+00:00*%
%TF.ProjectId,WaviTrack_v3_1,57617669-5472-4616-936b-5f76335f312e,2.1*%
%TF.SameCoordinates,Original*%
%TF.FileFunction,Copper,L2,Inr*%
%TF.FilePolarity,Positive*%
%FSLAX46Y46*%
G04 Gerber Fmt 4.6, Leading zero omitted, Abs format (unit mm)*
G04 Created by KiCad (PCBNEW 9.0.5) date 2025-12-09 00:49:43*
%MOMM*%
%LPD*%
G01*
G04 APERTURE LIST*
%TA.AperFunction,ComponentPad*%
%ADD10C,3.400000*%
%TD*%
%TA.AperFunction,ViaPad*%
%ADD11C,0.600000*%
%TD*%
G04 APERTURE END LIST*
D10*
%TO.N,GND*%
%TO.C,H2*%
X82100000Y-47750000D03*
%TD*%
%TO.N,GND*%
%TO.C,H1*%
X110600000Y-68750000D03*
%TD*%
D11*
%TO.N,+3.3V*%
X89975000Y-49600000D03*
%TO.N,GND*%
X106750000Y-56250000D03*
X107750000Y-55250000D03*
X108750000Y-54250000D03*
X98250000Y-53500000D03*
X110000000Y-61100000D03*
X110000000Y-58550000D03*
X110000000Y-56000000D03*
X110000000Y-53500000D03*
%TO.N,+3.3V*%
X92800000Y-57900000D03*
%TO.N,GND*%
X104250000Y-55250000D03*
X101250000Y-52500000D03*
X107200000Y-52200000D03*
X109500000Y-49500000D03*
X107500000Y-47500000D03*
X109500000Y-47500000D03*
X109500000Y-45500000D03*
X107500000Y-45500000D03*
X98500000Y-47500000D03*
X100500000Y-47500000D03*
X100500000Y-45500000D03*
X98500000Y-45500000D03*
X92800000Y-59800000D03*
X96800000Y-63900000D03*
X94200000Y-51400000D03*
X84000000Y-68000000D03*
X101250000Y-55250000D03*
X102000000Y-64500000D03*
X82500000Y-70000000D03*
X82500000Y-71500000D03*
X84000000Y-71500000D03*
X84000000Y-70000000D03*
X85500000Y-70000000D03*
X85500000Y-71500000D03*
X87000000Y-71500000D03*
X87000000Y-70000000D03*
X88500000Y-70000000D03*
X88500000Y-71500000D03*
X90000000Y-71500000D03*
X90000000Y-70000000D03*
X90000000Y-65000000D03*
X88500000Y-65000000D03*
X87000000Y-65000000D03*
X85500000Y-63500000D03*
X87000000Y-63500000D03*
X88500000Y-63500000D03*
X90000000Y-63500000D03*
X90000000Y-62000000D03*
X88500000Y-62000000D03*
X87000000Y-62000000D03*
X85500000Y-62000000D03*
X84000000Y-62000000D03*
X82400000Y-62800000D03*
X82400000Y-64200000D03*
X82400000Y-68400000D03*
X82400000Y-67000000D03*
X82400000Y-65600000D03*
X88463906Y-56975000D03*
%TO.N,+3.3V*%
X84300000Y-54234058D03*
X109000000Y-52200000D03*
X94900000Y-64900000D03*
X84475000Y-50700000D03*
X86800000Y-50700000D03*
X95800000Y-64900000D03*
X83750000Y-56900000D03*
X110000000Y-52200000D03*
%TO.N,GND*%
X89300000Y-53000000D03*
X90900000Y-53000000D03*
X90900000Y-52100000D03*
X89300000Y-52100000D03*
%TO.N,/UWB_RST*%
X97900000Y-63900000D03*
X98600000Y-52200000D03*
%TO.N,/UWB_INT*%
X82000000Y-69100000D03*
X94200000Y-50400000D03*
X98900000Y-63900000D03*
X94925000Y-68800000D03*
%TO.N,/SPI_CS*%
X107500000Y-65900000D03*
X82000000Y-62100000D03*
X105500000Y-63900000D03*
X110000000Y-62400000D03*
%TO.N,/SPI_CLK*%
X110000000Y-59821500D03*
X82000000Y-66300000D03*
%TO.N,/SPI_MOSI*%
X82000000Y-63500000D03*
X110000000Y-54741500D03*
%TO.N,/SPI_MISO*%
X82000000Y-64900000D03*
X110000000Y-57281500D03*
%TO.N,Net-(U2-ENV_SCL)*%
X81000000Y-53300000D03*
X93175000Y-54100000D03*
%TO.N,Net-(U2-ENV_SDA)*%
X93175000Y-53300000D03*
X81000000Y-51800000D03*
%TO.N,/DEBUG_LED*%
X80000000Y-58500000D03*
X98600000Y-54800000D03*
%TD*%
%TA.AperFunction,Conductor*%
%TO.N,GND*%
G36*
X114054039Y-44281685D02*
G01*
X114099794Y-44334489D01*
X114111000Y-44386000D01*
X114111000Y-72137000D01*
X114091315Y-72204039D01*
X114038511Y-72249794D01*
X113987000Y-72261000D01*
X78736000Y-72261000D01*
X78668961Y-72241315D01*
X78623206Y-72188511D01*
X78612000Y-72137000D01*
X78612000Y-69164071D01*
X81349499Y-69164071D01*
X81374497Y-69289738D01*
X81374499Y-69289744D01*
X81423533Y-69408124D01*
X81423538Y-69408133D01*
X81494723Y-69514668D01*
X81494726Y-69514672D01*
X81585327Y-69605273D01*
X81585331Y-69605276D01*
X81691866Y-69676461D01*
X81691872Y-69676464D01*
X81691873Y-69676465D01*
X81810256Y-69725501D01*
X81810260Y-69725501D01*
X81810261Y-69725502D01*
X81935928Y-69750500D01*
X81935931Y-69750500D01*
X82064071Y-69750500D01*
X82148615Y-69733682D01*
X82189744Y-69725501D01*
X82308127Y-69676465D01*
X82414669Y-69605276D01*
X82505276Y-69514669D01*
X82576465Y-69408127D01*
X82625501Y-69289744D01*
X82650500Y-69164069D01*
X82650500Y-69035931D01*
X82650500Y-69035928D01*
X82625502Y-68910261D01*
X82625501Y-68910260D01*
X82625501Y-68910256D01*
X82606370Y-68864071D01*
X94274499Y-68864071D01*
X94299497Y-68989738D01*
X94299499Y-68989744D01*
X94348533Y-69108124D01*
X94348538Y-69108133D01*
X94419723Y-69214668D01*
X94419726Y-69214672D01*
X94510327Y-69305273D01*
X94510331Y-69305276D01*
X94616866Y-69376461D01*
X94616872Y-69376464D01*
X94616873Y-69376465D01*
X94735256Y-69425501D01*
X94735260Y-69425501D01*
X94735261Y-69425502D01*
X94860928Y-69450500D01*
X94860931Y-69450500D01*
X94989071Y-69450500D01*
X95073615Y-69433682D01*
X95114744Y-69425501D01*
X95233127Y-69376465D01*
X95339669Y-69305276D01*
X95430276Y-69214669D01*
X95501465Y-69108127D01*
X95550501Y-68989744D01*
X95575500Y-68864069D01*
X95575500Y-68735931D01*
X95575500Y-68735928D01*
X95550502Y-68610261D01*
X95550501Y-68610260D01*
X95550501Y-68610256D01*
X95501465Y-68491873D01*
X95501464Y-68491872D01*
X95501461Y-68491866D01*
X95430276Y-68385331D01*
X95430273Y-68385327D01*
X95339672Y-68294726D01*
X95339668Y-68294723D01*
X95233133Y-68223538D01*
X95233124Y-68223533D01*
X95114744Y-68174499D01*
X95114738Y-68174497D01*
X94989071Y-68149500D01*
X94989069Y-68149500D01*
X94860931Y-68149500D01*
X94860929Y-68149500D01*
X94735261Y-68174497D01*
X94735255Y-68174499D01*
X94616875Y-68223533D01*
X94616866Y-68223538D01*
X94510331Y-68294723D01*
X94510327Y-68294726D01*
X94419726Y-68385327D01*
X94419723Y-68385331D01*
X94348538Y-68491866D01*
X94348533Y-68491875D01*
X94299499Y-68610255D01*
X94299497Y-68610261D01*
X94274500Y-68735928D01*
X94274500Y-68735931D01*
X94274500Y-68864069D01*
X94274500Y-68864071D01*
X94274499Y-68864071D01*
X82606370Y-68864071D01*
X82576465Y-68791873D01*
X82576460Y-68791866D01*
X82505276Y-68685331D01*
X82505273Y-68685327D01*
X82414672Y-68594726D01*
X82414668Y-68594723D01*
X82308133Y-68523538D01*
X82308124Y-68523533D01*
X82189744Y-68474499D01*
X82189738Y-68474497D01*
X82064071Y-68449500D01*
X82064069Y-68449500D01*
X81935931Y-68449500D01*
X81935929Y-68449500D01*
X81810261Y-68474497D01*
X81810255Y-68474499D01*
X81691875Y-68523533D01*
X81691866Y-68523538D01*
X81585331Y-68594723D01*
X81585327Y-68594726D01*
X81494726Y-68685327D01*
X81494723Y-68685331D01*
X81423538Y-68791866D01*
X81423533Y-68791875D01*
X81374499Y-68910255D01*
X81374497Y-68910261D01*
X81349500Y-69035928D01*
X81349500Y-69035931D01*
X81349500Y-69164069D01*
X81349500Y-69164071D01*
X81349499Y-69164071D01*
X78612000Y-69164071D01*
X78612000Y-62164071D01*
X81349499Y-62164071D01*
X81374497Y-62289738D01*
X81374499Y-62289744D01*
X81423533Y-62408124D01*
X81423538Y-62408133D01*
X81494723Y-62514668D01*
X81494726Y-62514672D01*
X81585327Y-62605273D01*
X81585331Y-62605276D01*
X81691866Y-62676461D01*
X81691868Y-62676462D01*
X81691873Y-62676465D01*
X81712812Y-62685138D01*
X81713538Y-62685439D01*
X81767941Y-62729281D01*
X81790005Y-62795575D01*
X81772725Y-62863274D01*
X81721588Y-62910884D01*
X81713538Y-62914561D01*
X81691873Y-62923535D01*
X81691866Y-62923538D01*
X81585331Y-62994723D01*
X81585327Y-62994726D01*
X81494726Y-63085327D01*
X81494723Y-63085331D01*
X81423538Y-63191866D01*
X81423533Y-63191875D01*
X81374499Y-63310255D01*
X81374497Y-63310261D01*
X81349500Y-63435928D01*
X81349500Y-63435931D01*
X81349500Y-63564069D01*
X81349500Y-63564071D01*
X81349499Y-63564071D01*
X81374497Y-63689738D01*
X81374499Y-63689744D01*
X81423533Y-63808124D01*
X81423538Y-63808133D01*
X81494723Y-63914668D01*
X81494726Y-63914672D01*
X81585327Y-64005273D01*
X81585331Y-64005276D01*
X81691866Y-64076461D01*
X81691868Y-64076462D01*
X81691873Y-64076465D01*
X81712812Y-64085138D01*
X81713538Y-64085439D01*
X81767941Y-64129281D01*
X81790005Y-64195575D01*
X81772725Y-64263274D01*
X81721588Y-64310884D01*
X81713538Y-64314561D01*
X81691873Y-64323535D01*
X81691866Y-64323538D01*
X81585331Y-64394723D01*
X81585327Y-64394726D01*
X81494726Y-64485327D01*
X81494723Y-64485331D01*
X81423538Y-64591866D01*
X81423533Y-64591875D01*
X81374499Y-64710255D01*
X81374497Y-64710261D01*
X81349500Y-64835928D01*
X81349500Y-64835931D01*
X81349500Y-64964069D01*
X81349500Y-64964071D01*
X81349499Y-64964071D01*
X81374497Y-65089738D01*
X81374499Y-65089744D01*
X81423533Y-65208124D01*
X81423538Y-65208133D01*
X81494723Y-65314668D01*
X81494726Y-65314672D01*
X81585327Y-65405273D01*
X81585331Y-65405276D01*
X81691866Y-65476461D01*
X81691868Y-65476462D01*
X81691873Y-65476465D01*
X81712812Y-65485138D01*
X81713538Y-65485439D01*
X81767941Y-65529281D01*
X81790005Y-65595575D01*
X81772725Y-65663274D01*
X81721588Y-65710884D01*
X81713538Y-65714561D01*
X81691873Y-65723535D01*
X81691866Y-65723538D01*
X81585331Y-65794723D01*
X81585327Y-65794726D01*
X81494726Y-65885327D01*
X81494723Y-65885331D01*
X81423538Y-65991866D01*
X81423533Y-65991875D01*
X81374499Y-66110255D01*
X81374497Y-66110261D01*
X81349500Y-66235928D01*
X81349500Y-66235931D01*
X81349500Y-66364069D01*
X81349500Y-66364071D01*
X81349499Y-66364071D01*
X81374497Y-66489738D01*
X81374499Y-66489744D01*
X81423533Y-66608124D01*
X81423538Y-66608133D01*
X81494723Y-66714668D01*
X81494726Y-66714672D01*
X81585327Y-66805273D01*
X81585331Y-66805276D01*
X81691866Y-66876461D01*
X81691872Y-66876464D01*
X81691873Y-66876465D01*
X81810256Y-66925501D01*
X81810260Y-66925501D01*
X81810261Y-66925502D01*
X81935928Y-66950500D01*
X81935931Y-66950500D01*
X82064071Y-66950500D01*
X82148615Y-66933682D01*
X82189744Y-66925501D01*
X82308127Y-66876465D01*
X82414669Y-66805276D01*
X82505276Y-66714669D01*
X82576465Y-66608127D01*
X82625501Y-66489744D01*
X82650500Y-66364069D01*
X82650500Y-66235931D01*
X82650500Y-66235928D01*
X82625502Y-66110261D01*
X82625501Y-66110260D01*
X82625501Y-66110256D01*
X82576465Y-65991873D01*
X82576464Y-65991872D01*
X82576461Y-65991866D01*
X82557889Y-65964071D01*
X106849499Y-65964071D01*
X106874497Y-66089738D01*
X106874499Y-66089744D01*
X106923533Y-66208124D01*
X106923538Y-66208133D01*
X106994723Y-66314668D01*
X106994726Y-66314672D01*
X107085327Y-66405273D01*
X107085331Y-66405276D01*
X107191866Y-66476461D01*
X107191872Y-66476464D01*
X107191873Y-66476465D01*
X107310256Y-66525501D01*
X107310260Y-66525501D01*
X107310261Y-66525502D01*
X107435928Y-66550500D01*
X107435931Y-66550500D01*
X107564071Y-66550500D01*
X107648615Y-66533682D01*
X107689744Y-66525501D01*
X107808127Y-66476465D01*
X107914669Y-66405276D01*
X108005276Y-66314669D01*
X108076465Y-66208127D01*
X108125501Y-66089744D01*
X108144969Y-65991875D01*
X108150500Y-65964071D01*
X108150500Y-65835928D01*
X108125502Y-65710261D01*
X108125501Y-65710260D01*
X108125501Y-65710256D01*
X108081665Y-65604426D01*
X108076466Y-65591875D01*
X108076461Y-65591866D01*
X108005276Y-65485331D01*
X108005273Y-65485327D01*
X107914672Y-65394726D01*
X107914668Y-65394723D01*
X107808133Y-65323538D01*
X107808124Y-65323533D01*
X107689744Y-65274499D01*
X107689738Y-65274497D01*
X107564071Y-65249500D01*
X107564069Y-65249500D01*
X107435931Y-65249500D01*
X107435929Y-65249500D01*
X107310261Y-65274497D01*
X107310255Y-65274499D01*
X107191875Y-65323533D01*
X107191866Y-65323538D01*
X107085331Y-65394723D01*
X107085327Y-65394726D01*
X106994726Y-65485327D01*
X106994723Y-65485331D01*
X106923538Y-65591866D01*
X106923533Y-65591875D01*
X106874499Y-65710255D01*
X106874497Y-65710261D01*
X106849500Y-65835928D01*
X106849500Y-65835931D01*
X106849500Y-65964069D01*
X106849500Y-65964071D01*
X106849499Y-65964071D01*
X82557889Y-65964071D01*
X82514229Y-65898730D01*
X82514228Y-65898729D01*
X82505274Y-65885328D01*
X82414672Y-65794726D01*
X82414668Y-65794723D01*
X82308133Y-65723538D01*
X82308120Y-65723531D01*
X82286463Y-65714561D01*
X82232059Y-65670720D01*
X82209994Y-65604426D01*
X82227273Y-65536727D01*
X82278410Y-65489116D01*
X82286463Y-65485439D01*
X82308120Y-65476468D01*
X82308120Y-65476467D01*
X82308127Y-65476465D01*
X82414669Y-65405276D01*
X82505276Y-65314669D01*
X82576465Y-65208127D01*
X82625501Y-65089744D01*
X82650500Y-64964071D01*
X94249499Y-64964071D01*
X94274497Y-65089738D01*
X94274499Y-65089744D01*
X94323533Y-65208124D01*
X94323538Y-65208133D01*
X94394723Y-65314668D01*
X94394726Y-65314672D01*
X94485327Y-65405273D01*
X94485331Y-65405276D01*
X94591866Y-65476461D01*
X94591872Y-65476464D01*
X94591873Y-65476465D01*
X94710256Y-65525501D01*
X94710260Y-65525501D01*
X94710261Y-65525502D01*
X94835928Y-65550500D01*
X94835931Y-65550500D01*
X94964071Y-65550500D01*
X95070741Y-65529281D01*
X95089744Y-65525501D01*
X95208127Y-65476465D01*
X95281109Y-65427699D01*
X95347786Y-65406822D01*
X95415166Y-65425306D01*
X95418889Y-65427698D01*
X95491873Y-65476465D01*
X95610256Y-65525501D01*
X95610260Y-65525501D01*
X95610261Y-65525502D01*
X95735928Y-65550500D01*
X95735931Y-65550500D01*
X95864071Y-65550500D01*
X95970741Y-65529281D01*
X95989744Y-65525501D01*
X96108127Y-65476465D01*
X96214669Y-65405276D01*
X96305276Y-65314669D01*
X96376465Y-65208127D01*
X96425501Y-65089744D01*
X96450500Y-64964069D01*
X96450500Y-64835931D01*
X96450500Y-64835928D01*
X96425502Y-64710261D01*
X96425501Y-64710260D01*
X96425501Y-64710256D01*
X96376465Y-64591873D01*
X96376464Y-64591872D01*
X96376461Y-64591866D01*
X96305276Y-64485331D01*
X96305273Y-64485327D01*
X96214672Y-64394726D01*
X96214668Y-64394723D01*
X96108133Y-64323538D01*
X96108124Y-64323533D01*
X95989744Y-64274499D01*
X95989738Y-64274497D01*
X95864071Y-64249500D01*
X95864069Y-64249500D01*
X95735931Y-64249500D01*
X95735929Y-64249500D01*
X95610261Y-64274497D01*
X95610255Y-64274499D01*
X95491875Y-64323533D01*
X95491861Y-64323541D01*
X95418890Y-64372299D01*
X95352213Y-64393177D01*
X95284833Y-64374692D01*
X95281110Y-64372299D01*
X95208138Y-64323541D01*
X95208124Y-64323533D01*
X95089744Y-64274499D01*
X95089738Y-64274497D01*
X94964071Y-64249500D01*
X94964069Y-64249500D01*
X94835931Y-64249500D01*
X94835929Y-64249500D01*
X94710261Y-64274497D01*
X94710255Y-64274499D01*
X94591875Y-64323533D01*
X94591866Y-64323538D01*
X94485331Y-64394723D01*
X94485327Y-64394726D01*
X94394726Y-64485327D01*
X94394723Y-64485331D01*
X94323538Y-64591866D01*
X94323533Y-64591875D01*
X94274499Y-64710255D01*
X94274497Y-64710261D01*
X94249500Y-64835928D01*
X94249500Y-64835931D01*
X94249500Y-64964069D01*
X94249500Y-64964071D01*
X94249499Y-64964071D01*
X82650500Y-64964071D01*
X82650500Y-64964069D01*
X82650500Y-64835931D01*
X82650500Y-64835928D01*
X82625502Y-64710261D01*
X82625501Y-64710260D01*
X82625501Y-64710256D01*
X82576465Y-64591873D01*
X82576464Y-64591872D01*
X82576461Y-64591866D01*
X82505276Y-64485331D01*
X82505273Y-64485327D01*
X82414672Y-64394726D01*
X82414668Y-64394723D01*
X82308133Y-64323538D01*
X82308120Y-64323531D01*
X82286463Y-64314561D01*
X82232059Y-64270720D01*
X82209994Y-64204426D01*
X82227273Y-64136727D01*
X82278410Y-64089116D01*
X82286463Y-64085439D01*
X82308120Y-64076468D01*
X82308120Y-64076467D01*
X82308127Y-64076465D01*
X82414669Y-64005276D01*
X82455874Y-63964071D01*
X97249499Y-63964071D01*
X97274497Y-64089738D01*
X97274499Y-64089744D01*
X97323533Y-64208124D01*
X97323538Y-64208133D01*
X97394723Y-64314668D01*
X97394726Y-64314672D01*
X97485327Y-64405273D01*
X97485331Y-64405276D01*
X97591866Y-64476461D01*
X97591872Y-64476464D01*
X97591873Y-64476465D01*
X97710256Y-64525501D01*
X97710260Y-64525501D01*
X97710261Y-64525502D01*
X97835928Y-64550500D01*
X97835931Y-64550500D01*
X97964071Y-64550500D01*
X98048615Y-64533682D01*
X98089744Y-64525501D01*
X98208127Y-64476465D01*
X98314669Y-64405276D01*
X98314673Y-64405271D01*
X98319379Y-64401411D01*
X98320720Y-64403045D01*
X98373611Y-64374148D01*
X98443304Y-64379114D01*
X98479715Y-64402514D01*
X98480621Y-64401411D01*
X98485331Y-64405276D01*
X98591866Y-64476461D01*
X98591872Y-64476464D01*
X98591873Y-64476465D01*
X98710256Y-64525501D01*
X98710260Y-64525501D01*
X98710261Y-64525502D01*
X98835928Y-64550500D01*
X98835931Y-64550500D01*
X98964071Y-64550500D01*
X99048615Y-64533682D01*
X99089744Y-64525501D01*
X99208127Y-64476465D01*
X99314669Y-64405276D01*
X99405276Y-64314669D01*
X99476465Y-64208127D01*
X99525501Y-64089744D01*
X99550500Y-63964069D01*
X99550500Y-63835931D01*
X99550500Y-63835928D01*
X99525502Y-63710261D01*
X99525501Y-63710260D01*
X99525501Y-63710256D01*
X99476465Y-63591873D01*
X99476464Y-63591872D01*
X99476461Y-63591866D01*
X99405276Y-63485331D01*
X99405273Y-63485327D01*
X99314672Y-63394726D01*
X99314668Y-63394723D01*
X99208133Y-63323538D01*
X99208124Y-63323533D01*
X99089744Y-63274499D01*
X99089738Y-63274497D01*
X98964071Y-63249500D01*
X98964069Y-63249500D01*
X98835931Y-63249500D01*
X98835929Y-63249500D01*
X98710261Y-63274497D01*
X98710255Y-63274499D01*
X98591875Y-63323533D01*
X98591866Y-63323538D01*
X98485331Y-63394723D01*
X98480621Y-63398589D01*
X98479283Y-63396958D01*
X98426358Y-63425858D01*
X98356666Y-63420874D01*
X98320280Y-63397489D01*
X98319379Y-63398589D01*
X98314668Y-63394723D01*
X98208133Y-63323538D01*
X98208124Y-63323533D01*
X98089744Y-63274499D01*
X98089738Y-63274497D01*
X97964071Y-63249500D01*
X97964069Y-63249500D01*
X97835931Y-63249500D01*
X97835929Y-63249500D01*
X97710261Y-63274497D01*
X97710255Y-63274499D01*
X97591875Y-63323533D01*
X97591866Y-63323538D01*
X97485331Y-63394723D01*
X97485327Y-63394726D01*
X97394726Y-63485327D01*
X97394723Y-63485331D01*
X97323538Y-63591866D01*
X97323533Y-63591875D01*
X97274499Y-63710255D01*
X97274497Y-63710261D01*
X97249500Y-63835928D01*
X97249500Y-63835931D01*
X97249500Y-63964069D01*
X97249500Y-63964071D01*
X97249499Y-63964071D01*
X82455874Y-63964071D01*
X82505276Y-63914669D01*
X82576465Y-63808127D01*
X82625501Y-63689744D01*
X82644969Y-63591875D01*
X82650500Y-63564071D01*
X82650500Y-63435928D01*
X82625502Y-63310261D01*
X82625501Y-63310260D01*
X82625501Y-63310256D01*
X82576465Y-63191873D01*
X82576464Y-63191872D01*
X82576461Y-63191866D01*
X82505276Y-63085331D01*
X82505273Y-63085327D01*
X82414672Y-62994726D01*
X82414668Y-62994723D01*
X82308133Y-62923538D01*
X82308120Y-62923531D01*
X82286463Y-62914561D01*
X82232059Y-62870720D01*
X82209994Y-62804426D01*
X82227273Y-62736727D01*
X82278410Y-62689116D01*
X82286463Y-62685439D01*
X82308120Y-62676468D01*
X82308120Y-62676467D01*
X82308127Y-62676465D01*
X82414669Y-62605276D01*
X82446025Y-62573920D01*
X100249499Y-62573920D01*
X100278340Y-62718907D01*
X100278343Y-62718917D01*
X100334912Y-62855488D01*
X100334919Y-62855501D01*
X100417048Y-62978415D01*
X100417051Y-62978419D01*
X100521580Y-63082948D01*
X100521584Y-63082951D01*
X100644498Y-63165080D01*
X100644511Y-63165087D01*
X100709184Y-63191875D01*
X100781087Y-63221658D01*
X100781091Y-63221658D01*
X100781092Y-63221659D01*
X100926079Y-63250500D01*
X100926082Y-63250500D01*
X100950172Y-63250500D01*
X104930192Y-63250500D01*
X104997231Y-63270185D01*
X105042986Y-63322989D01*
X105052930Y-63392147D01*
X105023905Y-63455703D01*
X105017873Y-63462181D01*
X104994726Y-63485327D01*
X104994723Y-63485331D01*
X104923538Y-63591866D01*
X104923533Y-63591875D01*
X104874499Y-63710255D01*
X104874497Y-63710261D01*
X104849500Y-63835928D01*
X104849500Y-63835931D01*
X104849500Y-63964069D01*
X104849500Y-63964071D01*
X104849499Y-63964071D01*
X104874497Y-64089738D01*
X104874499Y-64089744D01*
X104923533Y-64208124D01*
X104923538Y-64208133D01*
X104994723Y-64314668D01*
X104994726Y-64314672D01*
X105085327Y-64405273D01*
X105085331Y-64405276D01*
X105191866Y-64476461D01*
X105191872Y-64476464D01*
X105191873Y-64476465D01*
X105310256Y-64525501D01*
X105310260Y-64525501D01*
X105310261Y-64525502D01*
X105435928Y-64550500D01*
X105435931Y-64550500D01*
X105564071Y-64550500D01*
X105648615Y-64533682D01*
X105689744Y-64525501D01*
X105808127Y-64476465D01*
X105914669Y-64405276D01*
X106005276Y-64314669D01*
X106076465Y-64208127D01*
X106125501Y-64089744D01*
X106150500Y-63964069D01*
X106150500Y-63835931D01*
X106150500Y-63835928D01*
X106125502Y-63710261D01*
X106125501Y-63710260D01*
X106125501Y-63710256D01*
X106076465Y-63591873D01*
X106076464Y-63591872D01*
X106076461Y-63591866D01*
X106005276Y-63485331D01*
X106005273Y-63485327D01*
X105982127Y-63462181D01*
X105948642Y-63400858D01*
X105953626Y-63331166D01*
X105995498Y-63275233D01*
X106060962Y-63250816D01*
X106069808Y-63250500D01*
X106573920Y-63250500D01*
X106671462Y-63231096D01*
X106718913Y-63221658D01*
X106855495Y-63165084D01*
X106978416Y-63082951D01*
X107082951Y-62978416D01*
X107165084Y-62855495D01*
X107221658Y-62718913D01*
X107236032Y-62646652D01*
X107250500Y-62573920D01*
X107250500Y-62464071D01*
X109349499Y-62464071D01*
X109374497Y-62589738D01*
X109374499Y-62589744D01*
X109423533Y-62708124D01*
X109423538Y-62708133D01*
X109494723Y-62814668D01*
X109494726Y-62814672D01*
X109585327Y-62905273D01*
X109585331Y-62905276D01*
X109691866Y-62976461D01*
X109691875Y-62976466D01*
X109696583Y-62978416D01*
X109810256Y-63025501D01*
X109810260Y-63025501D01*
X109810261Y-63025502D01*
X109935928Y-63050500D01*
X109935931Y-63050500D01*
X110064071Y-63050500D01*
X110148615Y-63033682D01*
X110189744Y-63025501D01*
X110308127Y-62976465D01*
X110414669Y-62905276D01*
X110505276Y-62814669D01*
X110576465Y-62708127D01*
X110625501Y-62589744D01*
X110650500Y-62464069D01*
X110650500Y-62335931D01*
X110650500Y-62335928D01*
X110625502Y-62210261D01*
X110625501Y-62210260D01*
X110625501Y-62210256D01*
X110576465Y-62091873D01*
X110576464Y-62091872D01*
X110576461Y-62091866D01*
X110505276Y-61985331D01*
X110505273Y-61985327D01*
X110414672Y-61894726D01*
X110414668Y-61894723D01*
X110308133Y-61823538D01*
X110308124Y-61823533D01*
X110189744Y-61774499D01*
X110189738Y-61774497D01*
X110064071Y-61749500D01*
X110064069Y-61749500D01*
X109935931Y-61749500D01*
X109935929Y-61749500D01*
X109810261Y-61774497D01*
X109810255Y-61774499D01*
X109691875Y-61823533D01*
X109691866Y-61823538D01*
X109585331Y-61894723D01*
X109585327Y-61894726D01*
X109494726Y-61985327D01*
X109494723Y-61985331D01*
X109423538Y-62091866D01*
X109423533Y-62091875D01*
X109374499Y-62210255D01*
X109374497Y-62210261D01*
X109349500Y-62335928D01*
X109349500Y-62335931D01*
X109349500Y-62464069D01*
X109349500Y-62464071D01*
X109349499Y-62464071D01*
X107250500Y-62464071D01*
X107250500Y-59885571D01*
X109349499Y-59885571D01*
X109374497Y-60011238D01*
X109374499Y-60011244D01*
X109423533Y-60129624D01*
X109423538Y-60129633D01*
X109494723Y-60236168D01*
X109494726Y-60236172D01*
X109585327Y-60326773D01*
X109585331Y-60326776D01*
X109691866Y-60397961D01*
X109691872Y-60397964D01*
X109691873Y-60397965D01*
X109810256Y-60447001D01*
X109810260Y-60447001D01*
X109810261Y-60447002D01*
X109935928Y-60472000D01*
X109935931Y-60472000D01*
X110064071Y-60472000D01*
X110148615Y-60455182D01*
X110189744Y-60447001D01*
X110308127Y-60397965D01*
X110414669Y-60326776D01*
X110505276Y-60236169D01*
X110576465Y-60129627D01*
X110625501Y-60011244D01*
X110650500Y-59885569D01*
X110650500Y-59757431D01*
X110650500Y-59757428D01*
X110625502Y-59631761D01*
X110625501Y-59631760D01*
X110625501Y-59631756D01*
X110576465Y-59513373D01*
X110576464Y-59513372D01*
X110576461Y-59513366D01*
X110505276Y-59406831D01*
X110505273Y-59406827D01*
X110414672Y-59316226D01*
X110414668Y-59316223D01*
X110308133Y-59245038D01*
X110308124Y-59245033D01*
X110189744Y-59195999D01*
X110189738Y-59195997D01*
X110064071Y-59171000D01*
X110064069Y-59171000D01*
X109935931Y-59171000D01*
X109935929Y-59171000D01*
X109810261Y-59195997D01*
X109810255Y-59195999D01*
X109691875Y-59245033D01*
X109691866Y-59245038D01*
X109585331Y-59316223D01*
X109585327Y-59316226D01*
X109494726Y-59406827D01*
X109494723Y-59406831D01*
X109423538Y-59513366D01*
X109423533Y-59513375D01*
X109374499Y-59631755D01*
X109374497Y-59631761D01*
X109349500Y-59757428D01*
X109349500Y-59757431D01*
X109349500Y-59885569D01*
X109349500Y-59885571D01*
X109349499Y-59885571D01*
X107250500Y-59885571D01*
X107250500Y-57926079D01*
X107221659Y-57781092D01*
X107221658Y-57781091D01*
X107221658Y-57781087D01*
X107221656Y-57781082D01*
X107165087Y-57644511D01*
X107165080Y-57644498D01*
X107082951Y-57521584D01*
X107082948Y-57521580D01*
X106978419Y-57417051D01*
X106978415Y-57417048D01*
X106871443Y-57345571D01*
X109349499Y-57345571D01*
X109374497Y-57471238D01*
X109374499Y-57471244D01*
X109423533Y-57589624D01*
X109423538Y-57589633D01*
X109494723Y-57696168D01*
X109494726Y-57696172D01*
X109585327Y-57786773D01*
X109585331Y-57786776D01*
X109691866Y-57857961D01*
X109691872Y-57857964D01*
X109691873Y-57857965D01*
X109810256Y-57907001D01*
X109810260Y-57907001D01*
X109810261Y-57907002D01*
X109935928Y-57932000D01*
X109935931Y-57932000D01*
X110064071Y-57932000D01*
X110148615Y-57915182D01*
X110189744Y-57907001D01*
X110308127Y-57857965D01*
X110414669Y-57786776D01*
X110505276Y-57696169D01*
X110576465Y-57589627D01*
X110625501Y-57471244D01*
X110640722Y-57394724D01*
X110650500Y-57345571D01*
X110650500Y-57217428D01*
X110625502Y-57091761D01*
X110625501Y-57091760D01*
X110625501Y-57091756D01*
X110576465Y-56973373D01*
X110576464Y-56973372D01*
X110576461Y-56973366D01*
X110505276Y-56866831D01*
X110505273Y-56866827D01*
X110414672Y-56776226D01*
X110414668Y-56776223D01*
X110308133Y-56705038D01*
X110308124Y-56705033D01*
X110189744Y-56655999D01*
X110189738Y-56655997D01*
X110064071Y-56631000D01*
X110064069Y-56631000D01*
X109935931Y-56631000D01*
X109935929Y-56631000D01*
X109810261Y-56655997D01*
X109810255Y-56655999D01*
X109691875Y-56705033D01*
X109691866Y-56705038D01*
X109585331Y-56776223D01*
X109585327Y-56776226D01*
X109494726Y-56866827D01*
X109494723Y-56866831D01*
X109423538Y-56973366D01*
X109423533Y-56973375D01*
X109374499Y-57091755D01*
X109374497Y-57091761D01*
X109349500Y-57217428D01*
X109349500Y-57217431D01*
X109349500Y-57345569D01*
X109349500Y-57345571D01*
X109349499Y-57345571D01*
X106871443Y-57345571D01*
X106855501Y-57334919D01*
X106855491Y-57334914D01*
X106833729Y-57325900D01*
X106833727Y-57325899D01*
X106718917Y-57278343D01*
X106718907Y-57278340D01*
X106573920Y-57249500D01*
X106573918Y-57249500D01*
X106549828Y-57249500D01*
X101044170Y-57249500D01*
X101000000Y-57249500D01*
X100926082Y-57249500D01*
X100926080Y-57249500D01*
X100781092Y-57278340D01*
X100781082Y-57278343D01*
X100644511Y-57334912D01*
X100644498Y-57334919D01*
X100521584Y-57417048D01*
X100521580Y-57417051D01*
X100417051Y-57521580D01*
X100417048Y-57521584D01*
X100334919Y-57644498D01*
X100334912Y-57644511D01*
X100278343Y-57781082D01*
X100278340Y-57781092D01*
X100249500Y-57926079D01*
X100249500Y-57926082D01*
X100249500Y-57950172D01*
X100249500Y-62455830D01*
X100249500Y-62500000D01*
X100249500Y-62573918D01*
X100249500Y-62573920D01*
X100249499Y-62573920D01*
X82446025Y-62573920D01*
X82505276Y-62514669D01*
X82576465Y-62408127D01*
X82625501Y-62289744D01*
X82650500Y-62164069D01*
X82650500Y-62035931D01*
X82650500Y-62035928D01*
X82625502Y-61910261D01*
X82625501Y-61910260D01*
X82625501Y-61910256D01*
X82576465Y-61791873D01*
X82576464Y-61791872D01*
X82576461Y-61791866D01*
X82505276Y-61685331D01*
X82505273Y-61685327D01*
X82414672Y-61594726D01*
X82414668Y-61594723D01*
X82308133Y-61523538D01*
X82308124Y-61523533D01*
X82189744Y-61474499D01*
X82189738Y-61474497D01*
X82064071Y-61449500D01*
X82064069Y-61449500D01*
X81935931Y-61449500D01*
X81935929Y-61449500D01*
X81810261Y-61474497D01*
X81810255Y-61474499D01*
X81691875Y-61523533D01*
X81691866Y-61523538D01*
X81585331Y-61594723D01*
X81585327Y-61594726D01*
X81494726Y-61685327D01*
X81494723Y-61685331D01*
X81423538Y-61791866D01*
X81423533Y-61791875D01*
X81374499Y-61910255D01*
X81374497Y-61910261D01*
X81349500Y-62035928D01*
X81349500Y-62035931D01*
X81349500Y-62164069D01*
X81349500Y-62164071D01*
X81349499Y-62164071D01*
X78612000Y-62164071D01*
X78612000Y-58564071D01*
X79349499Y-58564071D01*
X79374497Y-58689738D01*
X79374499Y-58689744D01*
X79423533Y-58808124D01*
X79423538Y-58808133D01*
X79494723Y-58914668D01*
X79494726Y-58914672D01*
X79585327Y-59005273D01*
X79585331Y-59005276D01*
X79691866Y-59076461D01*
X79691872Y-59076464D01*
X79691873Y-59076465D01*
X79810256Y-59125501D01*
X79810260Y-59125501D01*
X79810261Y-59125502D01*
X79935928Y-59150500D01*
X79935931Y-59150500D01*
X80064071Y-59150500D01*
X80148615Y-59133682D01*
X80189744Y-59125501D01*
X80308127Y-59076465D01*
X80414669Y-59005276D01*
X80505276Y-58914669D01*
X80576465Y-58808127D01*
X80625501Y-58689744D01*
X80650500Y-58564069D01*
X80650500Y-58435931D01*
X80650500Y-58435928D01*
X80625502Y-58310261D01*
X80625501Y-58310260D01*
X80625501Y-58310256D01*
X80576465Y-58191873D01*
X80576464Y-58191872D01*
X80576461Y-58191866D01*
X80505276Y-58085331D01*
X80505273Y-58085327D01*
X80414672Y-57994726D01*
X80414668Y-57994723D01*
X80368794Y-57964071D01*
X92149499Y-57964071D01*
X92174497Y-58089738D01*
X92174499Y-58089744D01*
X92223533Y-58208124D01*
X92223538Y-58208133D01*
X92294723Y-58314668D01*
X92294726Y-58314672D01*
X92385327Y-58405273D01*
X92385331Y-58405276D01*
X92491866Y-58476461D01*
X92491872Y-58476464D01*
X92491873Y-58476465D01*
X92610256Y-58525501D01*
X92610260Y-58525501D01*
X92610261Y-58525502D01*
X92735928Y-58550500D01*
X92735931Y-58550500D01*
X92864071Y-58550500D01*
X92948615Y-58533682D01*
X92989744Y-58525501D01*
X93108127Y-58476465D01*
X93214669Y-58405276D01*
X93305276Y-58314669D01*
X93376465Y-58208127D01*
X93425501Y-58089744D01*
X93444402Y-57994724D01*
X93450500Y-57964071D01*
X93450500Y-57835928D01*
X93425502Y-57710261D01*
X93425501Y-57710260D01*
X93425501Y-57710256D01*
X93376465Y-57591873D01*
X93376464Y-57591872D01*
X93376461Y-57591866D01*
X93305276Y-57485331D01*
X93305273Y-57485327D01*
X93214672Y-57394726D01*
X93214668Y-57394723D01*
X93108133Y-57323538D01*
X93108124Y-57323533D01*
X92989744Y-57274499D01*
X92989738Y-57274497D01*
X92864071Y-57249500D01*
X92864069Y-57249500D01*
X92735931Y-57249500D01*
X92735929Y-57249500D01*
X92610261Y-57274497D01*
X92610255Y-57274499D01*
X92491875Y-57323533D01*
X92491866Y-57323538D01*
X92385331Y-57394723D01*
X92385327Y-57394726D01*
X92294726Y-57485327D01*
X92294723Y-57485331D01*
X92223538Y-57591866D01*
X92223533Y-57591875D01*
X92174499Y-57710255D01*
X92174497Y-57710261D01*
X92149500Y-57835928D01*
X92149500Y-57835931D01*
X92149500Y-57964069D01*
X92149500Y-57964071D01*
X92149499Y-57964071D01*
X80368794Y-57964071D01*
X80322205Y-57932941D01*
X80308133Y-57923538D01*
X80308124Y-57923533D01*
X80189744Y-57874499D01*
X80189738Y-57874497D01*
X80064071Y-57849500D01*
X80064069Y-57849500D01*
X79935931Y-57849500D01*
X79935929Y-57849500D01*
X79810261Y-57874497D01*
X79810255Y-57874499D01*
X79691875Y-57923533D01*
X79691866Y-57923538D01*
X79585331Y-57994723D01*
X79585327Y-57994726D01*
X79494726Y-58085327D01*
X79494723Y-58085331D01*
X79423538Y-58191866D01*
X79423533Y-58191875D01*
X79374499Y-58310255D01*
X79374497Y-58310261D01*
X79349500Y-58435928D01*
X79349500Y-58435931D01*
X79349500Y-58564069D01*
X79349500Y-58564071D01*
X79349499Y-58564071D01*
X78612000Y-58564071D01*
X78612000Y-56964071D01*
X83099499Y-56964071D01*
X83124497Y-57089738D01*
X83124499Y-57089744D01*
X83173533Y-57208124D01*
X83173538Y-57208133D01*
X83244723Y-57314668D01*
X83244726Y-57314672D01*
X83335327Y-57405273D01*
X83335331Y-57405276D01*
X83441866Y-57476461D01*
X83441872Y-57476464D01*
X83441873Y-57476465D01*
X83560256Y-57525501D01*
X83560260Y-57525501D01*
X83560261Y-57525502D01*
X83685928Y-57550500D01*
X83685931Y-57550500D01*
X83814071Y-57550500D01*
X83898615Y-57533682D01*
X83939744Y-57525501D01*
X84058127Y-57476465D01*
X84164669Y-57405276D01*
X84255276Y-57314669D01*
X84326465Y-57208127D01*
X84375501Y-57089744D01*
X84398649Y-56973375D01*
X84400500Y-56964071D01*
X84400500Y-56835928D01*
X84375502Y-56710261D01*
X84375501Y-56710260D01*
X84375501Y-56710256D01*
X84326465Y-56591873D01*
X84326464Y-56591872D01*
X84326461Y-56591866D01*
X84255276Y-56485331D01*
X84255273Y-56485327D01*
X84164672Y-56394726D01*
X84164668Y-56394723D01*
X84058133Y-56323538D01*
X84058124Y-56323533D01*
X83939744Y-56274499D01*
X83939738Y-56274497D01*
X83814071Y-56249500D01*
X83814069Y-56249500D01*
X83685931Y-56249500D01*
X83685929Y-56249500D01*
X83560261Y-56274497D01*
X83560255Y-56274499D01*
X83441875Y-56323533D01*
X83441866Y-56323538D01*
X83335331Y-56394723D01*
X83335327Y-56394726D01*
X83244726Y-56485327D01*
X83244723Y-56485331D01*
X83173538Y-56591866D01*
X83173533Y-56591875D01*
X83124499Y-56710255D01*
X83124497Y-56710261D01*
X83099500Y-56835928D01*
X83099500Y-56835931D01*
X83099500Y-56964069D01*
X83099500Y-56964071D01*
X83099499Y-56964071D01*
X78612000Y-56964071D01*
X78612000Y-54298129D01*
X83649499Y-54298129D01*
X83674497Y-54423796D01*
X83674499Y-54423802D01*
X83723533Y-54542182D01*
X83723538Y-54542191D01*
X83794723Y-54648726D01*
X83794726Y-54648730D01*
X83885327Y-54739331D01*
X83885331Y-54739334D01*
X83991866Y-54810519D01*
X83991872Y-54810522D01*
X83991873Y-54810523D01*
X84110256Y-54859559D01*
X84110260Y-54859559D01*
X84110261Y-54859560D01*
X84235928Y-54884558D01*
X84235931Y-54884558D01*
X84364071Y-54884558D01*
X84467061Y-54864071D01*
X97949499Y-54864071D01*
X97974497Y-54989738D01*
X97974499Y-54989744D01*
X98023533Y-55108124D01*
X98023538Y-55108133D01*
X98094723Y-55214668D01*
X98094726Y-55214672D01*
X98185327Y-55305273D01*
X98185331Y-55305276D01*
X98291866Y-55376461D01*
X98291872Y-55376464D01*
X98291873Y-55376465D01*
X98410256Y-55425501D01*
X98410260Y-55425501D01*
X98410261Y-55425502D01*
X98535928Y-55450500D01*
X98535931Y-55450500D01*
X98664071Y-55450500D01*
X98748615Y-55433682D01*
X98789744Y-55425501D01*
X98908127Y-55376465D01*
X99014669Y-55305276D01*
X99105276Y-55214669D01*
X99176465Y-55108127D01*
X99225501Y-54989744D01*
X99237139Y-54931238D01*
X99250500Y-54864071D01*
X99250500Y-54805571D01*
X109349499Y-54805571D01*
X109374497Y-54931238D01*
X109374499Y-54931244D01*
X109423533Y-55049624D01*
X109423538Y-55049633D01*
X109494723Y-55156168D01*
X109494726Y-55156172D01*
X109585327Y-55246773D01*
X109585331Y-55246776D01*
X109691866Y-55317961D01*
X109691872Y-55317964D01*
X109691873Y-55317965D01*
X109810256Y-55367001D01*
X109810260Y-55367001D01*
X109810261Y-55367002D01*
X109935928Y-55392000D01*
X109935931Y-55392000D01*
X110064071Y-55392000D01*
X110148615Y-55375182D01*
X110189744Y-55367001D01*
X110308127Y-55317965D01*
X110414669Y-55246776D01*
X110505276Y-55156169D01*
X110576465Y-55049627D01*
X110625501Y-54931244D01*
X110639760Y-54859560D01*
X110650500Y-54805571D01*
X110650500Y-54677428D01*
X110625502Y-54551761D01*
X110625501Y-54551760D01*
X110625501Y-54551756D01*
X110576465Y-54433373D01*
X110576464Y-54433372D01*
X110576461Y-54433366D01*
X110505276Y-54326831D01*
X110505273Y-54326827D01*
X110414672Y-54236226D01*
X110414668Y-54236223D01*
X110308133Y-54165038D01*
X110308124Y-54165033D01*
X110189744Y-54115999D01*
X110189738Y-54115997D01*
X110064071Y-54091000D01*
X110064069Y-54091000D01*
X109935931Y-54091000D01*
X109935929Y-54091000D01*
X109810261Y-54115997D01*
X109810255Y-54115999D01*
X109691875Y-54165033D01*
X109691866Y-54165038D01*
X109585331Y-54236223D01*
X109585327Y-54236226D01*
X109494726Y-54326827D01*
X109494723Y-54326831D01*
X109423538Y-54433366D01*
X109423533Y-54433375D01*
X109374499Y-54551755D01*
X109374497Y-54551761D01*
X109349500Y-54677428D01*
X109349500Y-54677431D01*
X109349500Y-54805569D01*
X109349500Y-54805571D01*
X109349499Y-54805571D01*
X99250500Y-54805571D01*
X99250500Y-54735928D01*
X99242464Y-54695531D01*
X99225502Y-54610261D01*
X99225501Y-54610260D01*
X99225501Y-54610256D01*
X99176465Y-54491873D01*
X99176464Y-54491872D01*
X99176461Y-54491866D01*
X99105276Y-54385331D01*
X99105273Y-54385327D01*
X99014672Y-54294726D01*
X99014668Y-54294723D01*
X98908133Y-54223538D01*
X98908124Y-54223533D01*
X98789744Y-54174499D01*
X98789738Y-54174497D01*
X98664071Y-54149500D01*
X98664069Y-54149500D01*
X98535931Y-54149500D01*
X98535929Y-54149500D01*
X98410261Y-54174497D01*
X98410255Y-54174499D01*
X98291875Y-54223533D01*
X98291866Y-54223538D01*
X98185331Y-54294723D01*
X98185327Y-54294726D01*
X98094726Y-54385327D01*
X98094723Y-54385331D01*
X98023538Y-54491866D01*
X98023533Y-54491875D01*
X97974499Y-54610255D01*
X97974497Y-54610261D01*
X97949500Y-54735928D01*
X97949500Y-54735931D01*
X97949500Y-54864069D01*
X97949500Y-54864071D01*
X97949499Y-54864071D01*
X84467061Y-54864071D01*
X84467071Y-54864069D01*
X84489744Y-54859559D01*
X84608127Y-54810523D01*
X84714669Y-54739334D01*
X84805276Y-54648727D01*
X84876465Y-54542185D01*
X84925501Y-54423802D01*
X84933682Y-54382673D01*
X84950500Y-54298129D01*
X84950500Y-54169986D01*
X84925502Y-54044319D01*
X84925501Y-54044318D01*
X84925501Y-54044314D01*
X84876465Y-53925931D01*
X84876464Y-53925930D01*
X84876461Y-53925924D01*
X84805276Y-53819389D01*
X84805273Y-53819385D01*
X84714672Y-53728784D01*
X84714668Y-53728781D01*
X84608133Y-53657596D01*
X84608124Y-53657591D01*
X84489744Y-53608557D01*
X84489738Y-53608555D01*
X84364071Y-53583558D01*
X84364069Y-53583558D01*
X84235931Y-53583558D01*
X84235929Y-53583558D01*
X84110261Y-53608555D01*
X84110255Y-53608557D01*
X83991875Y-53657591D01*
X83991866Y-53657596D01*
X83885331Y-53728781D01*
X83885327Y-53728784D01*
X83794726Y-53819385D01*
X83794723Y-53819389D01*
X83723538Y-53925924D01*
X83723533Y-53925933D01*
X83674499Y-54044313D01*
X83674497Y-54044319D01*
X83649500Y-54169986D01*
X83649500Y-54169989D01*
X83649500Y-54298127D01*
X83649500Y-54298129D01*
X83649499Y-54298129D01*
X78612000Y-54298129D01*
X78612000Y-51864071D01*
X80349499Y-51864071D01*
X80374497Y-51989738D01*
X80374499Y-51989744D01*
X80423533Y-52108124D01*
X80423538Y-52108133D01*
X80494723Y-52214668D01*
X80494726Y-52214672D01*
X80585327Y-52305273D01*
X80585331Y-52305276D01*
X80691866Y-52376461D01*
X80691872Y-52376464D01*
X80691873Y-52376465D01*
X80810256Y-52425501D01*
X80810258Y-52425501D01*
X80810260Y-52425502D01*
X80824743Y-52428383D01*
X80886653Y-52460769D01*
X80921227Y-52521485D01*
X80917486Y-52591254D01*
X80876619Y-52647926D01*
X80824743Y-52671617D01*
X80810260Y-52674497D01*
X80810255Y-52674499D01*
X80691875Y-52723533D01*
X80691866Y-52723538D01*
X80585331Y-52794723D01*
X80585327Y-52794726D01*
X80494726Y-52885327D01*
X80494723Y-52885331D01*
X80423538Y-52991866D01*
X80423533Y-52991875D01*
X80374499Y-53110255D01*
X80374497Y-53110261D01*
X80349500Y-53235928D01*
X80349500Y-53235931D01*
X80349500Y-53364069D01*
X80349500Y-53364071D01*
X80349499Y-53364071D01*
X80374497Y-53489738D01*
X80374499Y-53489744D01*
X80423533Y-53608124D01*
X80423538Y-53608133D01*
X80494723Y-53714668D01*
X80494726Y-53714672D01*
X80585327Y-53805273D01*
X80585331Y-53805276D01*
X80691866Y-53876461D01*
X80691872Y-53876464D01*
X80691873Y-53876465D01*
X80810256Y-53925501D01*
X80810260Y-53925501D01*
X80810261Y-53925502D01*
X80935928Y-53950500D01*
X80935931Y-53950500D01*
X81064071Y-53950500D01*
X81148615Y-53933682D01*
X81189744Y-53925501D01*
X81308127Y-53876465D01*
X81414669Y-53805276D01*
X81505276Y-53714669D01*
X81576465Y-53608127D01*
X81625501Y-53489744D01*
X81650500Y-53364071D01*
X92524499Y-53364071D01*
X92549497Y-53489738D01*
X92549499Y-53489744D01*
X92598534Y-53608127D01*
X92613892Y-53631112D01*
X92634768Y-53697790D01*
X92616282Y-53765170D01*
X92613892Y-53768888D01*
X92598534Y-53791872D01*
X92549499Y-53910255D01*
X92549497Y-53910261D01*
X92524500Y-54035928D01*
X92524500Y-54035931D01*
X92524500Y-54164069D01*
X92524500Y-54164071D01*
X92524499Y-54164071D01*
X92549497Y-54289738D01*
X92549499Y-54289744D01*
X92598533Y-54408124D01*
X92598538Y-54408133D01*
X92669723Y-54514668D01*
X92669726Y-54514672D01*
X92760327Y-54605273D01*
X92760331Y-54605276D01*
X92866866Y-54676461D01*
X92866872Y-54676464D01*
X92866873Y-54676465D01*
X92985256Y-54725501D01*
X92985260Y-54725501D01*
X92985261Y-54725502D01*
X93110928Y-54750500D01*
X93110931Y-54750500D01*
X93239071Y-54750500D01*
X93323615Y-54733682D01*
X93364744Y-54725501D01*
X93483127Y-54676465D01*
X93483133Y-54676461D01*
X93557551Y-54626737D01*
X93582208Y-54610261D01*
X93589669Y-54605276D01*
X93680276Y-54514669D01*
X93751465Y-54408127D01*
X93800501Y-54289744D01*
X93813672Y-54223533D01*
X93825500Y-54164071D01*
X93825500Y-54035928D01*
X93800502Y-53910261D01*
X93800501Y-53910260D01*
X93800501Y-53910256D01*
X93751465Y-53791873D01*
X93736108Y-53768890D01*
X93715230Y-53702215D01*
X93733714Y-53634835D01*
X93736096Y-53631126D01*
X93751465Y-53608127D01*
X93800501Y-53489744D01*
X93825500Y-53364069D01*
X93825500Y-53235931D01*
X93825500Y-53235928D01*
X93800502Y-53110261D01*
X93800501Y-53110260D01*
X93800501Y-53110256D01*
X93751465Y-52991873D01*
X93751464Y-52991872D01*
X93751461Y-52991866D01*
X93680276Y-52885331D01*
X93680273Y-52885327D01*
X93589672Y-52794726D01*
X93589668Y-52794723D01*
X93483133Y-52723538D01*
X93483124Y-52723533D01*
X93364744Y-52674499D01*
X93364738Y-52674497D01*
X93239071Y-52649500D01*
X93239069Y-52649500D01*
X93110931Y-52649500D01*
X93110929Y-52649500D01*
X92985261Y-52674497D01*
X92985255Y-52674499D01*
X92866875Y-52723533D01*
X92866866Y-52723538D01*
X92760331Y-52794723D01*
X92760327Y-52794726D01*
X92669726Y-52885327D01*
X92669723Y-52885331D01*
X92598538Y-52991866D01*
X92598533Y-52991875D01*
X92549499Y-53110255D01*
X92549497Y-53110261D01*
X92524500Y-53235928D01*
X92524500Y-53235931D01*
X92524500Y-53364069D01*
X92524500Y-53364071D01*
X92524499Y-53364071D01*
X81650500Y-53364071D01*
X81650500Y-53364069D01*
X81650500Y-53235931D01*
X81650500Y-53235928D01*
X81625502Y-53110261D01*
X81625501Y-53110260D01*
X81625501Y-53110256D01*
X81576465Y-52991873D01*
X81576464Y-52991872D01*
X81576461Y-52991866D01*
X81505276Y-52885331D01*
X81505273Y-52885327D01*
X81414672Y-52794726D01*
X81414668Y-52794723D01*
X81308133Y-52723538D01*
X81308124Y-52723533D01*
X81189744Y-52674499D01*
X81189738Y-52674497D01*
X81175257Y-52671617D01*
X81113347Y-52639232D01*
X81078772Y-52578516D01*
X81082512Y-52508747D01*
X81123379Y-52452075D01*
X81175257Y-52428383D01*
X81183784Y-52426686D01*
X81189744Y-52425501D01*
X81308127Y-52376465D01*
X81414669Y-52305276D01*
X81455874Y-52264071D01*
X97949499Y-52264071D01*
X97974497Y-52389738D01*
X97974499Y-52389744D01*
X98023533Y-52508124D01*
X98023538Y-52508133D01*
X98094723Y-52614668D01*
X98094726Y-52614672D01*
X98185327Y-52705273D01*
X98185331Y-52705276D01*
X98291866Y-52776461D01*
X98291872Y-52776464D01*
X98291873Y-52776465D01*
X98410256Y-52825501D01*
X98410260Y-52825501D01*
X98410261Y-52825502D01*
X98535928Y-52850500D01*
X98535931Y-52850500D01*
X98664071Y-52850500D01*
X98748615Y-52833682D01*
X98789744Y-52825501D01*
X98908127Y-52776465D01*
X99014669Y-52705276D01*
X99105276Y-52614669D01*
X99176465Y-52508127D01*
X99225501Y-52389744D01*
X99250500Y-52264071D01*
X108349499Y-52264071D01*
X108374497Y-52389738D01*
X108374499Y-52389744D01*
X108423533Y-52508124D01*
X108423538Y-52508133D01*
X108494723Y-52614668D01*
X108494726Y-52614672D01*
X108585327Y-52705273D01*
X108585331Y-52705276D01*
X108691866Y-52776461D01*
X108691872Y-52776464D01*
X108691873Y-52776465D01*
X108810256Y-52825501D01*
X108810260Y-52825501D01*
X108810261Y-52825502D01*
X108935928Y-52850500D01*
X108935931Y-52850500D01*
X109064071Y-52850500D01*
X109148615Y-52833682D01*
X109189744Y-52825501D01*
X109308127Y-52776465D01*
X109414669Y-52705276D01*
X109414673Y-52705271D01*
X109419379Y-52701411D01*
X109420720Y-52703045D01*
X109473611Y-52674148D01*
X109543304Y-52679114D01*
X109579715Y-52702514D01*
X109580621Y-52701411D01*
X109585331Y-52705276D01*
X109691866Y-52776461D01*
X109691872Y-52776464D01*
X109691873Y-52776465D01*
X109810256Y-52825501D01*
X109810260Y-52825501D01*
X109810261Y-52825502D01*
X109935928Y-52850500D01*
X109935931Y-52850500D01*
X110064071Y-52850500D01*
X110148615Y-52833682D01*
X110189744Y-52825501D01*
X110308127Y-52776465D01*
X110414669Y-52705276D01*
X110505276Y-52614669D01*
X110576465Y-52508127D01*
X110625501Y-52389744D01*
X110650500Y-52264069D01*
X110650500Y-52135931D01*
X110650500Y-52135928D01*
X110625502Y-52010261D01*
X110625501Y-52010260D01*
X110625501Y-52010256D01*
X110576465Y-51891873D01*
X110576464Y-51891872D01*
X110576461Y-51891866D01*
X110505276Y-51785331D01*
X110505273Y-51785327D01*
X110414672Y-51694726D01*
X110414668Y-51694723D01*
X110308133Y-51623538D01*
X110308124Y-51623533D01*
X110189744Y-51574499D01*
X110189738Y-51574497D01*
X110064071Y-51549500D01*
X110064069Y-51549500D01*
X109935931Y-51549500D01*
X109935929Y-51549500D01*
X109810261Y-51574497D01*
X109810255Y-51574499D01*
X109691875Y-51623533D01*
X109691866Y-51623538D01*
X109585331Y-51694723D01*
X109580621Y-51698589D01*
X109579283Y-51696958D01*
X109526358Y-51725858D01*
X109456666Y-51720874D01*
X109420280Y-51697489D01*
X109419379Y-51698589D01*
X109414668Y-51694723D01*
X109308133Y-51623538D01*
X109308124Y-51623533D01*
X109189744Y-51574499D01*
X109189738Y-51574497D01*
X109064071Y-51549500D01*
X109064069Y-51549500D01*
X108935931Y-51549500D01*
X108935929Y-51549500D01*
X108810261Y-51574497D01*
X108810255Y-51574499D01*
X108691875Y-51623533D01*
X108691866Y-51623538D01*
X108585331Y-51694723D01*
X108585327Y-51694726D01*
X108494726Y-51785327D01*
X108494723Y-51785331D01*
X108423538Y-51891866D01*
X108423533Y-51891875D01*
X108374499Y-52010255D01*
X108374497Y-52010261D01*
X108349500Y-52135928D01*
X108349500Y-52135931D01*
X108349500Y-52264069D01*
X108349500Y-52264071D01*
X108349499Y-52264071D01*
X99250500Y-52264071D01*
X99250500Y-52264069D01*
X99250500Y-52135931D01*
X99250500Y-52135928D01*
X99225502Y-52010261D01*
X99225501Y-52010260D01*
X99225501Y-52010256D01*
X99176465Y-51891873D01*
X99176464Y-51891872D01*
X99176461Y-51891866D01*
X99105276Y-51785331D01*
X99105273Y-51785327D01*
X99014672Y-51694726D01*
X99014668Y-51694723D01*
X98908133Y-51623538D01*
X98908124Y-51623533D01*
X98789744Y-51574499D01*
X98789738Y-51574497D01*
X98664071Y-51549500D01*
X98664069Y-51549500D01*
X98535931Y-51549500D01*
X98535929Y-51549500D01*
X98410261Y-51574497D01*
X98410255Y-51574499D01*
X98291875Y-51623533D01*
X98291866Y-51623538D01*
X98185331Y-51694723D01*
X98185327Y-51694726D01*
X98094726Y-51785327D01*
X98094723Y-51785331D01*
X98023538Y-51891866D01*
X98023533Y-51891875D01*
X97974499Y-52010255D01*
X97974497Y-52010261D01*
X97949500Y-52135928D01*
X97949500Y-52135931D01*
X97949500Y-52264069D01*
X97949500Y-52264071D01*
X97949499Y-52264071D01*
X81455874Y-52264071D01*
X81505276Y-52214669D01*
X81576465Y-52108127D01*
X81625501Y-51989744D01*
X81644969Y-51891875D01*
X81650500Y-51864071D01*
X81650500Y-51735928D01*
X81625502Y-51610261D01*
X81625501Y-51610260D01*
X81625501Y-51610256D01*
X81576465Y-51491873D01*
X81576464Y-51491872D01*
X81576461Y-51491866D01*
X81505276Y-51385331D01*
X81505273Y-51385327D01*
X81414672Y-51294726D01*
X81414668Y-51294723D01*
X81308133Y-51223538D01*
X81308124Y-51223533D01*
X81189744Y-51174499D01*
X81189738Y-51174497D01*
X81064071Y-51149500D01*
X81064069Y-51149500D01*
X80935931Y-51149500D01*
X80935929Y-51149500D01*
X80810261Y-51174497D01*
X80810255Y-51174499D01*
X80691875Y-51223533D01*
X80691866Y-51223538D01*
X80585331Y-51294723D01*
X80585327Y-51294726D01*
X80494726Y-51385327D01*
X80494723Y-51385331D01*
X80423538Y-51491866D01*
X80423533Y-51491875D01*
X80374499Y-51610255D01*
X80374497Y-51610261D01*
X80349500Y-51735928D01*
X80349500Y-51735931D01*
X80349500Y-51864069D01*
X80349500Y-51864071D01*
X80349499Y-51864071D01*
X78612000Y-51864071D01*
X78612000Y-50764071D01*
X83824499Y-50764071D01*
X83849497Y-50889738D01*
X83849499Y-50889744D01*
X83898533Y-51008124D01*
X83898538Y-51008133D01*
X83969723Y-51114668D01*
X83969726Y-51114672D01*
X84060327Y-51205273D01*
X84060331Y-51205276D01*
X84166866Y-51276461D01*
X84166872Y-51276464D01*
X84166873Y-51276465D01*
X84285256Y-51325501D01*
X84285260Y-51325501D01*
X84285261Y-51325502D01*
X84410928Y-51350500D01*
X84410931Y-51350500D01*
X84539071Y-51350500D01*
X84623615Y-51333682D01*
X84664744Y-51325501D01*
X84783127Y-51276465D01*
X84889669Y-51205276D01*
X84980276Y-51114669D01*
X85051465Y-51008127D01*
X85100501Y-50889744D01*
X85125500Y-50764071D01*
X86149499Y-50764071D01*
X86174497Y-50889738D01*
X86174499Y-50889744D01*
X86223533Y-51008124D01*
X86223538Y-51008133D01*
X86294723Y-51114668D01*
X86294726Y-51114672D01*
X86385327Y-51205273D01*
X86385331Y-51205276D01*
X86491866Y-51276461D01*
X86491872Y-51276464D01*
X86491873Y-51276465D01*
X86610256Y-51325501D01*
X86610260Y-51325501D01*
X86610261Y-51325502D01*
X86735928Y-51350500D01*
X86735931Y-51350500D01*
X86864071Y-51350500D01*
X86948615Y-51333682D01*
X86989744Y-51325501D01*
X87108127Y-51276465D01*
X87214669Y-51205276D01*
X87305276Y-51114669D01*
X87376465Y-51008127D01*
X87425501Y-50889744D01*
X87450500Y-50764069D01*
X87450500Y-50635931D01*
X87450500Y-50635928D01*
X87425502Y-50510261D01*
X87425501Y-50510260D01*
X87425501Y-50510256D01*
X87406370Y-50464071D01*
X93549499Y-50464071D01*
X93574497Y-50589738D01*
X93574499Y-50589744D01*
X93623533Y-50708124D01*
X93623538Y-50708133D01*
X93694723Y-50814668D01*
X93694726Y-50814672D01*
X93785327Y-50905273D01*
X93785331Y-50905276D01*
X93891866Y-50976461D01*
X93891872Y-50976464D01*
X93891873Y-50976465D01*
X94010256Y-51025501D01*
X94010260Y-51025501D01*
X94010261Y-51025502D01*
X94135928Y-51050500D01*
X94135931Y-51050500D01*
X94264071Y-51050500D01*
X94348615Y-51033682D01*
X94389744Y-51025501D01*
X94508127Y-50976465D01*
X94614669Y-50905276D01*
X94705276Y-50814669D01*
X94776465Y-50708127D01*
X94825501Y-50589744D01*
X94850500Y-50464069D01*
X94850500Y-50335931D01*
X94850500Y-50335928D01*
X94825502Y-50210261D01*
X94825501Y-50210260D01*
X94825501Y-50210256D01*
X94782017Y-50105276D01*
X94776466Y-50091875D01*
X94776461Y-50091866D01*
X94705276Y-49985331D01*
X94705273Y-49985327D01*
X94614672Y-49894726D01*
X94614668Y-49894723D01*
X94508133Y-49823538D01*
X94508124Y-49823533D01*
X94389744Y-49774499D01*
X94389738Y-49774497D01*
X94264071Y-49749500D01*
X94264069Y-49749500D01*
X94135931Y-49749500D01*
X94135929Y-49749500D01*
X94010261Y-49774497D01*
X94010255Y-49774499D01*
X93891875Y-49823533D01*
X93891866Y-49823538D01*
X93785331Y-49894723D01*
X93785327Y-49894726D01*
X93694726Y-49985327D01*
X93694723Y-49985331D01*
X93623538Y-50091866D01*
X93623533Y-50091875D01*
X93574499Y-50210255D01*
X93574497Y-50210261D01*
X93549500Y-50335928D01*
X93549500Y-50335931D01*
X93549500Y-50464069D01*
X93549500Y-50464071D01*
X93549499Y-50464071D01*
X87406370Y-50464071D01*
X87376465Y-50391873D01*
X87376464Y-50391872D01*
X87376461Y-50391866D01*
X87305276Y-50285331D01*
X87305273Y-50285327D01*
X87214672Y-50194726D01*
X87214668Y-50194723D01*
X87108133Y-50123538D01*
X87108124Y-50123533D01*
X86989744Y-50074499D01*
X86989738Y-50074497D01*
X86864071Y-50049500D01*
X86864069Y-50049500D01*
X86735931Y-50049500D01*
X86735929Y-50049500D01*
X86610261Y-50074497D01*
X86610255Y-50074499D01*
X86491875Y-50123533D01*
X86491866Y-50123538D01*
X86385331Y-50194723D01*
X86385327Y-50194726D01*
X86294726Y-50285327D01*
X86294723Y-50285331D01*
X86223538Y-50391866D01*
X86223533Y-50391875D01*
X86174499Y-50510255D01*
X86174497Y-50510261D01*
X86149500Y-50635928D01*
X86149500Y-50635931D01*
X86149500Y-50764069D01*
X86149500Y-50764071D01*
X86149499Y-50764071D01*
X85125500Y-50764071D01*
X85125500Y-50764069D01*
X85125500Y-50635931D01*
X85125500Y-50635928D01*
X85100502Y-50510261D01*
X85100501Y-50510260D01*
X85100501Y-50510256D01*
X85051465Y-50391873D01*
X85051464Y-50391872D01*
X85051461Y-50391866D01*
X84980276Y-50285331D01*
X84980273Y-50285327D01*
X84889672Y-50194726D01*
X84889668Y-50194723D01*
X84783133Y-50123538D01*
X84783124Y-50123533D01*
X84664744Y-50074499D01*
X84664738Y-50074497D01*
X84539071Y-50049500D01*
X84539069Y-50049500D01*
X84410931Y-50049500D01*
X84410929Y-50049500D01*
X84285261Y-50074497D01*
X84285255Y-50074499D01*
X84166875Y-50123533D01*
X84166866Y-50123538D01*
X84060331Y-50194723D01*
X84060327Y-50194726D01*
X83969726Y-50285327D01*
X83969723Y-50285331D01*
X83898538Y-50391866D01*
X83898533Y-50391875D01*
X83849499Y-50510255D01*
X83849497Y-50510261D01*
X83824500Y-50635928D01*
X83824500Y-50635931D01*
X83824500Y-50764069D01*
X83824500Y-50764071D01*
X83824499Y-50764071D01*
X78612000Y-50764071D01*
X78612000Y-49664071D01*
X89324499Y-49664071D01*
X89349497Y-49789738D01*
X89349499Y-49789744D01*
X89398533Y-49908124D01*
X89398538Y-49908133D01*
X89469723Y-50014668D01*
X89469726Y-50014672D01*
X89560327Y-50105273D01*
X89560331Y-50105276D01*
X89666866Y-50176461D01*
X89666872Y-50176464D01*
X89666873Y-50176465D01*
X89785256Y-50225501D01*
X89785260Y-50225501D01*
X89785261Y-50225502D01*
X89910928Y-50250500D01*
X89910931Y-50250500D01*
X90039071Y-50250500D01*
X90123615Y-50233682D01*
X90164744Y-50225501D01*
X90283127Y-50176465D01*
X90389669Y-50105276D01*
X90480276Y-50014669D01*
X90551465Y-49908127D01*
X90600501Y-49789744D01*
X90625500Y-49664069D01*
X90625500Y-49535931D01*
X90625500Y-49535928D01*
X90600502Y-49410261D01*
X90600501Y-49410260D01*
X90600501Y-49410256D01*
X90551465Y-49291873D01*
X90551464Y-49291872D01*
X90551461Y-49291866D01*
X90480276Y-49185331D01*
X90480273Y-49185327D01*
X90389672Y-49094726D01*
X90389668Y-49094723D01*
X90283133Y-49023538D01*
X90283124Y-49023533D01*
X90164744Y-48974499D01*
X90164738Y-48974497D01*
X90039071Y-48949500D01*
X90039069Y-48949500D01*
X89910931Y-48949500D01*
X89910929Y-48949500D01*
X89785261Y-48974497D01*
X89785255Y-48974499D01*
X89666875Y-49023533D01*
X89666866Y-49023538D01*
X89560331Y-49094723D01*
X89560327Y-49094726D01*
X89469726Y-49185327D01*
X89469723Y-49185331D01*
X89398538Y-49291866D01*
X89398533Y-49291875D01*
X89349499Y-49410255D01*
X89349497Y-49410261D01*
X89324500Y-49535928D01*
X89324500Y-49535931D01*
X89324500Y-49664069D01*
X89324500Y-49664071D01*
X89324499Y-49664071D01*
X78612000Y-49664071D01*
X78612000Y-44386000D01*
X78631685Y-44318961D01*
X78684489Y-44273206D01*
X78736000Y-44262000D01*
X113987000Y-44262000D01*
X114054039Y-44281685D01*
G37*
%TD.AperFunction*%
%TD*%
M02*
