%TF.GenerationSoftware,KiCad,Pcbnew,9.0.5*%
%TF.CreationDate,2025-12-09T00:49:43+00:00*%
%TF.ProjectId,WaviTrack_v3_1,57617669-5472-4616-936b-5f76335f312e,2.1*%
%TF.SameCoordinates,Original*%
%TF.FileFunction,Paste,Top*%
%TF.FilePolarity,Positive*%
%FSLAX46Y46*%
G04 Gerber Fmt 4.6, Leading zero omitted, Abs format (unit mm)*
G04 Created by KiCad (PCBNEW 9.0.5) date 2025-12-09 00:49:43*
%MOMM*%
%LPD*%
G01*
G04 APERTURE LIST*
G04 Aperture macros list*
%AMRoundRect*
0 Rectangle with rounded corners*
0 $1 Rounding radius*
0 $2 $3 $4 $5 $6 $7 $8 $9 X,Y pos of 4 corners*
0 Add a 4 corners polygon primitive as box body*
4,1,4,$2,$3,$4,$5,$6,$7,$8,$9,$2,$3,0*
0 Add four circle primitives for the rounded corners*
1,1,$1+$1,$2,$3*
1,1,$1+$1,$4,$5*
1,1,$1+$1,$6,$7*
1,1,$1+$1,$8,$9*
0 Add four rect primitives between the rounded corners*
20,1,$1+$1,$2,$3,$4,$5,0*
20,1,$1+$1,$4,$5,$6,$7,0*
20,1,$1+$1,$6,$7,$8,$9,0*
20,1,$1+$1,$8,$9,$2,$3,0*%
G04 Aperture macros list end*
%ADD10RoundRect,0.200000X0.200000X0.275000X-0.200000X0.275000X-0.200000X-0.275000X0.200000X-0.275000X0*%
%ADD11RoundRect,0.225000X-0.250000X0.225000X-0.250000X-0.225000X0.250000X-0.225000X0.250000X0.225000X0*%
%ADD12RoundRect,0.218750X0.256250X-0.218750X0.256250X0.218750X-0.256250X0.218750X-0.256250X-0.218750X0*%
%ADD13RoundRect,0.200000X-0.200000X-0.275000X0.200000X-0.275000X0.200000X0.275000X-0.200000X0.275000X0*%
%ADD14RoundRect,0.200000X-0.275000X0.200000X-0.275000X-0.200000X0.275000X-0.200000X0.275000X0.200000X0*%
%ADD15RoundRect,0.200000X0.275000X-0.200000X0.275000X0.200000X-0.275000X0.200000X-0.275000X-0.200000X0*%
%ADD16RoundRect,0.225000X0.225000X0.250000X-0.225000X0.250000X-0.225000X-0.250000X0.225000X-0.250000X0*%
%ADD17R,0.250000X0.675000*%
%ADD18R,0.575000X0.250000*%
%ADD19R,1.000000X1.800000*%
%ADD20R,2.450000X1.000000*%
%ADD21R,1.000000X2.450000*%
%ADD22RoundRect,0.500000X-0.875000X-0.500000X0.875000X-0.500000X0.875000X0.500000X-0.875000X0.500000X0*%
%ADD23RoundRect,0.275000X-0.275000X0.975000X-0.275000X-0.975000X0.275000X-0.975000X0.275000X0.975000X0*%
%ADD24C,1.700000*%
G04 APERTURE END LIST*
D10*
%TO.C,R1*%
X90825000Y-49600000D03*
X92475000Y-49600000D03*
%TD*%
D11*
%TO.C,C5*%
X91850000Y-46550000D03*
X91850000Y-48100000D03*
%TD*%
D12*
%TO.C,D1*%
X81500000Y-57500000D03*
X81500000Y-55925000D03*
%TD*%
D13*
%TO.C,R4*%
X81950000Y-51800000D03*
X83600000Y-51800000D03*
%TD*%
D14*
%TO.C,R10*%
X80000000Y-55875000D03*
X80000000Y-57525000D03*
%TD*%
%TO.C,R6*%
X90900000Y-55375000D03*
X90900000Y-57025000D03*
%TD*%
D15*
%TO.C,R9*%
X83000000Y-57525000D03*
X83000000Y-55875000D03*
%TD*%
D11*
%TO.C,C3*%
X89400000Y-55425000D03*
X89400000Y-56975000D03*
%TD*%
D14*
%TO.C,R2*%
X92800000Y-55375000D03*
X92800000Y-57025000D03*
%TD*%
D15*
%TO.C,R8*%
X84500000Y-57525000D03*
X84500000Y-55875000D03*
%TD*%
D11*
%TO.C,C4*%
X86350000Y-46550000D03*
X86350000Y-48100000D03*
%TD*%
D16*
%TO.C,C2*%
X86550000Y-51800000D03*
X85000000Y-51800000D03*
%TD*%
%TO.C,C1*%
X87800000Y-49600000D03*
X86250000Y-49600000D03*
%TD*%
D12*
%TO.C,D2*%
X86000000Y-57500000D03*
X86000000Y-55925000D03*
%TD*%
D17*
%TO.C,U2*%
X87850000Y-50987500D03*
D18*
X87787500Y-51800000D03*
X87787500Y-52300000D03*
X87787500Y-52800000D03*
X87787500Y-53300000D03*
D17*
X87850000Y-54112500D03*
X88350000Y-54112500D03*
X88850000Y-54112500D03*
X89350000Y-54112500D03*
X89850000Y-54112500D03*
X90350000Y-54112500D03*
X90850000Y-54112500D03*
X91350000Y-54112500D03*
X91850000Y-54112500D03*
X92350000Y-54112500D03*
D18*
X92412500Y-53300000D03*
X92412500Y-52800000D03*
X92412500Y-52300000D03*
X92412500Y-51800000D03*
D17*
X92350000Y-50987500D03*
X91850000Y-50987500D03*
X91350000Y-50987500D03*
X90850000Y-50987500D03*
X90350000Y-50987500D03*
X89850000Y-50987500D03*
X89350000Y-50987500D03*
X88850000Y-50987500D03*
X88350000Y-50987500D03*
%TD*%
D10*
%TO.C,R5*%
X86600000Y-53300000D03*
X84950000Y-53300000D03*
%TD*%
D13*
%TO.C,R3*%
X81950000Y-53300000D03*
X83600000Y-53300000D03*
%TD*%
D19*
%TO.C,Y1*%
X90350000Y-47650000D03*
X87850000Y-47650000D03*
%TD*%
D14*
%TO.C,R7*%
X93800000Y-46500000D03*
X93800000Y-48150000D03*
%TD*%
D12*
%TO.C,D3*%
X87500000Y-57500000D03*
X87500000Y-55925000D03*
%TD*%
D20*
%TO.C,U3*%
X92625000Y-71886300D03*
X92625000Y-70486300D03*
X92625000Y-69086300D03*
X92625000Y-67686300D03*
X92625000Y-66286300D03*
X92625000Y-64886300D03*
X92625000Y-63486300D03*
X92625000Y-62086300D03*
D21*
X91225000Y-59791300D03*
X89825000Y-59791300D03*
X88425000Y-59791300D03*
X87025000Y-59791300D03*
X85625000Y-59791300D03*
X84225000Y-59791300D03*
X82825000Y-59791300D03*
X81425000Y-59791300D03*
D20*
X80025000Y-62087500D03*
X80025000Y-63487500D03*
X80025000Y-64886300D03*
X80025000Y-66286300D03*
X80025000Y-67686300D03*
X80025000Y-69086300D03*
X80025000Y-70486300D03*
X80025000Y-71886300D03*
%TD*%
D22*
%TO.C,U1*%
X96178400Y-47121500D03*
X96178400Y-49661500D03*
X96178400Y-52201500D03*
X96178400Y-54741500D03*
X96178400Y-57281500D03*
X96178400Y-59821500D03*
X96178400Y-62361500D03*
X112343400Y-62361500D03*
X112343400Y-59821500D03*
X112343400Y-57281500D03*
X112343400Y-54741500D03*
X112343400Y-52201500D03*
X112343400Y-49661500D03*
X112343400Y-47121500D03*
D23*
X102452000Y-60273200D03*
X104992000Y-60273200D03*
D24*
X102960000Y-46100000D03*
X105500000Y-46100000D03*
X102960000Y-48640000D03*
X105500000Y-48640000D03*
X102960000Y-51180000D03*
X105500000Y-51180000D03*
X102960000Y-53720000D03*
X105407400Y-53663200D03*
%TD*%
M02*
