%TF.GenerationSoftware,KiCad,Pcbnew,9.0.5*%
%TF.CreationDate,2025-12-09T00:49:42+00:00*%
%TF.ProjectId,WaviTrack_v3_1,57617669-5472-4616-936b-5f76335f312e,2.1*%
%TF.SameCoordinates,Original*%
%TF.FileFunction,Plated,1,4,PTH,Drill*%
%TF.FilePolarity,Positive*%
%FSLAX46Y46*%
G04 Gerber Fmt 4.6, Leading zero omitted, Abs format (unit mm)*
G04 Created by KiCad (PCBNEW 9.0.5) date 2025-12-09 00:49:42*
%MOMM*%
%LPD*%
G01*
G04 APERTURE LIST*
%TA.AperFunction,ViaDrill*%
%ADD10C,0.300000*%
%TD*%
%TA.AperFunction,ComponentDrill*%
%ADD11C,3.000000*%
%TD*%
G04 APERTURE END LIST*
D10*
X80000000Y-58500000D03*
X81000000Y-51800000D03*
X81000000Y-53300000D03*
X82000000Y-62100000D03*
X82000000Y-63500000D03*
X82000000Y-64900000D03*
X82000000Y-66300000D03*
X82000000Y-69100000D03*
X82400000Y-62800000D03*
X82400000Y-64200000D03*
X82400000Y-65600000D03*
X82400000Y-67000000D03*
X82400000Y-68400000D03*
X82500000Y-70000000D03*
X82500000Y-71500000D03*
X83750000Y-56900000D03*
X84000000Y-62000000D03*
X84000000Y-68000000D03*
X84000000Y-70000000D03*
X84000000Y-71500000D03*
X84300000Y-54234058D03*
X84475000Y-50700000D03*
X85500000Y-62000000D03*
X85500000Y-63500000D03*
X85500000Y-70000000D03*
X85500000Y-71500000D03*
X86800000Y-50700000D03*
X87000000Y-62000000D03*
X87000000Y-63500000D03*
X87000000Y-65000000D03*
X87000000Y-70000000D03*
X87000000Y-71500000D03*
X88463906Y-56975000D03*
X88500000Y-62000000D03*
X88500000Y-63500000D03*
X88500000Y-65000000D03*
X88500000Y-70000000D03*
X88500000Y-71500000D03*
X89300000Y-52100000D03*
X89300000Y-53000000D03*
X89975000Y-49600000D03*
X90000000Y-62000000D03*
X90000000Y-63500000D03*
X90000000Y-65000000D03*
X90000000Y-70000000D03*
X90000000Y-71500000D03*
X90900000Y-52100000D03*
X90900000Y-53000000D03*
X92800000Y-57900000D03*
X92800000Y-59800000D03*
X93175000Y-53300000D03*
X93175000Y-54100000D03*
X94200000Y-50400000D03*
X94200000Y-51400000D03*
X94900000Y-64900000D03*
X94925000Y-68800000D03*
X95800000Y-64900000D03*
X96800000Y-63900000D03*
X97900000Y-63900000D03*
X98250000Y-53500000D03*
X98500000Y-45500000D03*
X98500000Y-47500000D03*
X98600000Y-52200000D03*
X98600000Y-54800000D03*
X98900000Y-63900000D03*
X100500000Y-45500000D03*
X100500000Y-47500000D03*
X101250000Y-52500000D03*
X101250000Y-55250000D03*
X102000000Y-64500000D03*
X104250000Y-55250000D03*
X105500000Y-63900000D03*
X106750000Y-56250000D03*
X107200000Y-52200000D03*
X107500000Y-45500000D03*
X107500000Y-47500000D03*
X107500000Y-65900000D03*
X107750000Y-55250000D03*
X108750000Y-54250000D03*
X109000000Y-52200000D03*
X109500000Y-45500000D03*
X109500000Y-47500000D03*
X109500000Y-49500000D03*
X110000000Y-52200000D03*
X110000000Y-53500000D03*
X110000000Y-54741500D03*
X110000000Y-56000000D03*
X110000000Y-57281500D03*
X110000000Y-58550000D03*
X110000000Y-59821500D03*
X110000000Y-61100000D03*
X110000000Y-62400000D03*
D11*
%TO.C,H2*%
X82100000Y-47750000D03*
%TO.C,H1*%
X110600000Y-68750000D03*
M02*
